<?xml version="1.0" encoding="utf-8"?>
<!-- Generator: Adobe Illustrator 27.7.0, SVG Export Plug-In . SVG Version: 6.00 Build 0)  -->
<svg version="1.1" id="Capa_1" xmlns="http://www.w3.org/2000/svg" xmlns:xlink="http://www.w3.org/1999/xlink" x="0px" y="0px"
	 viewBox="0 0 300 250" style="enable-background:new 0 0 300 250;" xml:space="preserve">
<style type="text/css">
	.st0{fill:none;stroke:#FFFFFF;stroke-miterlimit:10;}
	.st1{fill:#2B2B2B;}
</style>
<g id="th1">
	<polyline class="st0" points="-1.8,28.9 2.7,33.2 7.2,37.4 11.7,41.7 16.2,45.9 18.2,47.7 20.2,49.4 22.2,51.2 24.2,52.9 34,55.4 
		43.7,57.9 53.5,60.4 63.2,62.9 	"/>
	<polyline class="st0" points="-2.8,67.9 20.2,80.9 43.2,93.9 59.7,95.4 76.2,96.9 104.2,96.9 119.2,111.9 	"/>
	<polyline class="st0" points="-6.8,66.9 12.2,78.9 31.2,90.9 58.7,81.9 86.2,72.9 84.7,71.4 83.2,69.9 	"/>
	<polyline class="st0" points="-10.8,53.9 17.7,80.9 46.2,107.9 56.2,123.4 66.2,138.9 	"/>
	<polyline class="st0" points="-7.8,45.9 13.2,69.9 34.2,93.9 44.2,98.4 54.2,102.9 63.2,126.9 75.2,136.9 	"/>
	<polyline class="st0" points="-6.8,53.9 14.7,73.4 36.2,92.9 49.2,97.4 62.2,101.9 67.2,113.9 79.2,117.9 	"/>
	<path class="st0" d="M-13.8,95.9"/>
	<polyline class="st0" points="-5.8,26.9 5.7,43.9 17.2,60.9 38.7,65.9 60.2,70.9 68.7,77.4 77.2,83.9 	"/>
	<polyline class="st0" points="-20.8,57.9 27.2,69.9 36.2,60.9 63.2,52.9 74.2,33.9 	"/>
	<polyline class="st0" points="-12.8,71.9 23.2,98.9 19.2,123.9 44.2,119.9 42.2,145.9 	"/>
</g>
<g id="th2">
	<polyline class="st0" points="-16.8,179.9 1.7,189.9 20.2,199.9 31.2,199.4 47.2,194.9 64.2,206.9 86.2,214.9 90.2,227.4 
		94.2,239.9 	"/>
	<polyline class="st0" points="-23.8,165.9 8.7,186.9 41.2,207.9 50.2,224.9 69.2,225.9 	"/>
	<polyline class="st0" points="-33.8,150.9 19.2,184.9 57.2,177.9 67.2,191.9 82.2,183.9 105.2,166.9 114.2,172.9 	"/>
</g>
<g id="th3">
	<polyline class="st0" points="345.2,49.9 329.9,52.8 306.5,57.2 284.9,61.3 255.2,66.9 236.8,77.7 219.2,87.9 219.2,99.9 
		207.2,116.9 213.2,140.9 199.2,156.9 199.2,179.9 	"/>
	<polyline class="st0" points="353.2,49.9 321.1,50.3 302.3,50.5 282.2,43.9 263.2,50.9 	"/>
	<polyline class="st0" points="339.2,42.9 319.6,65.8 309.7,77.4 300.2,94.9 285.2,105.9 278.2,122.9 286.4,142.5 286.8,154.4 
		287.2,168.9 278.8,170.3 268.2,171.9 	"/>
	<polyline class="st0" points="202.2,67.9 215.2,73.9 235.2,67.9 251.1,70.8 279.5,56.4 306.2,29.9 325.3,33.1 347.2,21.9 	"/>
	<polyline class="st0" points="306.2,71.9 286.2,96.9 289.2,113.9 264.2,135.9 250.2,162.9 234.2,160.9 	"/>
	<polyline class="st0" points="347.2,60.9 291.2,71.9 285.2,81.9 246.2,88.9 225.2,49.9 206.2,52.9 	"/>
	<polyline class="st0" points="346.2,34.9 277.2,93.9 270.2,107.9 239.2,102.9 236.2,128.9 229.2,147.9 	"/>
</g>
<g>
	<g>
		<path class="st1" d="M455.5,134.9c1.9,0,1.9-3,0-3C453.5,131.9,453.5,134.9,455.5,134.9L455.5,134.9z"/>
	</g>
</g>
</svg>
