<?xml version="1.0" encoding="utf-8"?>
<!-- Generator: Adobe Illustrator 27.7.0, SVG Export Plug-In . SVG Version: 6.00 Build 0)  -->
<svg version="1.1" id="Capa_1" xmlns="http://www.w3.org/2000/svg" xmlns:xlink="http://www.w3.org/1999/xlink" x="0px" y="0px"
	 viewBox="0 0 300 250" style="enable-background:new 0 0 300 250;" xml:space="preserve">
<style type="text/css">
	.st0{fill:none;stroke:#FFFFFF;stroke-miterlimit:10;}
</style>
<image style="overflow:visible;" width="600" height="500" xlink:href="img1.jpg"  transform="matrix(0.5 0 0 0.5 428.0625 3.9375)">
</image>
<polyline class="st0" points="205.9,122 176.4,129.1 164,122.6 143.2,132.4 133.4,127.9 "/>
<polyline class="st0" points="32.1,54 42.8,69.2 44.2,59.3 57.7,76.8 64.5,70.3 76.3,85.8 90.6,91.1 96.2,108 94.6,117.2 
	104.7,123.2 "/>
<polyline class="st0" points="105,79.6 110.3,96.7 105.8,121.2 "/>
<polyline class="st0" points="53.8,100.1 69.8,117.8 79.4,122.6 79.9,135 87.5,140.9 "/>
<polyline class="st0" points="37.2,138.3 45.6,144.5 55.8,144.8 61.4,154.7 74.6,153.8 "/>
<polyline class="st0" points="14.4,158.6 33,159.2 46.5,154.9 58,163.4 72.3,156.9 "/>
<polyline class="st0" points="88.1,175.8 109.8,181.4 124.1,171.5 143.2,189.8 153.9,193.5 163.8,211.8 "/>
<path class="st0" d="M108.6,154.9c0,0,24.2-12.1,25-11.2s15.8,1.1,15.8,1.1"/>
<polyline class="st0" points="41.7,78.2 65,79.3 69.2,87.4 83.3,93.3 99.9,125.4 "/>
<polyline class="st0" points="66.4,92.5 81.6,100.4 97.1,126.2 "/>
<polyline class="st0" points="104.4,127.9 91.5,135.5 92.3,169.6 87.2,179.7 92.3,195.4 88.4,217.1 "/>
<polyline class="st0" points="50.1,212.6 67.3,201.1 70.7,191.2 85.6,180 96.5,182.8 115.9,183.6 132.5,195.2 "/>
<polyline class="st0" points="195,209.8 164.9,195.7 160.1,186.4 137,180.2 105,175.2 115.1,163.9 119.3,143.1 "/>
</svg>
