<?xml version="1.0" encoding="utf-8"?>
<!-- Generator: Adobe Illustrator 29.8.1, SVG Export Plug-In . SVG Version: 9.03 Build 0)  -->
<svg version="1.0" id="Capa_1" xmlns="http://www.w3.org/2000/svg" xmlns:xlink="http://www.w3.org/1999/xlink" x="0px" y="0px"
	 viewBox="0 0 500 500" style="enable-background:new 0 0 500 500;" xml:space="preserve">
<style type="text/css">
	.st0{fill:#FFFFFF;}
</style>
<g>
	<path class="st0" d="M201.85,413.03L201.85,413.03c-15.2,0-27.52-12.32-27.52-27.52V114.48c0-15.2,12.32-27.52,27.52-27.52h0
		c15.2,0,27.52,12.32,27.52,27.52v271.03C229.36,400.71,217.04,413.03,201.85,413.03z"/>
	<path class="st0" d="M298.15,413.03L298.15,413.03c-15.2,0-27.52-12.32-27.52-27.52V114.48c0-15.2,12.32-27.52,27.52-27.52h0
		c15.2,0,27.52,12.32,27.52,27.52v271.03C325.67,400.71,313.35,413.03,298.15,413.03z"/>
</g>
</svg>
