<?xml version="1.0" encoding="UTF-8"?>
<svg xmlns="http://www.w3.org/2000/svg" version="1.1" xmlns:xlink="http://www.w3.org/1999/xlink" viewBox="0 0 104.2 76.9">
  <!-- Generator: Adobe Illustrator 29.7.1, SVG Export Plug-In . SVG Version: 2.1.1 Build 8)  -->
  <defs>
    <style>
      .st0 {
        fill: url(#linear-gradient2);
      }

      .st1 {
        fill: url(#radial-gradient);
        mix-blend-mode: screen;
        opacity: .39;
      }

      .st2 {
        fill: #ffffc7;
      }

      .st3 {
        fill: url(#linear-gradient10);
      }

      .st4 {
        fill: #3c3952;
      }

      .st5 {
        fill: #211e3a;
      }

      .st6 {
        fill: url(#linear-gradient1);
      }

      .st7 {
        fill: #261f46;
        opacity: .74;
      }

      .st8 {
        fill: url(#linear-gradient9);
      }

      .st9 {
        fill: url(#linear-gradient18);
      }

      .st10 {
        fill: url(#linear-gradient8);
      }

      .st11 {
        fill: url(#linear-gradient11);
      }

      .st12 {
        fill: #191d32;
      }

      .st13 {
        fill: url(#linear-gradient16);
      }

      .st14 {
        isolation: isolate;
      }

      .st15 {
        fill: url(#linear-gradient19);
      }

      .st16 {
        fill: url(#linear-gradient12);
      }

      .st17 {
        fill: url(#linear-gradient7);
      }

      .st18 {
        fill: url(#linear-gradient20);
      }

      .st19 {
        fill: url(#linear-gradient4);
      }

      .st20 {
        fill: #f23851;
      }

      .st21 {
        fill: url(#linear-gradient14);
      }

      .st22 {
        fill: url(#linear-gradient5);
      }

      .st23 {
        fill: url(#linear-gradient3);
      }

      .st24 {
        fill: url(#linear-gradient15);
      }

      .st25 {
        fill: #debf81;
      }

      .st26 {
        fill: url(#linear-gradient17);
      }

      .st27 {
        fill: url(#linear-gradient6);
      }

      .st28 {
        fill: url(#linear-gradient13);
      }

      .st29 {
        fill: url(#linear-gradient);
      }

      .st30 {
        fill: #95dee9;
      }
    </style>
    <linearGradient id="linear-gradient" x1="14.75" y1="23.47" x2="16.41" y2="17.64" gradientUnits="userSpaceOnUse">
      <stop offset="0" stop-color="#191d32"/>
      <stop offset=".19" stop-color="#1e2337"/>
      <stop offset=".46" stop-color="#2f3448"/>
      <stop offset=".76" stop-color="#4b5062"/>
      <stop offset=".94" stop-color="#606677"/>
    </linearGradient>
    <linearGradient id="linear-gradient1" x1="11.7" y1="21.62" x2="11.33" y2="16.25" gradientUnits="userSpaceOnUse">
      <stop offset="0" stop-color="#001e00"/>
      <stop offset="1" stop-color="#748c64"/>
    </linearGradient>
    <linearGradient id="linear-gradient2" x1="391.59" y1="23.47" x2="393.26" y2="17.64" gradientTransform="translate(485.01) rotate(-180) scale(1 -1)" xlink:href="#linear-gradient"/>
    <linearGradient id="linear-gradient3" x1="388.55" x2="388.17" gradientTransform="translate(485.01) rotate(-180) scale(1 -1)" xlink:href="#linear-gradient1"/>
    <linearGradient id="linear-gradient4" x1="54" y1="55.62" x2="54" y2="69.04" gradientUnits="userSpaceOnUse">
      <stop offset="0" stop-color="#191d32"/>
      <stop offset=".5" stop-color="#606677"/>
    </linearGradient>
    <linearGradient id="linear-gradient5" x1="28.76" y1="57.04" x2="28.76" y2="42.42" xlink:href="#linear-gradient4"/>
    <linearGradient id="linear-gradient6" x1="79.55" y1="57.04" x2="79.55" y2="42.42" xlink:href="#linear-gradient4"/>
    <linearGradient id="linear-gradient7" x1="12.04" y1="17.5" x2="96.33" y2="17.5" gradientUnits="userSpaceOnUse">
      <stop offset="0" stop-color="#415931"/>
      <stop offset=".53" stop-color="#96aa87"/>
      <stop offset="1" stop-color="#415931"/>
    </linearGradient>
    <linearGradient id="linear-gradient8" x1="54.22" y1="16.89" x2="56.11" y2=".64" xlink:href="#linear-gradient4"/>
    <linearGradient id="linear-gradient9" x1="21.39" y1="33.7" x2="21.39" y2="18.18" gradientUnits="userSpaceOnUse">
      <stop offset="0" stop-color="#748c64"/>
      <stop offset="1" stop-color="#001e00"/>
    </linearGradient>
    <linearGradient id="linear-gradient10" x1="86.68" y1="33.7" x2="86.68" y2="18.18" xlink:href="#linear-gradient9"/>
    <linearGradient id="linear-gradient11" x1="54" y1="37.78" x2="54" y2="47.05" xlink:href="#linear-gradient"/>
    <linearGradient id="linear-gradient12" x1="54.04" y1="38.84" x2="54.04" y2="49.79" xlink:href="#linear-gradient9"/>
    <linearGradient id="linear-gradient13" x1="54.04" y1="31.83" x2="54.04" y2="35.84" xlink:href="#linear-gradient"/>
    <linearGradient id="linear-gradient14" x1="95.78" y1="26.7" x2="95.78" y2="26.97" xlink:href="#linear-gradient"/>
    <linearGradient id="linear-gradient15" x1="97.76" y1="31" x2="100.64" y2="41.45" xlink:href="#linear-gradient9"/>
    <linearGradient id="linear-gradient16" x1="6.55" y1="30.66" x2="10.3" y2="35.72" xlink:href="#linear-gradient9"/>
    <linearGradient id="linear-gradient17" x1="25.84" y1="47.02" x2="30.22" y2="55.47" gradientUnits="userSpaceOnUse">
      <stop offset="0" stop-color="#5e738b"/>
      <stop offset="1" stop-color="#b0bac6"/>
    </linearGradient>
    <linearGradient id="linear-gradient18" x1="80.94" y1="48.9" x2="80.44" y2="53.59" xlink:href="#linear-gradient17"/>
    <linearGradient id="linear-gradient19" x1="54.06" y1="53.22" x2="54.06" y2="63" xlink:href="#linear-gradient9"/>
    <linearGradient id="linear-gradient20" x1="54.05" y1="60.76" x2="54.05" y2="63.16" xlink:href="#linear-gradient9"/>
    <radialGradient id="radial-gradient" cx="91.47" cy="44.7" fx="91.47" fy="44.7" r="14.49" gradientUnits="userSpaceOnUse">
      <stop offset="0" stop-color="#b0bac6"/>
      <stop offset="1" stop-color="#5e738b"/>
    </radialGradient>
  </defs>
  <g class="st14">
    <g id="Capa_1">
      <g>
        <path class="st7" d="M.4,68.56c-1.14,3.88,12.02,6.76,52.57,6.38,40.55-.38,48.44-1.5,49.75-3.19s-7.13-11.83-7.13-11.83l-66.27-.38S1.34,65.37.4,68.56Z"/>
        <g>
          <path class="st29" d="M15.7,20.14h0s0,0,0,0Z"/>
          <path class="st6" d="M15.7,20.14l.28-.04c.07-.11.69-4.29-.44-4.76s-5.51-.63-8.54,2.19c-.46.43-.69,3.94,1.81,4.41.82.15,1.63.28,4.44.22,2.55-.47,2.44-2.03,2.44-2.03Z"/>
          <path class="st12" d="M18.89,19.88l-3.19.26s-.54,1.43-3.1,1.9c.68.06,1.38.1,2.11.14,2.09.1,4.08.63,4.08.63l1.05-2.51-.94-.42Z"/>
        </g>
        <g>
          <path class="st0" d="M92.47,20.14h0s0,0,0,0Z"/>
          <path class="st23" d="M92.47,20.14l-.28-.04c-.07-.11-.69-4.29.44-4.76s5.51-.63,8.54,2.19c.46.43.69,3.94-1.81,4.41-.82.15-1.63.28-4.44.22-2.55-.47-2.44-2.03-2.44-2.03Z"/>
          <path class="st12" d="M89.28,19.88l3.19.26s.54,1.43,3.1,1.9c-.68.06-1.38.1-2.11.14-2.09.1-4.08.63-4.08.63l-1.05-2.51.94-.42Z"/>
        </g>
        <path class="st12" d="M4.53,44.35s-1.19,11.58,1.38,22.84c0,0,.38,1.88,2.63,1.88h8.64s1.25-.19,1.81-1.25,1.25-5.32,1.06-6.88-13.39-19.02-13.39-19.02c0,0-1.63.44-2.13,2.44Z"/>
        <path class="st12" d="M103.6,44.35s1.19,11.58-1.38,22.84c0,0-.38,1.88-2.63,1.88h-8.64s-1.25-.19-1.81-1.25-1.25-5.32-1.06-6.88,13.39-19.02,13.39-19.02c0,0,1.63.44,2.13,2.44Z"/>
        <polygon class="st19" points="7.78 43.78 5.15 50.67 5.78 59.8 21.11 61.18 67.42 61.74 93.39 61.31 102.84 59.46 101.52 48.1 97.27 45.41 73.8 47.66 48.46 49.35 27.87 46.29 7.78 43.78"/>
        <path class="st20" d="M102.8,34.58c-.07-.82-.41-1.58-1-2.16l-.02-.02c-1.45-1.8-4.69-4.43-5.76-5.29l-.59-.81c-1.33-2.79-4.55-6.5-4.55-6.5,0,0-1.75-2.98-3.71-6.2-.91-1.61-2.01-3.42-3.19-5.07-.47-.72-2.88-3.19-3.56-3.66-.97-.84-2.06-1.52-3.72-1.66,0,0,0-.01,0-.02-1.07-.13-2.9-.33-5.27-.54-3.4-.31-8.39-.66-14.22-.73-.13,0-.25,0-.38,0,0,0-.02,0-.03,0-.52,0-1.05,0-1.58,0,0,0-.02,0-.03,0-.02,0-.04,0-.06,0-.36,0-.72,0-1.08,0-.36,0-.72,0-1.08,0-.02,0-.04,0-.06,0,0,0-.02,0-.03,0-.53,0-1.06,0-1.58,0,0,0-.02,0-.03,0-.13,0-.26,0-.38,0-5.84.07-10.82.42-14.22.73-2.37.21-4.21.41-5.27.54,0,0,0,.01,0,.02-1.66.14-2.75.82-3.72,1.66-.69.47-3.09,2.94-3.56,3.66-1.18,1.65-2.28,3.46-3.19,5.07-1.97,3.22-3.71,6.2-3.71,6.2,0,0-3.22,3.72-4.55,6.5l-.59.81c-1.07.85-4.31,3.48-5.76,5.29l-.02.02c-.59.57-.93,1.34-1,2.16-.94,11.5-.78,15.18-.75,16.06.08,2.4.41,5.68.66,7.97.1,1.72.18,2.87.18,2.87l13.15.75,10.65.52,24.87-.07,24.87.07,10.65-.52,13.15-.75s.07-1.15.18-2.87c.25-2.29.58-5.57.66-7.97.03-.88.19-4.55-.75-16.06ZM33.63,50.1s17.08.44,22.34.31c5.26-.13,15.89-.31,15.89-.31,0,0,5.01-.19,4.51.75-.5.94-3.5,3-3.5,3h-37.92l-2.32-2.07c-2.38-1.88,1-1.69,1-1.69ZM14.16,59.24c-5.38-.38-7.26-1.81-7.26-1.81,0,0,.69-4.88,1-6.32.31-1.44.88-3.94,4.38-3.88,3.5.06,11.51,1.25,11.51,1.25,2.63.81,5.82,5.26,5.82,5.26,0,0-2,.19-4.51,1.13-2.76,1.03-5.57,4.76-10.95,4.38ZM70.61,60.93c-7.2.25-31.04-.06-38.99-.13-5.36-.04-8.52-.4-10.02-.62,0,0,0,0,0,0,3-1.13,5.63-4.26,10.83-4.51,0,0,33.41.1,42.62.19,5,.05,7.47,3.01,10.97,4.46-3.21.14-10.08.43-15.41.61ZM94.26,59.49c-5.38.38-8.19-3.35-10.95-4.38-2.5-.94-4.51-1.13-4.51-1.13,0,0,3.19-4.44,5.82-5.26,0,0,8.01-1.19,11.51-1.25s4.07,2.44,4.38,3.88c.31,1.44,1,6.32,1,6.32,0,0-1.88,1.44-7.26,1.81Z"/>
        <path class="st22" d="M32.44,55.67s9.77.03,20.2.07c.02-.4.04-.8.05-1.21,0-.23.02-.45.02-.68h-17.78l-2.32-2.07c-2.38-1.88,1-1.69,1-1.69,0,0,12.22.31,19.17.33.06-3.2.07-6.41.21-9.61l-45.54,1.08-2.9,3.95c-.11,2.98-.05,4.3-.04,4.77.08,2.4.41,5.68.66,7.97.04.66.07,1.23.1,1.69l16.8-.04c-.18-.02-.35-.05-.5-.07,0,0,0,0,0,0,3-1.13,5.63-4.26,10.83-4.51ZM14.16,59.24c-5.38-.38-7.26-1.81-7.26-1.81,0,0,.69-4.88,1-6.32.31-1.44.88-3.94,4.38-3.88,3.5.06,11.51,1.25,11.51,1.25,2.63.81,5.82,5.26,5.82,5.26,0,0-2,.19-4.51,1.13-2.76,1.03-5.57,4.76-10.95,4.38Z"/>
        <path class="st27" d="M103.32,41.71l-40.22-1.12-7.21.17c-.1,2.36-.11,4.72-.14,7.08-.01.86-.03,1.72-.05,2.58.1,0,.19,0,.28,0,5.26-.13,15.89-.31,15.89-.31,0,0,5.01-.19,4.51.75-.5.94-3.5,3-3.5,3h-17.28c-.02.63-.05,1.27-.07,1.9,7.93.03,15.77.07,19.54.1,4.75.04,7.22,2.72,10.44,4.23l12.59-.03s2.19-.26,4.76-.59c.02-.26.03-.55.05-.85.25-2.29.58-5.57.66-7.97.02-.66.12-2.92-.24-8.93ZM94.26,59.49c-5.38.38-8.19-3.35-10.95-4.38-2.5-.94-4.51-1.13-4.51-1.13,0,0,3.19-4.44,5.82-5.26,0,0,8.01-1.19,11.51-1.25s4.07,2.44,4.38,3.88c.31,1.44,1,6.32,1,6.32,0,0-1.88,1.44-7.26,1.81Z"/>
        <path class="st17" d="M96.18,27.24c-.05-.04-.1-.08-.15-.12l-.59-.81c-1.33-2.79-4.55-6.5-4.55-6.5,0,0-1.75-2.98-3.71-6.2-.91-1.61-2.01-3.42-3.19-5.07-.47-.72-2.88-3.19-3.56-3.66-.97-.84-2.06-1.52-3.72-1.66,0,0,0-.01,0-.02-1.07-.13-2.9-.33-5.27-.54-3.4-.31-8.39-.66-14.22-.73-.13,0-.25,0-.38,0,0,0-.02,0-.03,0-.52,0-1.05,0-1.58,0,0,0-.02,0-.03,0-.02,0-.04,0-.06,0-.36,0-.72,0-1.08,0-.36,0-.72,0-1.08,0-.02,0-.04,0-.06,0,0,0-.02,0-.03,0-.53,0-1.06,0-1.58,0,0,0-.02,0-.03,0-.13,0-.26,0-.38,0-5.84.07-10.82.42-14.22.73-2.37.21-4.21.41-5.27.54,0,0,0,.01,0,.02-1.66.14-2.75.82-3.72,1.66-.69.47-3.09,2.94-3.56,3.66-1.18,1.65-2.28,3.46-3.19,5.07-1.97,3.22-3.71,6.2-3.71,6.2,0,0-3.22,3.72-4.55,6.5l-.59.81-.02.77s.83,2.01,13.55,3.85c4.54.66,15.74,1.35,28.04,1.35s23.15-.69,28.88-1.47c11.89-1.62,13.83-3.85,13.83-3.85l-.15-.52ZM81.1,18.82c-1.81-.09-26.83-.28-27.3-.28-12.81-.05-25.15.33-27.02.42-1.87.09-6.96-.38-6.96-.38l.28-.61s1.64-3.75,3.18-6.52c1.54-2.77,4.77-6.43,4.77-6.43,0,0,8.01-1.64,25.8-1.64s25.99,1.5,25.99,1.5c0,0,3.23,3.66,4.77,6.43,1.54,2.77,3.18,6.52,3.18,6.52l.42.89s-5.24.19-7.11.09Z"/>
        <path class="st10" d="M87.79,17.83s-1.64-3.75-3.18-6.52c-1.54-2.77-4.77-6.43-4.77-6.43,0,0-8.2-1.5-25.99-1.5s-25.8,1.64-25.8,1.64c0,0-3.23,3.66-4.77,6.43-1.54,2.77-3.18,6.52-3.18,6.52l-.28.61s5.09.47,6.96.38,14.21-.47,27.02-.42c.47,0,25.48.19,27.3.28s7.11-.09,7.11-.09l-.42-.89Z"/>
        <path class="st5" d="M28.6,5.39s-2.53,1.88-4.74,6.24-3.05,6.57-3.05,6.57c0,0,15.25-.14,33.65-.14s32.85.28,32.85.28c0,0-4.32-9.95-7.51-13,0,0-8.73-1.5-25.39-1.5s-25.81,1.55-25.81,1.55Z"/>
        <path class="st4" d="M79.81,5.35s-8.73-1.5-25.39-1.5-25.81,1.55-25.81,1.55c0,0-2.53,1.88-4.74,6.24-2.21,4.36-3.05,6.57-3.05,6.57,0,0,5.11-.05,12.99-.09,2.48-3.24,8.99-9.27,23.79-10.63,10.84-.99,18.66-.85,23.62-.49-.48-.66-.95-1.22-1.4-1.65Z"/>
        <path class="st8" d="M25.83,31.77c-1.65-2.01-7.56-9.59-6-13.19l.28-.61s1.64-3.75,3.18-6.52c1.54-2.77,4.77-6.43,4.77-6.43,0,0,1.48-1.1,2.69-1.72-1.31.24-2.24.85-3.08,1.58-.69.47-3.09,2.94-3.56,3.66-1.18,1.65-2.28,3.46-3.19,5.07-1.97,3.22-3.71,6.2-3.71,6.2,0,0-3.22,3.72-4.55,6.5l-.59.81-.02.77s.83,2.01,13.55,3.85c.08.01.16.02.24.03Z"/>
        <path class="st3" d="M96.33,27.76l-.15-.52c-.05-.04-.1-.08-.15-.12l-.59-.81c-1.33-2.79-4.55-6.5-4.55-6.5,0,0-1.75-2.98-3.71-6.2-.91-1.61-2.01-3.42-3.19-5.07-.47-.72-2.88-3.19-3.56-3.66-.9-.78-1.91-1.43-3.38-1.63,1,.41,2.27,1,2.81,1.63,0,0,.32.36.81.95,2.31,2.75,8.24,10.16,8.36,13.43.13,3.64-4.03,9.22-6.66,12.38.05,0,.1-.01.15-.02,11.89-1.62,13.83-3.85,13.83-3.85Z"/>
        <path class="st2" d="M25.58,31.74c-12.72-1.84-13.55-3.85-13.55-3.85,0,0-2.5,2.07-2.82,3.5-.31,1.44-1.67,3.72-.44,7.7.81,2.63.13,2.13,3.13,3,3,.88,4.13,1.06,5.82.06s-.31-.69-3-1.56c-2.69-.88-3.69-1.13-4.19-2.32-.5-1.19-.25-1.88.69-1.38s6.76,2.38,9.26,1.94c2.5-.44,7.26-3.5,7.26-3.5,0,0,.06-1.06-.38-1.81-.44-.75-1.78-1.78-1.78-1.78Z"/>
        <path class="st2" d="M98.77,31.39c-.26-1.46-1.78-2.74-2.71-3.4-.84.61-3.95,2.31-13.56,3.62-.12.02-.24.03-.36.05-.52.56-1.25,1.39-1.52,1.86-.44.75-.38,1.81-.38,1.81,0,0,4.76,3.07,7.26,3.5,2.5.44,8.32-1.44,9.26-1.94s1.19.19.69,1.38c-.5,1.19-1.5,1.44-4.19,2.32-2.69.88-4.69.56-3,1.56,1.69,1,2.82.81,5.82-.06s2.32-.38,3.13-3c1.23-3.97-.18-6.25-.44-7.7Z"/>
        <g>
          <g>
            <path class="st5" d="M25.54,31.73s.03,0,.04,0c-.01,0-.03,0-.04,0h0Z"/>
            <g>
              <path class="st30" d="M5.06,37.46h0s0,.06,0,.09c0-.03,0-.06,0-.09Z"/>
              <path class="st30" d="M5.02,38.01s0-.09.01-.14c0,.05,0,.09-.01.14Z"/>
              <path class="st30" d="M4.96,38.75s0-.09,0-.14c0,.05,0,.09,0,.14Z"/>
              <path class="st30" d="M4.93,39.22c0-.05,0-.1.01-.15,0,.05,0,.1-.01.15Z"/>
            </g>
            <path class="st11" d="M80.24,35.34s-.06-1.06.38-1.81c.27-.47,1.01-1.3,1.52-1.86.12-.02.24-.03.36-.05-5.73.78-16.03,1.47-28.88,1.47s-23.5-.69-28.04-1.35c0,0,1.35,1.03,1.78,1.78.44.75.38,1.81.38,1.81,0,0-1.17.75-2.65,1.57,12.11.16,12.65,4.55,16.3,8.38.64.67,2.32,1.88,13.2,1.88s11.66-1.24,12.27-1.88c3.62-3.8,4.18-8.16,16.05-8.38-1.49-.81-2.66-1.57-2.66-1.57Z"/>
            <path class="st16" d="M103.16,39.32l-3.47-3.66s0-.02,0-.03c.04.98-.07,2.13-.49,3.46-.81,2.63-.13,2.13-3.13,3s-4.13,1.06-5.82.06c-1.69-1,.31-.69,3-1.56,2.69-.88,3.69-1.13,4.19-2.32.5-1.19.25-1.88-.69-1.38s-6.76,2.38-9.26,1.94c-1.26-.22-3.1-1.11-4.61-1.94,0,0,0,0,0,0-11.87.22-12.43,4.58-16.05,8.38-.61.64-1.38,1.88-12.27,1.88s-12.56-1.2-13.2-1.88c-3.65-3.83-4.19-8.22-16.3-8.38,0,0,0,0,0,0-1.51.83-3.35,1.72-4.61,1.94-2.5.44-8.32-1.44-9.26-1.94s-1.19.19-.69,1.38c.5,1.19,1.5,1.44,4.19,2.32,2.69.88,4.69.56,3,1.56s-2.82.81-5.82-.06c-3-.88-2.32-.38-3.13-3-.36-1.17-.5-2.19-.51-3.09l-3.36,3.44c-.53,7.73-.41,10.46-.39,11.2.08,2.4.41,5.68.66,7.97.17-9.89,2.4-11.88,3.84-12.63s7.51-.06,7.51-.06c0,0,7.57.38,10.58,2,3,1.63,6.32,6.45,6.32,6.45l1.5-.5-2.32-2.07c-2.38-1.88,1-1.69,1-1.69,0,0,17.08.44,22.34.31,5.26-.13,15.89-.31,15.89-.31,0,0,5.01-.19,4.51.75-.5.94-3.5,3-3.5,3l1.69.56s5.07-6.45,8.45-7.32c3.38-.88,13.89-2.32,16.15-1.06,3.99,2.22,3.75,12.57,3.75,12.57.25-2.29.58-5.57.66-7.97.03-.74.14-3.5-.4-11.32Z"/>
          </g>
          <path class="st5" d="M82.68,31.59c-.06,0-.12.02-.18.03.06,0,.12-.02.18-.02h0Z"/>
        </g>
        <path class="st28" d="M25.58,31.74s1.35,1.03,1.78,1.78c.29.49.36,1.11.37,1.49,2.55.46,10.72,1.7,25.47,1.7,12,0,21.77-.93,27.03-1.56,0-.34.05-1.07.38-1.63.27-.47,1.01-1.3,1.52-1.86.12-.02.24-.03.36-.05-5.73.78-16.03,1.47-28.88,1.47s-23.5-.69-28.04-1.35Z"/>
        <g>
          <polygon class="st21" points="95.54 26.44 96.03 27.12 95.54 26.44 95.54 26.44"/>
          <path class="st24" d="M93.18,29.33h0c1.67-.58,2.51-1.07,2.88-1.34.93.66,2.45,1.94,2.71,3.4.17.97.85,2.3.93,4.26l3.47,3.66c-.1-1.41-.21-2.98-.36-4.74-.07-.82-.41-1.58-1-2.16l-.02-.02c-1.45-1.8-4.69-4.43-5.76-5.29.05.04.1.08.15.12l.15.52s-.6.68-3.15,1.57Z"/>
        </g>
        <g>
          <path class="st20" d="M12.85,25.89s.02-.03.02-.04c0,.01-.02.03-.02.04Z"/>
          <polygon class="st20" points="13.12 25.41 13.12 25.41 13.12 25.41 13.12 25.41"/>
          <path class="st13" d="M9.22,31.39c.31-1.44,2.82-3.5,2.82-3.5l.02-.77c-1.07.85-4.31,3.48-5.76,5.29l-.02.02c-.59.57-.93,1.34-1,2.16-.15,1.8-.27,3.42-.37,4.86l3.36-3.44c-.02-2.15.72-3.59.94-4.61Z"/>
        </g>
        <g>
          <path class="st25" d="M10.79,32.46s0-.25.94-.81c.25-.15.98-.12,1.46-.17-1.49-.58-2.22-1.08-2.22-1.08l-.19,2.07Z"/>
          <path class="st25" d="M25.68,33.52l-2.13-.06-.13,2.69h-3.25c-1.63-.13-1.81.25-2.19-1.31-.46-1.91.56-2,.56-2-.78-.11-1.5-.25-2.16-.4l.04.4-.19,2.13s-3.5-.06-4.44-.13c-.94-.06-1.13-1.44-1.13-1.44l-.19.94c-.13,1.13,1.06,1.5,1.06,1.5,0,0,4.57,1.19,6.57,1.63,2,.44,2.38.31,3.5.06,1.13-.25,2.5-1.38,2.5-1.38l.44.31s.38.06,1.25-1c.88-1.06-.13-1.94-.13-1.94Z"/>
        </g>
        <g>
          <path class="st25" d="M97.56,32.65s0-.25-.94-.81c-.25-.15-.98-.12-1.46-.17,1.49-.58,2.22-1.08,2.22-1.08l.19,2.07Z"/>
          <path class="st25" d="M82.66,33.71l2.13-.06.13,2.69h3.25c1.63-.13,1.81.25,2.19-1.31.46-1.91-.56-2-.56-2,.78-.11,1.5-.25,2.16-.4l-.04.4.19,2.13s3.5-.06,4.44-.13c.94-.06,1.13-1.44,1.13-1.44l.19.94c.13,1.13-1.06,1.5-1.06,1.5,0,0-4.57,1.19-6.57,1.63-2,.44-2.38.31-3.5.06-1.13-.25-2.5-1.38-2.5-1.38l-.44.31s-.38.06-1.25-1c-.88-1.06.13-1.94.13-1.94Z"/>
        </g>
        <g>
          <path class="st20" d="M103.09,38.28c.01.15.02.31.03.46-.01-.15-.02-.3-.03-.46Z"/>
          <path class="st20" d="M102.96,36.54c.01.15.02.31.04.46-.01-.15-.02-.3-.04-.46Z"/>
          <path class="st20" d="M103,37.09c.01.19.03.38.04.56-.01-.18-.03-.37-.04-.56Z"/>
          <path class="st20" d="M103.05,37.68c.01.18.03.35.04.52-.01-.17-.03-.35-.04-.52Z"/>
          <path class="st20" d="M102.8,34.58c.02.2.03.4.05.59-.02-.2-.03-.39-.05-.59Z"/>
          <path class="st20" d="M99.67,35.33s0-.03,0-.05c0,.02,0,.03,0,.05Z"/>
          <path class="st20" d="M102.8,34.58c0-.09-.02-.18-.03-.27.01.09.03.18.03.27Z"/>
          <path class="st20" d="M103.13,38.82c.01.16.02.32.03.48-.01-.16-.02-.32-.03-.48Z"/>
          <path class="st20" d="M102.64,33.77c.02.06.04.11.05.17-.02-.06-.03-.11-.05-.17Z"/>
          <path class="st20" d="M102.91,35.97c.01.13.02.27.03.4-.01-.13-.02-.26-.03-.4Z"/>
          <path class="st20" d="M99.64,34.96s0,0,0-.01c0,0,0,0,0,.01Z"/>
          <path class="st20" d="M102.87,35.38c.01.13.02.26.03.39-.01-.13-.02-.26-.03-.39Z"/>
          <path class="st20" d="M102.72,34.04c.01.06.03.12.04.17-.01-.06-.02-.12-.04-.17Z"/>
          <polygon class="st20" points="102.61 33.67 102.61 33.67 102.61 33.67 102.61 33.67"/>
        </g>
        <path class="st26" d="M29.81,54.17l2.69.31-3.5-3.63s-1.13-1.88-5.19-2.38c2.63.81,5.82,5.26,5.82,5.26,0,0-.12.01-.34.04l.53.4Z"/>
        <path class="st9" d="M84.63,48.73s.31-.05.84-.12l-.03-.13s-2.44-.06-4.32.81c-1.88.88-5.26,5.07-5.26,5.07l2.94-.38s3.19-4.44,5.82-5.26Z"/>
        <path class="st15" d="M101.52,57.68s-1.88,1.44-7.26,1.81c-5.38.38-8.19-3.35-10.95-4.38-1.52-.57-2.86-.86-3.67-1.01l-.83-.12-2.92.35c-.2.12-1.18.14-1.34.09,0,0,0,0,0,0l-1.69-.56h-37.92l-1.16.39c-.22.16-1.28.24-1.28.24l-2.69-.31-.53-.4c.22-.03.34-.04.34-.04,0,0-2,.19-4.51,1.13-2.76,1.03-5.57,4.76-10.95,4.38-4.49-.31-6.54-1.37-7.1-1.71l-.54.27-.56,1.06c1.5.75,8.2,1.81,10.64,2,2.44.19,2,.44,5.01-.69,3-1.13,5.63-4.26,10.83-4.51,0,0,33.41.1,42.62.19,6.95.06,9.01,5.76,15.71,5.19,5.87-.49,11.39-2.25,11.39-2.25l-.63-1.13Z"/>
        <path class="st18" d="M101.77,59.05l-.23-.07c-1.58.46-6.07,1.67-10.79,2.07-1.87.16-3.38-.17-4.74-.74-3.21.14-10.08.43-15.41.61-7.2.25-31.04-.06-38.99-.13-5.36-.04-8.52-.4-10.02-.62-3,1.12-2.56.87-5,.69-2.44-.19-9.14-1.25-10.64-2l.03-.05c-.31-.04-.57-.09-.8-.13.1,1.68.17,2.8.17,2.8l13.15.75,10.65.52,24.87-.07,24.87.07,10.65-.52,13.15-.75s.07-1.15.18-2.87c-.88.43-1.12.44-1.12.44Z"/>
        <path class="st1" d="M90.26,43.6c-4.82.69-8.07,1.31-10.26,2.88s-3.63,4.38-3.63,4.38c0,0-.57-.12,0,.19,1.73-1.79,4.86-3.48,6.63-3.94,3.38-.88,13.89-2.32,16.15-1.06,3.99,2.22,3.75,12.57,3.75,12.57.04-.35.08-.72.12-1.11-.29-7.91-2.13-11.3-3.24-13.21-1.13-1.94-4.69-1.38-9.51-.69Z"/>
      </g>
    </g>
  </g>
</svg>