<?xml version="1.0" encoding="UTF-8"?>
<svg xmlns="http://www.w3.org/2000/svg" version="1.1" xmlns:xlink="http://www.w3.org/1999/xlink" viewBox="0 0 257.2 141.8">
  <!-- Generator: Adobe Illustrator 29.7.1, SVG Export Plug-In . SVG Version: 2.1.1 Build 8)  -->
  <defs>
    <style>
      .st0 {
        fill: url(#linear-gradient2);
      }

      .st1 {
        fill: url(#radial-gradient20);
      }

      .st2 {
        fill: url(#radial-gradient30);
      }

      .st3 {
        fill: url(#radial-gradient28);
      }

      .st4 {
        fill: url(#linear-gradient10);
      }

      .st5 {
        fill: #b4b8c0;
      }

      .st6, .st7, .st8, .st9, .st10, .st11 {
        mix-blend-mode: multiply;
      }

      .st6, .st12, .st10, .st11 {
        fill: #474162;
      }

      .st7 {
        fill: url(#linear-gradient21);
      }

      .st13 {
        fill: url(#radial-gradient10);
      }

      .st14 {
        fill: #fff;
      }

      .st15 {
        fill: url(#linear-gradient1);
      }

      .st16 {
        fill: url(#radial-gradient24);
      }

      .st17 {
        opacity: .74;
      }

      .st17, .st18 {
        fill: #261f46;
      }

      .st19 {
        fill: url(#linear-gradient9);
      }

      .st20 {
        fill: url(#linear-gradient18);
      }

      .st21 {
        fill: #312a4f;
      }

      .st22 {
        fill: url(#radial-gradient11);
      }

      .st23 {
        fill: url(#linear-gradient8);
      }

      .st24 {
        fill: url(#linear-gradient11);
      }

      .st25 {
        fill: none;
      }

      .st26 {
        fill: url(#radial-gradient34);
      }

      .st27 {
        fill: url(#radial-gradient);
      }

      .st28 {
        fill: url(#radial-gradient21);
      }

      .st29 {
        fill: url(#linear-gradient16);
      }

      .st30 {
        fill: url(#radial-gradient19);
      }

      .st31 {
        fill: url(#radial-gradient22);
      }

      .st32 {
        fill: url(#radial-gradient5);
      }

      .st33 {
        fill: #423c5e;
      }

      .st34 {
        fill: url(#radial-gradient1);
      }

      .st35 {
        fill: url(#linear-gradient22);
      }

      .st36 {
        isolation: isolate;
      }

      .st37 {
        fill: url(#radial-gradient33);
      }

      .st8 {
        fill: url(#radial-gradient31);
      }

      .st38 {
        fill: url(#radial-gradient35);
      }

      .st39 {
        fill: url(#linear-gradient19);
      }

      .st40 {
        fill: url(#linear-gradient12);
      }

      .st41 {
        fill: url(#radial-gradient26);
      }

      .st42 {
        fill: url(#radial-gradient7);
      }

      .st43 {
        fill: url(#radial-gradient18);
      }

      .st44 {
        fill: url(#radial-gradient14);
      }

      .st45 {
        fill: url(#linear-gradient7);
      }

      .st46 {
        fill: url(#radial-gradient13);
      }

      .st47 {
        fill: #ffea86;
      }

      .st48 {
        fill: url(#linear-gradient20);
      }

      .st49 {
        fill: url(#linear-gradient4);
      }

      .st50 {
        fill: #eec81b;
      }

      .st51 {
        fill: #574f78;
      }

      .st52 {
        fill: url(#radial-gradient32);
      }

      .st53 {
        fill: url(#radial-gradient27);
      }

      .st54 {
        fill: url(#linear-gradient14);
      }

      .st55 {
        fill: url(#linear-gradient5);
      }

      .st56 {
        fill: url(#radial-gradient8);
      }

      .st57 {
        fill: url(#linear-gradient3);
      }

      .st58 {
        fill: url(#radial-gradient12);
      }

      .st59 {
        fill: url(#radial-gradient25);
      }

      .st60 {
        fill: url(#radial-gradient23);
      }

      .st61 {
        fill: url(#linear-gradient15);
      }

      .st62 {
        fill: url(#radial-gradient17);
      }

      .st63 {
        fill: url(#radial-gradient6);
      }

      .st64 {
        fill: #debf81;
      }

      .st65 {
        fill: url(#linear-gradient17);
      }

      .st10 {
        opacity: .48;
      }

      .st66 {
        fill: url(#radial-gradient2);
      }

      .st67 {
        fill: url(#radial-gradient15);
      }

      .st68 {
        fill: url(#linear-gradient6);
      }

      .st69 {
        fill: url(#radial-gradient4);
      }

      .st70 {
        fill: url(#radial-gradient3);
      }

      .st71 {
        fill: url(#radial-gradient29);
      }

      .st72 {
        fill: #27495a;
      }

      .st73 {
        fill: url(#linear-gradient13);
      }

      .st74 {
        fill: url(#radial-gradient9);
      }

      .st75 {
        fill: url(#linear-gradient);
      }

      .st76 {
        fill: #f3fcf5;
      }

      .st77 {
        fill: url(#radial-gradient36);
      }

      .st78 {
        opacity: .5;
      }

      .st79 {
        fill: #ffd;
      }

      .st80 {
        fill: url(#radial-gradient16);
      }

      .st11 {
        opacity: .66;
      }
    </style>
    <radialGradient id="radial-gradient" cx="213.01" cy="5.91" fx="213.01" fy="5.91" r="42.03" gradientUnits="userSpaceOnUse">
      <stop offset="0" stop-color="#f3fcf5"/>
      <stop offset="1" stop-color="#d8e2ec"/>
    </radialGradient>
    <radialGradient id="radial-gradient1" cx="251.09" cy="44.9" fx="251.09" fy="44.9" r="19.51" xlink:href="#radial-gradient"/>
    <radialGradient id="radial-gradient2" cx="172.15" cy="43.61" fx="172.15" fy="43.61" r="46.53" gradientTransform="translate(-2.06 49.06) rotate(-10.8) scale(1 .63)" xlink:href="#radial-gradient"/>
    <radialGradient id="radial-gradient3" cx="213.01" cy="5.91" fx="213.01" fy="5.91" r="42.03" xlink:href="#radial-gradient"/>
    <radialGradient id="radial-gradient4" cx="213.01" cy="5.91" fx="213.01" fy="5.91" r="42.03" xlink:href="#radial-gradient"/>
    <radialGradient id="radial-gradient5" cx="213.01" cy="5.91" fx="213.01" fy="5.91" r="42.03" xlink:href="#radial-gradient"/>
    <radialGradient id="radial-gradient6" cx="213.01" cy="5.91" fx="213.01" fy="5.91" r="42.03" xlink:href="#radial-gradient"/>
    <radialGradient id="radial-gradient7" cx="213.01" cy="5.91" fx="213.01" fy="5.91" r="42.03" xlink:href="#radial-gradient"/>
    <radialGradient id="radial-gradient8" cx="213.01" cy="5.91" fx="213.01" fy="5.91" r="42.03" xlink:href="#radial-gradient"/>
    <radialGradient id="radial-gradient9" cx="237.85" cy="33.21" fx="237.85" fy="33.21" r="0" xlink:href="#radial-gradient"/>
    <radialGradient id="radial-gradient10" cx="237.58" cy="33.31" fx="237.58" fy="33.31" r="0" xlink:href="#radial-gradient"/>
    <radialGradient id="radial-gradient11" cx="238.09" cy="33.11" fx="238.09" fy="33.11" r="0" xlink:href="#radial-gradient"/>
    <radialGradient id="radial-gradient12" cx="238.29" cy="33.02" fx="238.29" fy="33.02" r="0" xlink:href="#radial-gradient"/>
    <radialGradient id="radial-gradient13" cx="238.62" cy="32.8" fx="238.62" fy="32.8" r="0" xlink:href="#radial-gradient"/>
    <radialGradient id="radial-gradient14" cx="238.45" cy="32.94" fx="238.45" fy="32.94" r="0" xlink:href="#radial-gradient"/>
    <radialGradient id="radial-gradient15" cx="213.01" cy="5.91" fx="213.01" fy="5.91" r="42.03" xlink:href="#radial-gradient"/>
    <radialGradient id="radial-gradient16" cx="213.01" cy="5.91" fx="213.01" fy="5.91" r="42.03" xlink:href="#radial-gradient"/>
    <radialGradient id="radial-gradient17" cx="213.01" cy="5.91" fx="213.01" fy="5.91" r="42.03" xlink:href="#radial-gradient"/>
    <radialGradient id="radial-gradient18" cx="213.01" cy="5.91" fx="213.01" fy="5.91" r="42.03" xlink:href="#radial-gradient"/>
    <radialGradient id="radial-gradient19" cx="213.01" cy="5.91" fx="213.01" fy="5.91" r="42.03" xlink:href="#radial-gradient"/>
    <radialGradient id="radial-gradient20" cx="213.01" cy="5.91" fx="213.01" fy="5.91" r="42.03" xlink:href="#radial-gradient"/>
    <radialGradient id="radial-gradient21" cx="213.01" cy="5.91" fx="213.01" fy="5.91" r="42.03" xlink:href="#radial-gradient"/>
    <radialGradient id="radial-gradient22" cx="213.01" cy="5.91" fx="213.01" fy="5.91" r="42.03" xlink:href="#radial-gradient"/>
    <radialGradient id="radial-gradient23" cx="213.01" cy="5.91" fx="213.01" fy="5.91" r="42.03" xlink:href="#radial-gradient"/>
    <radialGradient id="radial-gradient24" cx="213.01" cy="5.91" fx="213.01" fy="5.91" r="42.03" xlink:href="#radial-gradient"/>
    <radialGradient id="radial-gradient25" cx="213.01" cy="5.91" fx="213.01" fy="5.91" r="42.03" xlink:href="#radial-gradient"/>
    <radialGradient id="radial-gradient26" cx="213.01" cy="5.91" fx="213.01" fy="5.91" r="42.03" xlink:href="#radial-gradient"/>
    <radialGradient id="radial-gradient27" cx="213.01" cy="5.91" fx="213.01" fy="5.91" r="42.03" xlink:href="#radial-gradient"/>
    <radialGradient id="radial-gradient28" cx="213.01" cy="5.91" fx="213.01" fy="5.91" r="42.03" xlink:href="#radial-gradient"/>
    <radialGradient id="radial-gradient29" cx="213.01" cy="5.91" fx="213.01" fy="5.91" r="42.03" xlink:href="#radial-gradient"/>
    <radialGradient id="radial-gradient30" cx="213.01" cy="5.91" fx="213.01" fy="5.91" r="42.03" xlink:href="#radial-gradient"/>
    <linearGradient id="linear-gradient" x1="86.26" y1="112.82" x2="86.13" y2="116.05" gradientUnits="userSpaceOnUse">
      <stop offset="0" stop-color="#f3fcf5"/>
      <stop offset="1" stop-color="#d8e2ec"/>
    </linearGradient>
    <linearGradient id="linear-gradient1" x1="93.56" y1="51.27" x2="94.34" y2="101.11" xlink:href="#linear-gradient"/>
    <radialGradient id="radial-gradient31" cx="60.14" cy="92.38" fx="60.14" fy="92.38" r="32.29" xlink:href="#radial-gradient"/>
    <radialGradient id="radial-gradient32" cx="110.63" cy="32.89" fx="110.63" fy="32.89" r="57.85" xlink:href="#radial-gradient"/>
    <linearGradient id="linear-gradient2" x1="125.11" y1="30" x2="131.88" y2="1.92" gradientUnits="userSpaceOnUse">
      <stop offset="0" stop-color="#191d32"/>
      <stop offset=".5" stop-color="#606677"/>
    </linearGradient>
    <linearGradient id="linear-gradient3" x1="68.5" y1="-8.1" x2="53.66" y2="-14.42" xlink:href="#linear-gradient"/>
    <linearGradient id="linear-gradient4" x1="69.11" y1="-9.52" x2="54.26" y2="-15.85" xlink:href="#linear-gradient"/>
    <linearGradient id="linear-gradient5" x1="68.88" y1="-8.99" x2="54.04" y2="-15.31" xlink:href="#linear-gradient"/>
    <linearGradient id="linear-gradient6" x1="68.64" y1="-8.42" x2="53.79" y2="-14.75" xlink:href="#linear-gradient"/>
    <linearGradient id="linear-gradient7" x1="69.58" y1="-10.61" x2="54.73" y2="-16.94" xlink:href="#linear-gradient"/>
    <linearGradient id="linear-gradient8" x1="69.46" y1="-10.35" x2="54.62" y2="-16.67" xlink:href="#linear-gradient"/>
    <linearGradient id="linear-gradient9" x1="69.27" y1="-9.91" x2="54.43" y2="-16.23" xlink:href="#linear-gradient"/>
    <linearGradient id="linear-gradient10" x1="173.58" y1="35.38" x2="173.56" y2="35.38" xlink:href="#linear-gradient"/>
    <linearGradient id="linear-gradient11" x1="68.38" y1="-7.81" x2="53.53" y2="-14.13" xlink:href="#linear-gradient"/>
    <linearGradient id="linear-gradient12" x1="178.36" y1="35.67" x2="178.35" y2="35.67" xlink:href="#linear-gradient"/>
    <linearGradient id="linear-gradient13" x1="178.69" y1="35.62" x2="178.69" y2="35.62" xlink:href="#linear-gradient"/>
    <linearGradient id="linear-gradient14" x1="178.41" y1="35.67" x2="178.39" y2="35.66" xlink:href="#linear-gradient"/>
    <linearGradient id="linear-gradient15" x1="178.83" y1="35.6" x2="178.82" y2="35.6" xlink:href="#linear-gradient"/>
    <linearGradient id="linear-gradient16" x1="68.28" y1="-7.57" x2="53.43" y2="-13.9" xlink:href="#linear-gradient"/>
    <linearGradient id="linear-gradient17" x1="68.17" y1="-7.31" x2="53.32" y2="-13.63" xlink:href="#linear-gradient"/>
    <linearGradient id="linear-gradient18" x1="216.33" y1="41.43" x2="210.91" y2="16.36" xlink:href="#linear-gradient2"/>
    <linearGradient id="linear-gradient19" x1="212.26" y1="53.98" x2="222.72" y2="78.18" xlink:href="#linear-gradient"/>
    <linearGradient id="linear-gradient20" x1="188.9" y1="42.63" x2="246.61" y2="45.34" xlink:href="#linear-gradient"/>
    <linearGradient id="linear-gradient21" x1="231.43" y1="82.74" x2="214.52" y2="105.98" gradientUnits="userSpaceOnUse">
      <stop offset=".52" stop-color="#f3fcf5"/>
      <stop offset="1" stop-color="#d8e2ec"/>
    </linearGradient>
    <radialGradient id="radial-gradient33" cx="242.17" cy="42.79" fx="242.17" fy="42.79" r="2.65" xlink:href="#radial-gradient"/>
    <radialGradient id="radial-gradient34" cx="221.08" cy="47.8" fx="221.08" fy="47.8" r="3.6" xlink:href="#radial-gradient"/>
    <radialGradient id="radial-gradient35" cx="242.17" cy="42.79" fx="242.17" fy="42.79" r="2.65" xlink:href="#radial-gradient"/>
    <radialGradient id="radial-gradient36" cx="221.08" cy="47.8" fx="221.08" fy="47.8" r="3.6" xlink:href="#radial-gradient"/>
    <linearGradient id="linear-gradient22" x1="67.68" y1="49.76" x2="67.81" y2="79.2" xlink:href="#linear-gradient"/>
  </defs>
  <g class="st36">
    <g id="Capa_1">
      <g>
        <path class="st17" d="M27.49,124.36s-23.63,2.32-25.17,4.65c-1.55,2.32-10.07,8.33,20.14,8.71,30.21.39,100.51,4.07,114.26,2.52,13.75-1.55,36.02-2.71,43.48-7.26,7.46-4.55,30.11-12.3,40.57-14.43,10.46-2.13,27.5-4.26,27.5-6.58s-2.71-8.13-46.67-6.78c-43.96,1.36-93.15,13.75-101.67,14.33s-33.89,1.94-50.35,2.71c-16.46.77-22.08,2.13-22.08,2.13Z"/>
        <g>
          <path class="st18" d="M71.85,34.06c.67.21.89,1.78.92,2.28s-.79,2.57-3.77,2.84c-2.98.27-11.96-.11-12.51-.35s-2.52-3.7-1.81-5.49c.71-1.79,4.95-2.45,7.65-2.66,2.7-.21,4.99.34,5.45,1.14s.44,3.83.44,3.83l1.47-.18s1.42-1.65,2.17-1.42Z"/>
          <path class="st12" d="M59.38,33.93c3.31-.53,6.11-1.42,8.25-2.28-.67-.7-2.82-1.16-5.31-.96-2.7.21-6.93.88-7.65,2.66-.09.24-.14.5-.15.79,1.17.19,2.68.14,4.86-.21Z"/>
          <path class="st12" d="M189.51,57.42l-28.92,12.01-40.02,3.87-9.3-11.1-18.85-1.94-46.48-.39-20.4,5.42s-4.65.13-9.81,7.88c-5.16,7.75-9.3,16.53-9.3,16.53l-2.19,3.1,1.94,10.07,2.84,3.49s63.26,3.49,63.78,3.61,78.37,2.45,78.37,2.45l44.02-9.04,50.48-13.94,10.99-11.57-2.34-18.64-64.81-1.81Z"/>
          <path class="st10" d="M28.39,64.65s66.88,1.29,69.46,2.71c2.58,1.42,6.97,1.94,7.23,5.16.26,3.23,3.1,6.46,3.49,6.58s17.95-1.42,17.95-1.42c0,0-4.52-15.75-5.16-15.88s-9.3-1.68-10.97-1.81c-1.68-.13-56.29-.13-56.29-.13l-25.69,4.78Z"/>
          <path class="st10" d="M28.39,64.65s-4.91,2.97-5.68,4.91-1.16,4.26.13,4.78c1.29.52,44.02,1.42,44.02,1.42l41.31,1.68-93.86-.39,1.55-8.13,11.23-5.68,1.29,1.42Z"/>
          <g class="st78">
            <path class="st6" d="M145.52,96.57s-7.75-3.2-8.62-3.39c-.87-.19-12.2-1.65-12.2-1.65l-20.33,4.65s-7.65,2.03,3.87.77c11.52-1.26,25.18-.39,25.18-.39l-1.36,1.16c-.9.77-1.24,2.47-1.03,4.01l-29.08.84v2.61l29.2-2.8c.13.54.34,1.04.62,1.45,1.16,1.65,2.23,2.23,6.68,2.61,4.45.39,9.78-.29,9.78-.29l.48-3.58-3.2-6ZM136.93,104.74c-2.09,0-3.78-1.69-3.78-3.78s1.69-3.78,3.78-3.78,3.78,1.69,3.78,3.78-1.69,3.78-3.78,3.78Z"/>
            <path class="st6" d="M136.71,97.75c-1.59,0-2.89,1.34-2.89,2.99s1.29,2.99,2.89,2.99,2.89-1.34,2.89-2.99-1.29-2.99-2.89-2.99ZM137.08,102.18c-.82,0-1.48-.71-1.48-1.58,0-.58.29-1.07.72-1.35-.12.23-.2.49-.2.78,0,.88.67,1.59,1.5,1.59.27,0,.51-.08.73-.21-.26.46-.73.77-1.27.77Z"/>
          </g>
          <path class="st11" d="M16.15,103.36c-2.59,1.08-6.85,1.18-9.55-.65-2.18-1.48-1.82-11.34-1.82-11.34l5.79-1.15,3.36,2.58s1.88,1.63,2.93,3.54c.11.57.11,1.22-.07,1.93l-4.36-.73s0-.05,0-.08c0-2.11-1.31-3.82-2.94-3.82s-2.94,1.71-2.94,3.82,1.31,3.82,2.94,3.82c1.41,0,2.59-1.29,2.87-3.02l5.1,2.34c.81,1.41-.46,2.33-1.32,2.76ZM11.88,97.37c0,1.52-.96,2.75-2.15,2.75s-2.15-1.23-2.15-2.75.96-2.75,2.15-2.75,2.15,1.23,2.15,2.75ZM10.45,98.43c-.38-.14-.7-.69-.74-1.38-.03-.38.04-.74.17-1.01-.41.09-.73.63-.73,1.29,0,.72.38,1.31.85,1.31.17,0,.33-.08.46-.21Z"/>
          <path class="st10" d="M19.23,89.83s20.79,1.29,37.96,1.68c17.17.39,44.41.13,44.41.13l-1.29,2.07s-21.82.65-43.38,0c-21.56-.65-30.6-1.55-30.6-1.55l-6.71-.52-.39-1.81Z"/>
          <path class="st18" d="M186.67,67.62c-1.45-1.36-3.29-1.26-3.29-1.26l-2.3.03c-.93.8-1.92,1.8-2.63,2.98-1.84,3-6.49,16.36-8.52,25.95-2.03,9.59-1.94,14.23-3.1,16.36-1.16,2.13-2.32,5.04-9.2,5.81-1.76.2-4.1.33-6.61.41.57,2.38,1.62,6.22,2.84,8.02,1.84,2.71,4.84,5.71,7.17,6,2.32.29,16.94,1.07,19.17,1.07s7.13-2.71,9.2-5.97c1.84-2.9,4.36-11.36,5.04-18.53.68-7.17,3.27-30.58-7.75-40.86Z"/>
          <path class="st18" d="M16.35,110.9s4.55,13.56,13.27,15.01l16.36.77s2.61,0,3.68-.29c1.07-.29,4.65-1.36,8.42-5.81,3.78-4.45,4.36-8.81,4.36-8.81l-40.96-2.42-5.13,1.55Z"/>
          <path class="st18" d="M257.11,84.52c-.34-9.39-1.94-19.07-5.37-19.85,0,0-.87-.24-2.13-.1-.03,0-.07,0-.11.01-3.26,5.93-7.42,27.54-7.64,29.71-.24,2.37-1.65,3.63-2.13,3.92s-3.34.39-4.16.48-7.26,1.65-7.26,1.65l.03.13s-.08.02-.12.03c.45,3.37,1.87,9.97,6.19,11.46,0,0,10.89.24,11.91.24s3.05,0,3.63-.15c.58-.15,3.68-1.02,4.99-6.73,1.31-5.71,2.52-11.43,2.18-20.82Z"/>
          <path class="st14" d="M256.19,64.91c-.29-1.36-.1-2.81-.19-5.23-.19-4.66-3.39-18.88-4.55-20.43-1.16-1.55-5.23-3.68-7.26-5.81-2.03-2.13-4.26-6.39-6-8.42-1.74-2.03-3.78-4.26-12.2-12.59-8.42-8.33-21.3-10.17-24.11-10.26-2.81-.1-3.68.19-3.68.19,0,0-6.49-1.36-27.31-1.16-32.05.3-52.77,3.87-52.77,3.87,0,0-1.65,0-4.65.19-6.3.41-12.97,2.9-18.98,5.71-6,2.81-26.43,18.2-28.56,19.95-2.13,1.74-7.55,5.23-11.91,6.39-4.36,1.16-18.3,4.65-23.82,6.68-5.52,2.03-9.3,6.68-11.62,9.88,0,0-2.03,1.16-3.2,2.52-1.16,1.36-2.71,4.45-2.71,4.45l-.39,7.17-1.84,1.74c-1.84,1.74-2.03,7.55-2.42,10.94-.39,3.39-3.87,11.04-3.87,11.04-.97,4.45,1.94,12.88,1.94,12.88l-.48,2.23c.39,3.29,5.13,6.87,5.13,6.87l6.68-.48c.19-.68.97-.58.97-.58,0,0,28.85.29,37.18.58,8.33.29,48.7,1.94,48.7,1.94,4.26-.1,5.91,1.45,5.91,1.45l18.4,1.07c9.09.65,16.71.69,22.51.51-.02-.1-.05-.2-.07-.3,2.51-.08,4.85-.21,6.61-.41,6.87-.77,8.04-3.68,9.2-5.81,1.16-2.13,1.06-6.78,3.1-16.36,2.03-9.59,6.68-22.95,8.52-25.95.48-.79,1.09-1.5,1.72-2.13,1.3-1.8,4.32-3.47,6.32-2.81,9.16,3.05,9.04,23.91,8.69,31.46-.02,5.38-.51,10.03-.75,12.6-.03.33-.07.67-.11,1.02h0s1.08-.63,1.08-.63c0,0,24.3-6.29,31.86-8.13.37-.09.74-.18,1.09-.26l-.03-.13s6.44-1.55,7.26-1.65,3.68-.19,4.16-.48,1.89-1.55,2.13-3.92c.24-2.37,5.19-27.98,8.52-30.94,1.74-1.55,3.1.39,3.1.39,0,0,2.16,1.9,3.18,14.2.58-2.42-.18-11.68-.47-13.04ZM20.9,103c-.65,1.81-2.32,3.49-4.91,3.36-2.58-.13-7.36-1.29-8.39-2.71-1.03-1.42-3.36-10.33-2.07-11.36,1.31-1.05,10.33,1.03,11.88,3.1s4.13,5.81,3.49,7.62ZM88.68,105.45c-3.74,1.55-47.84.64-52.03-.52-3.74-1.03-6.07-4.91-6.07-4.91l-4.26-7.88-5.29-2.07s-3.23-12.14-3.36-14.98c0,0,2.71-8.13,6.71-8.78,4-.65,4.78-1.03,4.78-1.03l62.61.77s16.01-.13,18.72-1.68c0,0-.52,2.84,10.07,8.91l-6.33,1.03s-6.46.52-8.91,6.58c-2.45,6.07-5.81,12.01-5.81,12.01,0,0-7.1,10.97-10.84,12.52ZM142,108.03c-5.42.13-25.95,1.68-29.31,1.55-3.36-.13-8.91-1.81-9.68-3.49-.77-1.68-.65-4.91,3.23-8.39,1.71-1.54,2.97-2.07,14.98-2.45,12.01-.39,20.14-.52,23.5,4.91,3.36,5.42,2.71,7.75-2.71,7.88Z"/>
          <path class="st27" d="M251.45,39.25c-1.16-1.55-5.23-3.68-7.26-5.81-2.03-2.13-4.26-6.39-6-8.42-1.74-2.03-3.78-4.26-12.2-12.59-8.42-8.33-21.3-10.17-24.11-10.26-2.81-.1-3.68.19-3.68.19-2.73.98-4.64,3.4-5.94,5.81-.01.02-.02.04-.03.07-1.38,3.05-6.65,20.72-7.04,21.69,2.42.63,4.12,2.01,5.31,3.47.38-1.49.94-3.03,1.21-3.83.48-1.45,5.52-18.88,6.1-20.14.58-1.26,1.64-4.2,6.87-4.45,5.91-.29,14.81,4.12,21.88,9.39,4.46,3.33,10.65,10.46,11.33,11.33.63.81,1.1,6.02.76,7.02.38.64,1.06,1.72,1.92,2.83,1.36,1.74,4.84,5.16,5.16,6.39.05.19.14.69.26,1.43,1.9-.7,3.93-1.74,5.86-3.28-.15-.39-.29-.67-.41-.83Z"/>
          <path class="st34" d="M256.19,64.91c-.29-1.36-.1-2.81-.19-5.23-.17-4.19-2.78-16.13-4.15-19.6-1.93,1.54-3.95,2.58-5.86,3.28.66,4.08,2.12,15.34,1.35,20.26-.9,5.81-6.08,24.74-11.75,29.69-1.55,1.36-10.39,2.9-16.91,4.65-5.64,1.51-18.83,5.63-22.27,6.71l-1.79,1.61s0-.01,0-.02c-.08.85-.15,1.6-.21,2.22-.03.33-.07.67-.11,1.02h0s1.08-.63,1.08-.63c0,0,24.3-6.29,31.86-8.13.37-.09.74-.18,1.09-.26l-.03-.13s6.44-1.55,7.26-1.65,3.68-.19,4.16-.48,1.89-1.55,2.13-3.92c.24-2.37,5.19-27.98,8.52-30.94,1.74-1.55,3.1.39,3.1.39,0,0,2.13,1.86,3.15,14.15.58-2.42-.15-11.64-.44-12.99Z"/>
          <path class="st66" d="M199.84,66.59c-.65-12.01-1.29-12.39-3.87-16.91-2.58-4.52-2.97-11.23-2.97-11.23,0,0-1.42-6.84-7.81-8.52-.39.97-1.03,2.45-2.71,4-1.07.99-2.45,1.42-3.31,1.61h.02s-22.53,5.56-33.44,9.3c-10.91,3.74-20.08,7.62-26.72,10.84-.67.33-1.37.62-2.09.89-2.07,1.11-5.13,3.43-6.43,7.83,0,0,13.81-6.2,18.46-8,4.65-1.81,14.33-5.68,20.53-5.94,6.2-.26,17.04,5.29,17.04,5.29,0,0,.13,1.16,5.81,3.36,5.68,2.19,7.36,2.97,7.36,2.97l2.12,3.57c1.45-1.03,3.29-1.66,4.66-1.21,9.16,3.05,9.04,23.91,8.69,31.46-.02,4.09-.3,7.75-.54,10.4l2.5-2.25s3.77-17.82,2.71-37.44Z"/>
          <g>
            <path class="st70" d="M194.66,105.9c0-.09.02-.19.03-.28,0,.1-.02.19-.03.28Z"/>
            <path class="st69" d="M194.72,105.22c0-.09.01-.17.02-.26,0,.09-.01.17-.02.26Z"/>
            <path class="st32" d="M194.78,104.5c0-.07.01-.15.02-.22,0,.07-.01.15-.02.22Z"/>
            <path class="st63" d="M194.6,1.9c-.16-.02-.32-.03-.49-.05.17.02.33.03.49.05Z"/>
            <path class="st42" d="M195.62,2c-.13-.01-.27-.03-.41-.04.14.01.28.03.41.04Z"/>
            <path class="st56" d="M194.04,1.85c-.18-.02-.36-.03-.55-.05.19.02.37.03.55.05Z"/>
            <g>
              <path class="st74" d="M237.85,33.21s0,0,0,0c0,0,0,0,0,0Z"/>
              <path class="st13" d="M237.59,33.31s0,0,0,0c0,0,0,0,0,0Z"/>
              <path class="st22" d="M238.09,33.11s0,0,0,0c0,0,0,0,0,0Z"/>
              <path class="st58" d="M238.29,33.02s0,0,0,0c0,0,0,0,0,0Z"/>
              <path class="st46" d="M238.62,32.8s0,0,0,0c0,0,0,0,0,0Z"/>
              <path class="st44" d="M238.45,32.94s0,0,0,0c0,0,0,0,0,0Z"/>
            </g>
            <path class="st67" d="M198.19,2.36s0,0,0,0c0,0,0,0,0,0Z"/>
            <path class="st80" d="M194.95,102.19s0-.05,0-.08c0,.03,0,.05,0,.08Z"/>
            <path class="st62" d="M194.89,102.98s0-.09,0-.14c0,.05,0,.09,0,.14Z"/>
            <path class="st43" d="M194.84,103.75c0-.06,0-.12.01-.18,0,.06,0,.12-.01.18Z"/>
            <path class="st30" d="M194.69,1.91c.15.01.3.03.44.04-.14-.01-.29-.03-.44-.04Z"/>
            <path class="st1" d="M197.78,2.29c-.05,0-.11-.02-.17-.03.06,0,.12.02.17.03Z"/>
            <path class="st28" d="M197.92,2.31s-.09-.01-.14-.02c.05,0,.1.02.14.02Z"/>
            <path class="st31" d="M198.04,2.33s-.06-.01-.1-.02c.04,0,.07.01.1.02Z"/>
            <path class="st60" d="M198.12,2.35s-.04,0-.07-.01c.03,0,.05,0,.07.01Z"/>
            <path class="st16" d="M196.07,2.05c-.12-.01-.26-.03-.39-.04.14.02.27.03.39.04Z"/>
            <path class="st59" d="M198.18,2.36s-.02,0-.04,0c.01,0,.03,0,.04,0Z"/>
            <path class="st41" d="M196.43,2.1c-.11-.01-.23-.03-.35-.04.12.01.24.03.35.04Z"/>
            <path class="st53" d="M197.59,2.26c-.06,0-.13-.02-.2-.03.07.01.14.02.2.03Z"/>
            <path class="st3" d="M196.77,2.14c-.1-.01-.2-.03-.31-.04.11.01.21.03.31.04Z"/>
            <path class="st71" d="M197.35,2.22c-.07-.01-.15-.02-.23-.03.08.01.16.02.23.03Z"/>
            <path class="st2" d="M197.08,2.18c-.08-.01-.17-.02-.27-.04.09.01.18.02.27.04Z"/>
          </g>
          <g>
            <path class="st76" d="M53.69,37.4c.11-.03.22-.06.33-.09-.1.03-.21.06-.33.09Z"/>
            <path class="st76" d="M170.89,1.2c-32.05.3-52.77,3.87-52.77,3.87,0,0-1.65,0-4.65.19-6.3.41-12.97,2.9-18.98,5.71-6,2.81-26.43,18.2-28.56,19.95-2.12,1.73-7.49,5.19-11.83,6.37,3.88-.68,7.54-1.37,7.54-1.37,0,0,14.52-1.74,25.18-2.19,10.65-.45,27.24-1.42,40.47-.9,10.26.4,35.31,1.89,46.04,2.54l16.64-21.09s2.03-9.68,8.23-11.91c0,0-6.49-1.36-27.31-1.16Z"/>
          </g>
          <path class="st75" d="M144.51,99.84c.07.1.14.2.21.31,3.36,5.42,2.71,7.75-2.71,7.88-5.42.13-25.95,1.68-29.31,1.55-3.36-.13-8.91-1.81-9.68-3.49-.37-.81-.53-1.97-.17-3.35l-11.6.81c-.93.9-1.81,1.59-2.56,1.89-3.74,1.55-47.84.64-52.03-.52-3.33-.92-5.53-4.08-5.98-4.77l-10.73-.95c.78,1.44,1.28,2.86.96,3.78-.65,1.81-2.32,3.49-4.91,3.36-2.58-.13-7.36-1.29-8.39-2.71-.51-.7-1.32-3.19-1.87-5.68l-1.38-.12c.62,3.53,1.74,6.77,1.74,6.77l-.48,2.23c.39,3.29,5.13,6.87,5.13,6.87l6.68-.48c.19-.68.97-.58.97-.58,0,0,28.85.29,37.18.58,8.33.29,48.7,1.94,48.7,1.94,4.26-.1,5.91,1.45,5.91,1.45l18.4,1.07c9.09.65,16.71.69,22.51.51-.02-.1-.05-.2-.07-.3,2.51-.08,4.85-.21,6.61-.41,6.87-.77,8.04-3.68,9.2-5.81,1.04-1.91,1.07-5.85,2.54-13.56l-24.85,1.73Z"/>
          <path class="st15" d="M183.96,59.23l-15.75-7.23-5.66,1.91c2.35,1,3.98,1.84,3.98,1.84-2,1.94-1.16,8.2-8.52,10.91-3.47,1.28-13.62,3.36-19.24,3.81-5.62.45-18.2,2.84-18.2,2.84h0l-6.33,1.03s-6.46.52-8.91,6.58c-2.45,6.07-5.81,12.01-5.81,12.01,0,0-7.1,10.97-10.84,12.52-3.74,1.55-47.84.64-52.03-.52-3.74-1.03-6.07-4.91-6.07-4.91l-4.26-7.88-5.29-2.07s-3.23-12.14-3.36-14.98c0,0-.97-2.13-3.16-2.9-1.77-.63-2.54-2.31-2.59-3.85.1-.1.17-.16.22-.21-.19.18-.64.6-1.7,1.61-1.84,1.74-2.03,7.55-2.42,10.94-.39,3.39-3.87,11.04-3.87,11.04-.97,4.45,1.94,12.88,1.94,12.88l-.37,1.7c1.56.5,3.56,1.04,6.15,1.6,12.52,2.71,48.8,3.74,48.8,3.74,0,0,63.26-.13,84.43-.65,18.63-.45,22.17-2.81,22.75-3.37.41-2.72.87-6.65,2.07-12.32,2.03-9.59,6.68-22.95,8.52-25.95.48-.79,1.09-1.5,1.72-2.13.83-1.15,2.35-2.24,3.86-2.71l-.06-5.29ZM20.9,103c-.65,1.81-2.32,3.49-4.91,3.36-2.58-.13-7.36-1.29-8.39-2.71-1.03-1.42-3.36-10.33-2.07-11.36,1.31-1.05,10.33,1.03,11.88,3.1s4.13,5.81,3.49,7.62ZM142,108.03c-5.42.13-25.95,1.68-29.31,1.55-3.36-.13-8.91-1.81-9.68-3.49-.77-1.68-.65-4.91,3.23-8.39,1.71-1.54,2.97-2.07,14.98-2.45,12.01-.39,20.14-.52,23.5,4.91,3.36,5.42,2.71,7.75-2.71,7.88Z"/>
          <path class="st79" d="M166.53,55.74s-10.84-5.55-17.04-5.29c-6.2.26-15.88,4.13-20.53,5.94-4.65,1.81-18.46,8-18.46,8,0,0-.97,2.52,10.07,8.91,0,0,12.59-2.39,18.2-2.84,5.62-.45,15.77-2.53,19.24-3.81,7.36-2.71,6.52-8.97,8.52-10.91Z"/>
          <path class="st79" d="M14.51,72.2c2.19.77,3.16,2.9,3.16,2.9,0,0,2.71-8.13,6.71-8.78,4-.65,4.78-1.03,4.78-1.03-4.58.45-6.52-.06-8.2-.97-1.68-.9-1.68-3.49-2.32-6.46-.37-1.72-.01-3.43.36-4.58-.15.2-.29.39-.42.57,0,0-2.03,1.16-3.2,2.52-1.16,1.36-2.71,4.45-2.71,4.45l-.39,7.17s0,0-.36.35c.06,1.54.82,3.22,2.59,3.85Z"/>
          <path class="st8" d="M88.94,107.58c2.19-1.61,9.49-9.36,13.56-20.27.03-.09.06-.17.08-.25-1.65,3.39-3.05,5.87-3.05,5.87,0,0-7.1,10.97-10.84,12.52-3.74,1.55-47.84.64-52.03-.52-3.74-1.03-6.07-4.91-6.07-4.91l-4.26-7.88-5.29-2.07s-2.96-11.15-3.32-14.57c.14,1.65.71,8.01,1.78,11.86,1.23,4.45,5.68,15.88,9.68,18.4,4,2.52,12.2,2.65,31.89,3.23,19.69.58,25.69.19,27.89-1.42Z"/>
          <path class="st52" d="M178.34,35.67s-37.83-2.32-51.06-2.84c-13.23-.52-29.82.45-40.47.9-10.65.45-25.18,2.19-25.18,2.19,0,0-3.66.68-7.54,1.37-.03,0-.05.02-.08.02-3.53.94-13.35,3.41-19.89,5.39-1.1.52-2.13,1.09-2.9,1.68-2.97,2.26-5.81,4.45-6.07,8.26s-.32,6.26,4.45,6.26,12.91-.45,29.37-.45,26.6.32,35.5.45c8.91.13,17.88,0,24.53-3.23,6.65-3.23,15.81-7.1,26.72-10.84,10.91-3.74,33.44-9.3,33.44-9.3h-.02c-.49.1-.82.13-.82.13Z"/>
          <path class="st0" d="M102.56,8.62s-1.29.13-5.29,2c-4,1.87-18.53,10.65-32.53,22.53l-2.65,2.26-.45.52s14.52-1.74,25.17-2.19,27.24-1.42,40.47-.9c13.23.52,51.06,2.84,51.06,2.84,0,0,2.45-.19,4.13-1.74,1.68-1.55,2.32-3.03,2.71-4s5.66-18.64,7.04-21.69c.9-2,.84-2.13-2.32-2.45-3.16-.32-19.43-1.74-46.61-1.1-27.18.65-40.73,3.94-40.73,3.94Z"/>
          <g>
            <path class="st47" d="M23.95,66.44c-.08.02-.15.05-.22.08.07-.03.15-.05.22-.08Z"/>
            <path class="st47" d="M23.6,66.56c-.07.03-.14.06-.21.1.07-.03.14-.07.21-.1Z"/>
            <path class="st47" d="M24.39,66.33c-.11.02-.22.04-.34.07.11-.03.22-.06.34-.07Z"/>
            <g>
              <path class="st57" d="M169.88,35.16c.1,0,.21.01.31.02-.1,0-.2-.01-.31-.02Z"/>
              <path class="st49" d="M173.96,35.4c.49.03.94.06,1.36.08-.42-.03-.87-.05-1.36-.08Z"/>
              <path class="st55" d="M172.61,35.32c.21.01.41.02.61.04-.2-.01-.4-.02-.61-.04Z"/>
              <path class="st68" d="M170.43,35.19c.45.03.89.05,1.31.08-.42-.03-.86-.05-1.31-.08Z"/>
              <path class="st45" d="M178.09,35.65c.07,0,.12,0,.16,0-.04,0-.09,0-.16,0Z"/>
              <path class="st23" d="M177.15,35.6c.12,0,.23.01.32.02-.1,0-.21-.01-.32-.02Z"/>
              <path class="st19" d="M175.59,35.5c.21.01.4.02.59.04-.18-.01-.38-.02-.59-.04Z"/>
              <path class="st4" d="M173.56,35.38s.01,0,.02,0c0,0-.01,0-.02,0Z"/>
              <path class="st24" d="M168.81,35.09c.19.01.39.02.58.03-.19-.01-.38-.02-.58-.03Z"/>
              <path class="st40" d="M178.36,35.67s-.02,0-.02,0h0s0,0,.02,0Z"/>
              <path class="st73" d="M178.68,35.62s0,0,0,0c0,0,0,0,0,0Z"/>
              <path class="st54" d="M178.39,35.66s.01,0,.02,0c0,0-.01,0-.02,0Z"/>
              <path class="st61" d="M178.82,35.6s0,0,.01,0c0,0,0,0-.01,0Z"/>
              <path class="st29" d="M168.17,35.05c.12,0,.25.01.37.02-.12,0-.25-.01-.37-.02Z"/>
              <path class="st65" d="M167.33,35c.11,0,.22.01.33.02-.11,0-.22-.01-.33-.02Z"/>
            </g>
            <path class="st47" d="M23.28,66.71c-.1.05-.19.1-.28.16.09-.06.19-.11.28-.16Z"/>
            <path class="st47" d="M22.52,67.19s-.07.06-.11.09c.04-.03.07-.06.11-.09Z"/>
            <polygon class="st47" points="22.23 67.43 22.23 67.43 22.23 67.43 22.23 67.43"/>
            <path class="st47" d="M18.48,53.93s.02-.01.03-.02c0,0-.02,0-.03.02Z"/>
            <path class="st47" d="M18.56,53.88s0,0-.01,0c0,0,0,0,.01,0Z"/>
            <path class="st47" d="M18.4,53.98s-.01,0-.02.01c0,0,.01,0,.02-.01Z"/>
            <path class="st47" d="M17.87,54.31h0s.02-.01.03-.02c-.01,0-.02.01-.03.02Z"/>
            <path class="st47" d="M22.83,66.97s-.09.06-.14.09c.05-.03.09-.06.14-.09Z"/>
            <path class="st47" d="M18.11,54.16s-.04.03-.06.04c.02-.01.04-.03.06-.04Z"/>
            <path class="st47" d="M18.26,54.06s-.03.02-.05.03c.02-.01.03-.02.05-.03Z"/>
          </g>
          <g>
            <path class="st72" d="M17.72,74.98s.03-.08.05-.13c-.02.05-.03.09-.05.13Z"/>
            <path class="st72" d="M20.16,69.91h0c-1.27,1.98-2.11,4.17-2.39,4.92.28-.76,1.12-2.95,2.39-4.92Z"/>
            <path class="st72" d="M17.68,75.11s0-.01,0-.03c0,.02,0,.03,0,.03Z"/>
            <path class="st72" d="M12.26,68.03s.01-.01.02-.02c0,0,0,0-.02.02Z"/>
            <path class="st72" d="M17.69,75.07s.02-.05.03-.08c-.01.03-.02.06-.03.08Z"/>
            <g>
              <path class="st72" d="M115.78,70.27s-.03-.02-.04-.03c.01,0,.03.02.04.03Z"/>
              <path class="st72" d="M120.57,73.3c-1.85-1.07-3.36-2.04-4.6-2.9,1.24.87,2.74,1.83,4.6,2.9Z"/>
            </g>
          </g>
          <path class="st76" d="M158.01,66.65c-3.47,1.28-13.62,3.36-19.24,3.81-5.62.45-18.2,2.84-18.2,2.84l-6.33,1.03s-6.46.52-8.91,6.58c-.09.23-.18.45-.28.68,3.9-3.51,4.59-3.53,9.83-5.19,5.29-1.68,29.56-4.78,36.67-6.2,7.1-1.42,7.62-1.55,10.72-4.52,3.1-2.97,4.26-9.94,4.26-9.94-2,1.94-1.16,8.2-8.52,10.91Z"/>
          <path class="st76" d="M12.07,68.21s.05-.05.07-.07c-.19.18-.64.6-1.7,1.61-.23.22-.43.49-.61.82.33.4.78.81,1.38,1.18,2.53,1.57,4.58,1.22,6.17,2.84,0,0,0,0,0,0-.05-.08-.1-.16-.16-.24-.02-.02-.03-.05-.05-.07-.05-.07-.1-.14-.16-.22-.02-.03-.04-.05-.06-.08-.08-.1-.16-.19-.25-.29-.02-.02-.03-.03-.05-.05-.08-.08-.16-.17-.25-.25-.03-.03-.06-.06-.09-.09-.09-.08-.18-.16-.28-.24-.02-.02-.05-.04-.07-.06-.12-.09-.25-.19-.38-.27-.03-.02-.07-.04-.1-.06-.11-.07-.22-.13-.34-.19-.04-.02-.09-.05-.13-.07-.16-.07-.32-.15-.49-.21-1.77-.63-2.54-2.31-2.59-3.85.06-.06.11-.1.15-.14Z"/>
          <g>
            <path class="st76" d="M5.74,97.97c-.57-2.59-.85-5.16-.2-5.69,1.31-1.05,10.33,1.03,11.88,3.1s4.13,5.81,3.49,7.62c-.37,1.04-1.08,2.03-2.11,2.67,5.75-.74,1.22-8.84-.21-10.93-1.68-2.45-7.49-3.87-11.1-4-3.61-.13-2.97,1.81-1.74,7.23,0,0,0,0,0,0Z"/>
            <path class="st76" d="M7.28,103.06c-.05-.1-.1-.22-.14-.34-.07.08-.05.19.14.34Z"/>
          </g>
          <path class="st76" d="M142,108.03c-3.05.07-10.9.6-17.77,1.02,9.63-.09,23.48-.45,24.48-1.79,1.55-2.07-2.71-9.68-6.58-12.39-3.87-2.71-26.34-2.07-31.76-1.55-5.42.52-8.13,1.94-9.81,6.97-1.14,3.41.98,5.1,2.47,5.84,0,0-.01-.02-.02-.03-.77-1.68-.65-4.91,3.23-8.39,1.71-1.54,2.97-2.07,14.98-2.45,12.01-.39,20.14-.52,23.5,4.91,3.36,5.42,2.71,7.75-2.71,7.88Z"/>
          <path class="st21" d="M190.48,7.65c-.32-.58.06-.77-2.97-1.03-3.03-.26-22.72-1.81-46.35-1.23-23.63.58-38.41,3.68-38.99,3.74-.58.06-3.16,1.1-4.07,1.68-.9.58-13.14,7.37-20.33,13.04-5.16,4.07-12.01,9.62-14.07,11.17,0,0,9.3-.84,28.14-1.68,1.87-.08,4.18-.13,6.84-.14,9.15-.39,19.64-.72,28.6-.37,6.13.24,17.54.87,28.02,1.47,12.4.28,21.84.4,23.04-.05,1.57-.59,3.94-2,5.16-5.29,1.23-3.29,7.29-20.72,6.97-21.3Z"/>
          <path class="st33" d="M187.51,6.62c-3.03-.26-22.72-1.81-46.35-1.23-23.63.58-38.41,3.68-38.99,3.74-.58.06-3.16,1.1-4.07,1.68-.9.58-13.14,7.37-20.33,13.04-5.16,4.07-12.01,9.62-14.07,11.17,0,0,6.52-.59,19.71-1.27,9.44-5.89,24.87-14.36,43.71-20.45,26.11-8.44,53.73-4.64,62.72-3.02.45-1.5.71-2.5.63-2.63-.32-.58.06-.77-2.97-1.03Z"/>
          <path class="st20" d="M204.68,4.97c-5.23.26-6.29,3.2-6.87,4.45s-5.62,18.69-6.1,20.14-1.94,5.33-1.55,6.97c.39,1.65,3.87,4.74,7.94,5.13,4.07.39,11.23-1.55,16.75-2.61s20.33-4.99,20.33-4.99c0,0,2.9-.82,3.39-1.21s0-6.29-.68-7.17-6.87-8-11.33-11.33c-7.07-5.28-15.98-9.68-21.88-9.39Z"/>
          <g>
            <path class="st21" d="M220.04,36.12c-.32-3.42-3.74-11.68-6.13-17.56-1.92-4.72-5.01-10.44-6.14-12.51-2.06-.16-6.2-.61-8.17,2.98-2.13,3.87-5.18,14.57-5.18,14.57l4.26,16.12s3.1.34,8.09-.53c2.74-.48,8.6-1.69,13.32-2.68-.01-.13-.02-.26-.04-.4Z"/>
            <path class="st21" d="M227.27,16.37l-.28-.78c-3.05-2.24-7.57-5.88-15.25-8.44-.24-.08-.47-.15-.69-.23,1.67,2.65,4.18,6.95,6.85,12.67,3.42,7.3,5.24,13.35,5.98,16.12,1.9-.4,3.15-.67,3.15-.67,0,0,5.15-1.23,8.31-2.04-2.17-7.64-8.08-16.63-8.08-16.63Z"/>
            <path class="st21" d="M237.41,25.84c-.17-.52-5.14-6.11-8.35-8.73,1.17,2.03,2.76,4.78,4.22,7.4,1.97,3.53,3.36,6.54,3.99,7.99.27-.08.44-.13.48-.16.34-.24-.15-5.91-.34-6.49Z"/>
          </g>
          <g>
            <path class="st33" d="M213.21,16.9c-1.9-4.33-4.43-9.02-5.44-10.85-2.06-.16-6.2-.61-8.17,2.98-2.13,3.87-5.18,14.57-5.18,14.57l4.26,16.12s1.91.21,5.14-.12c.76-6.24,3.03-18.29,9.39-22.71Z"/>
            <path class="st33" d="M227,15.59c-3.05-2.24-7.57-5.88-15.25-8.44-.24-.08-.47-.15-.69-.23,1.25,1.99,2.98,4.91,4.89,8.65,1.24-.36,2.6-.46,4.09-.25,2.84.41,5.21.69,7.17.87l-.22-.61Z"/>
          </g>
          <path class="st18" d="M192.93,33.15c-1.04.35-1.23,2.58-1.23,3.29s1.48,3.55,6.2,3.68c4.71.13,18.78-1.16,19.62-1.55s3.61-5.42,2.32-7.88c-1.29-2.45-8-3.03-12.26-3.1-4.26-.06-7.81.9-8.46,2.07-.65,1.16-.32,5.42-.32,5.42l-2.32-.13s-2.39-2.19-3.55-1.81Z"/>
          <path class="st39" d="M245.74,41.93c-.32-1.23-3.81-4.65-5.16-6.39-.86-1.11-1.54-2.18-1.92-2.83-.02.07-.05.12-.08.15-.48.39-3.39,1.21-3.39,1.21,0,0-14.81,3.92-20.33,4.99-5.52,1.07-12.68,3-16.75,2.61-2.9-.28-5.5-1.93-6.9-3.45,1.68,2.92,3.07,7.42,3.41,8.81.39,1.55,3.42,7.29,3.42,7.29,0,0,1.68,3.29,1.61,17.62-.11,24.27-4.07,32.99-4.07,32.99,0,0,16.59-5.23,23.11-6.97,6.52-1.74,15.36-3.29,16.91-4.65,5.66-4.96,10.84-23.88,11.75-29.69.9-5.81-1.29-20.46-1.61-21.69Z"/>
          <path class="st48" d="M245.74,41.93c-.32-1.23-3.81-4.65-5.16-6.39-.86-1.11-1.54-2.18-1.92-2.83-.02.07-.05.12-.08.15-.48.39-3.39,1.21-3.39,1.21,0,0-14.81,3.92-20.33,4.99-5.52,1.07-12.68,3-16.75,2.61-2.9-.28-5.5-1.93-6.9-3.45,1.68,2.92,3.07,7.42,3.41,8.81.39,1.55,3.42,7.29,3.42,7.29,0,0,.14.27.33,1l47.56-12.39c-.09-.5-.15-.85-.19-1Z"/>
          <path class="st76" d="M192.74,65.43c-1.42-4-6.71-7.36-10.97-4.78-3.28,1.99-7.88,10.07-9.42,15.62-1.55,5.55-4.47,18.57-4.49,31.36.41-2.72.87-6.65,2.07-12.32,2.03-9.59,6.68-22.95,8.52-25.95.48-.79,1.09-1.5,1.72-2.13,1.3-1.8,4.32-3.47,6.32-2.81,9.16,3.05,9.04,23.91,8.69,31.46,0,0,3.11-14.83-2.43-30.45Z"/>
          <path class="st76" d="M249.93,60c-2.16,1.69-4.22,12.8-5.53,21.49,1.77-7.78,4.13-16.48,5.99-18.13,1.74-1.55,3.1.39,3.1.39,0,0,2.18,1.98,3.2,14.28.23-17.65-3.13-20.87-6.75-18.03Z"/>
          <path class="st7" d="M235.6,93.31s-3.36,1.16-10.84,2.84c-7.49,1.68-27.63,7.88-27.63,7.88l-2.48,1.94c-.09.97-.17,1.82-.24,2.51-.03.33-.07.67-.11,1.02h0s1.08-.63,1.08-.63c0,0,24.3-6.29,31.86-8.13.37-.09.74-.18,1.09-.26l-.03-.13s6.44-1.55,7.26-1.65,3.68-.19,4.16-.48,1.89-1.55,2.13-3.92c.11-1.07,1.17-6.83,2.61-13.12l.3-4.91c-5.42,17.04-9.17,17.04-9.17,17.04Z"/>
          <path class="st12" d="M222.5,37.22c2.3,2.73,4.8,5.34,6.63,8.43.73,2.19.72,4.58.83,6.81.48,4.49.88,9.04.37,13.55-.56,5.16-1.8,10.17-2.64,15.18-.7,3.05.3,6.5-.68,9.61-.61,1.85-1.35,3.62-2.25,5.35.22-1.28.51-2.53.83-3.77l.49-1.85c.78-3.09-.19-6.36.42-9.51.76-5.12,1.8-10.13,2.39-15.16.47-4.41.17-8.9-.25-13.31-.07-2.22.01-4.41-.53-6.54-1.63-3.04-3.82-5.82-5.61-8.79h0Z"/>
          <g>
            <path class="st37" d="M239.94,43.17c-.42.19-.39,1.07-.19,1.36s.87,1.07,1.07,1.07,1.4-.87,1.89-.82.63.29.87.24.92-.39,1.07-1.11-.58-1.6-.92-1.69-2.81.53-3.78.97Z"/>
            <path class="st26" d="M220.25,47.8s-.68.68-.73.97.34,1.21.58,1.5,1.45.58,1.45.58c0,0,1.69-1.11,2.47-1.16,0,0,.15.24.44.44s1.45,0,2.03-.92c.58-.92-.19-2.28-1.07-2.66s-1.84.05-1.84.05c0,0-.44.87-3.34,1.21Z"/>
          </g>
          <g class="st9">
            <path class="st38" d="M239.94,43.17c-.42.19-.39,1.07-.19,1.36s.87,1.07,1.07,1.07,1.4-.87,1.89-.82.63.29.87.24.92-.39,1.07-1.11-.58-1.6-.92-1.69-2.81.53-3.78.97Z"/>
            <path class="st77" d="M220.25,47.8s-.68.68-.73.97.34,1.21.58,1.5,1.45.58,1.45.58c0,0,1.69-1.11,2.47-1.16,0,0,.15.24.44.44s1.45,0,2.03-.92c.58-.92-.19-2.28-1.07-2.66s-1.84.05-1.84.05c0,0-.44.87-3.34,1.21Z"/>
          </g>
          <path class="st64" d="M162.4,54.97c.52,1.55.65,2.71-3.23,3.49-3.87.77-4.52,1.68-6.71,2.58-2.19.9-6.2,6.07-11.88,6.2-5.68.13-6.58-5.03-9.81-6.33-2.21-.88-10.85.6-16.07,1.61-2.46,1.09-4.2,1.87-4.2,1.87,0,0-.97,2.52,10.07,8.91,0,0,12.59-2.39,18.2-2.84,5.62-.45,15.77-2.53,19.24-3.81,7.36-2.71,6.52-8.97,8.52-10.91,0,0-1.83-.94-4.42-2.02.08.47.17.91.29,1.25Z"/>
          <path class="st64" d="M22.62,67.11l-6.76-1.82c-1.81.76-2.83.17-3.4-.7l-.18,3.41s0,0-.36.35c.06,1.54.82,3.22,2.59,3.85,2.19.77,3.16,2.9,3.16,2.9,0,0,1.94-5.8,4.95-8Z"/>
          <path class="st51" d="M219.08,31.21c.31-.1.6-.2.87-.31-.03-.07-.06-.14-.1-.21-1.29-2.45-8-3.03-12.26-3.1-4.26-.06-7.81.9-8.46,2.07-.65,1.16-.32,5.42-.32,5.42l-2.32-.13s-2.39-2.19-3.55-1.81c-.26.09-.46.29-.63.56.14.53.46,1.03,1.08,1.38,2.07,1.16,2.45,1.68,5.42,1.68s15.36-.77,19.11-3.36c0,0-7.75,2.57-14.07,2.07-3.23-.26-2.58-3.87-2.58-3.87,0,0,11.1,1.68,17.82-.39Z"/>
          <g>
            <path class="st25" d="M116.93,56.57c.72-.27,1.42-.56,2.09-.89,0,0-.88.24-2.09.89Z"/>
            <path class="st35" d="M116.93,56.57c-6.38,2.36-14.43,2.46-22.44,2.34-8.91-.13-19.04-.45-35.5-.45s-24.59.45-29.37.45-4.71-2.45-4.45-6.26,3.1-6,6.07-8.26c.77-.59,1.8-1.16,2.9-1.68.24-.07.48-.14.72-.22h0c-1.83.55-3.45,1.06-4.66,1.51-5.52,2.03-9.3,6.68-11.62,9.88.14-.19.28-.38.42-.57-.37,1.14-.73,2.86-.36,4.58.65,2.97.65,5.55,2.32,6.46,1.68.9,3.61,1.42,8.2.97l62.61.77s16.01-.13,18.72-1.68c1.3-4.4,4.36-6.72,6.43-7.83Z"/>
          </g>
          <g>
            <ellipse class="st76" cx="183.88" cy="98.61" rx="27.56" ry="8.73" transform="translate(84.79 282.22) rotate(-89.85)"/>
            <ellipse class="st18" cx="181.91" cy="97.79" rx="23.27" ry="6.76" transform="translate(83.64 279.44) rotate(-89.85)"/>
            <g>
              <path class="st50" d="M191.64,85.8"/>
              <path class="st5" d="M184.37,91.8c-.33,1.76-.63,3.02-.6,3.58.06,1.03,1.69-.58,1.69-.58,2.32-1.75,5.15-6.99,6.18-9,0,0-1.95,1.97-3.46,1.97,0,0-2.64,3.38-3.82,4.03Z"/>
            </g>
            <g>
              <path class="st50" d="M189.85,118.56c-.1.3-.2.59-.31.87.1-.28.21-.57.31-.87Z"/>
              <path class="st5" d="M185.9,109.97c-1.67-7.11-2.93-7.24-3.17-6.92-.24.32-.08,6.13-.08,6.13,0,0,3.11,5.5,2.27,8.01-.44,1.31-.65,1.78-.75,1.93.51-.02,3.01.02,3.81,2.86l.09.71s.04-.07.06-.11c-.33-2.56-1.05-7.62-2.22-12.62Z"/>
              <path class="st50" d="M189.53,119.46c-.44,1.18-.91,2.22-1.41,3.12.5-.9.97-1.94,1.41-3.12Z"/>
              <path class="st50" d="M190.16,117.6c-.08.27-.17.54-.26.8.09-.26.17-.53.26-.8Z"/>
              <path class="st50" d="M190.45,116.6c-.06.21-.12.41-.18.61.06-.2.12-.4.18-.61Z"/>
            </g>
            <path class="st14" d="M184.55,98.86c.48-.31,5.68-3.4,7.92-5.44-.16-2.7-.44-5.26-.83-7.62-1.03,2.01-3.86,7.24-6.18,9,0,0-1.63,1.61-1.69.58s.97-4.39,1.35-8.9c.31-3.7.82-11.75,1-14.56-.69-.56-1.42-.86-2.17-.87-.34,0-.67.06-1,.18.47,3.15,1.51,12.43-.56,23.89l-.36.77s-1.4-4.06-5.96-9.38c-.55,3.52-.88,7.46-.91,11.62.59-.07,1.82-.06,2.96.98,0,0-1.03,2.58.05,4.65l.42.71s.83,6.39-1.05,9.23c-.29.44-.53.82-.74,1.15.98,4.27,2.34,7.61,3.93,9.52.49-2.97,2.03-12.58,1.94-15.18,0,0-.17-5.81.08-6.13.24-.32,1.5-.19,3.17,6.92,1.17,5,1.9,10.06,2.22,12.62,1.01-1.79,1.89-4.19,2.6-7.04-1.28-3.23-4.91-12.26-6.43-14.17-.36-.45-.36-2.13.25-2.52Z"/>
            <path class="st5" d="M181.89,100.86c-.36-.71-.42-2.32-.42-2.32-.7-1.21-4.6-2.43-6.27-2.91-.03.83-.05,1.66-.06,2.5.59-.07,1.82-.06,2.96.98,0,0-1.03,2.58.05,4.65l.42.71s.83,6.39-1.05,9.23c-.29.44-.53.82-.74,1.15.39,1.71.84,3.27,1.35,4.64.03-.08.07-.16.1-.24,3.82-9.54,3.66-18.39,3.66-18.39Z"/>
            <path class="st5" d="M181.39,85.94c-.29,2.87-1.56,4-2.36,4.44,2.23,3.29,2.99,5.5,2.99,5.5l.36-.77c2.07-11.46,1.04-20.74.56-23.89-.59,1.61-3.04,4.45-3.04,4.45,1.86,2.39,1.91,6.01,1.48,10.27Z"/>
          </g>
          <g>
            <ellipse class="st76" cx="251.74" cy="86.89" rx="19.07" ry="3.49" transform="translate(164.18 338.4) rotate(-89.85)"/>
            <ellipse class="st18" cx="250.95" cy="86.33" rx="16.1" ry="2.7" transform="translate(163.96 337.05) rotate(-89.85)"/>
            <g>
              <path class="st50" d="M254.85,78.03"/>
              <path class="st5" d="M251.94,82.18c-.13,1.22-.25,2.09-.24,2.48.02.71.67-.4.67-.4.93-1.22,2.06-4.84,2.48-6.23,0,0-.78,1.37-1.38,1.37,0,0-1.06,2.34-1.53,2.79Z"/>
            </g>
            <g>
              <path class="st50" d="M254.11,100.7c-.04.21-.08.41-.12.6.04-.2.08-.4.12-.6Z"/>
              <path class="st5" d="M252.54,94.76c-.66-4.92-1.16-5.01-1.26-4.78-.1.22-.04,4.24-.04,4.24,0,0,1.24,3.8.9,5.54-.18.91-.26,1.23-.3,1.34.2-.02,1.2.01,1.52,1.97l.04.49s.02-.05.02-.07c-.13-1.77-.41-5.27-.88-8.73Z"/>
              <path class="st50" d="M253.98,101.33c-.17.82-.36,1.54-.57,2.16.2-.62.39-1.34.57-2.16Z"/>
              <path class="st50" d="M254.23,100.04c-.03.19-.07.37-.1.55.03-.18.07-.37.1-.55Z"/>
              <path class="st50" d="M254.35,99.34c-.02.14-.05.28-.07.42.02-.14.05-.28.07-.42Z"/>
            </g>
            <path class="st14" d="M252,87.07c.19-.22,2.27-2.36,3.17-3.77-.06-1.87-.17-3.64-.32-5.27-.41,1.39-1.55,5.02-2.48,6.23,0,0-.65,1.12-.67.4s.39-3.04.54-6.16c.12-2.56.34-8.13.41-10.08-.28-.39-.57-.6-.87-.6-.14,0-.27.04-.4.12.19,2.18.59,8.6-.24,16.53l-.15.54s-.56-2.81-2.37-6.49c-.22,2.44-.36,5.16-.37,8.04.23-.05.73-.04,1.18.67,0,0-.41,1.79.02,3.22l.17.49s.32,4.42-.43,6.39c-.12.31-.21.57-.3.8.39,2.96.93,5.27,1.56,6.59.2-2.06.82-8.7.79-10.51,0,0-.06-4.02.04-4.24.1-.22.6-.13,1.26,4.78.46,3.46.75,6.96.88,8.73.4-1.24.76-2.9,1.04-4.88-.51-2.23-1.95-8.48-2.56-9.8-.14-.31-.14-1.47.1-1.74Z"/>
            <path class="st5" d="M250.94,88.45c-.14-.49-.16-1.61-.16-1.61-.28-.84-1.83-1.68-2.5-2.01-.01.57-.02,1.15-.03,1.73.23-.05.73-.04,1.18.67,0,0-.41,1.79.02,3.22l.17.49s.32,4.42-.43,6.39c-.12.31-.21.57-.3.8.15,1.18.33,2.26.53,3.21.01-.06.03-.11.04-.17,1.53-6.61,1.48-12.73,1.48-12.73Z"/>
            <path class="st5" d="M250.75,78.13c-.12,1.98-.63,2.77-.94,3.08.89,2.28,1.19,3.8,1.19,3.8l.15-.54c.84-7.93.43-14.36.24-16.53-.24,1.11-1.22,3.08-1.22,3.08.74,1.65.76,4.16.58,7.11Z"/>
          </g>
        </g>
      </g>
    </g>
  </g>
</svg>