<?xml version="1.0" encoding="UTF-8"?>
<svg xmlns="http://www.w3.org/2000/svg" version="1.1" xmlns:xlink="http://www.w3.org/1999/xlink" viewBox="0 0 701 468.4">
  <!-- Generator: Adobe Illustrator 29.7.1, SVG Export Plug-In . SVG Version: 2.1.1 Build 8)  -->
  <defs>
    <style>
      .st0 {
        fill: url(#linear-gradient2);
      }

      .st1 {
        fill: url(#radial-gradient20);
      }

      .st2 {
        fill: url(#radial-gradient30);
      }

      .st3 {
        fill: url(#radial-gradient28);
      }

      .st4 {
        fill: url(#linear-gradient10);
      }

      .st5 {
        fill: #b4b8c0;
      }

      .st6, .st7, .st8, .st9, .st10, .st11 {
        mix-blend-mode: multiply;
      }

      .st6, .st12, .st10, .st11 {
        fill: #474162;
      }

      .st7 {
        fill: url(#linear-gradient21);
      }

      .st13 {
        fill: url(#radial-gradient10);
      }

      .st14 {
        fill: #fff;
      }

      .st15 {
        fill: url(#linear-gradient1);
      }

      .st16 {
        fill: url(#radial-gradient24);
      }

      .st17 {
        opacity: .7;
      }

      .st17, .st18 {
        fill: #261f46;
      }

      .st19 {
        fill: url(#linear-gradient9);
      }

      .st20 {
        fill: url(#linear-gradient18);
      }

      .st21 {
        fill: #312a4f;
      }

      .st22 {
        fill: url(#radial-gradient11);
      }

      .st23 {
        fill: url(#linear-gradient23);
      }

      .st24 {
        fill: url(#linear-gradient8);
      }

      .st25 {
        fill: url(#linear-gradient11);
      }

      .st26 {
        fill: none;
      }

      .st27 {
        fill: url(#radial-gradient34);
      }

      .st28 {
        fill: url(#radial-gradient);
      }

      .st29 {
        fill: url(#radial-gradient21);
      }

      .st30 {
        fill: url(#linear-gradient16);
      }

      .st31 {
        fill: url(#radial-gradient19);
      }

      .st32 {
        fill: url(#radial-gradient22);
      }

      .st33 {
        fill: url(#radial-gradient5);
      }

      .st34 {
        fill: #423c5e;
      }

      .st35 {
        fill: url(#radial-gradient1);
      }

      .st36 {
        fill: url(#linear-gradient22);
      }

      .st37 {
        isolation: isolate;
      }

      .st38 {
        fill: url(#radial-gradient33);
      }

      .st8 {
        fill: url(#radial-gradient31);
      }

      .st39 {
        fill: url(#radial-gradient35);
      }

      .st40 {
        fill: url(#linear-gradient19);
      }

      .st41 {
        fill: url(#linear-gradient12);
      }

      .st42 {
        fill: url(#radial-gradient26);
      }

      .st43 {
        fill: url(#radial-gradient7);
      }

      .st44 {
        fill: url(#radial-gradient18);
      }

      .st45 {
        fill: url(#radial-gradient14);
      }

      .st46 {
        fill: url(#linear-gradient7);
      }

      .st47 {
        fill: url(#radial-gradient13);
      }

      .st48 {
        fill: #ffea86;
      }

      .st49 {
        fill: url(#linear-gradient20);
      }

      .st50 {
        fill: url(#linear-gradient4);
      }

      .st51 {
        fill: #eec81b;
      }

      .st52 {
        fill: #574f78;
      }

      .st53 {
        fill: url(#radial-gradient32);
      }

      .st54 {
        fill: url(#radial-gradient27);
      }

      .st55 {
        fill: url(#linear-gradient14);
      }

      .st56 {
        fill: url(#linear-gradient5);
      }

      .st57 {
        fill: url(#radial-gradient8);
      }

      .st58 {
        fill: url(#linear-gradient3);
      }

      .st59 {
        fill: url(#radial-gradient12);
      }

      .st60 {
        fill: url(#radial-gradient25);
      }

      .st61 {
        fill: url(#radial-gradient23);
      }

      .st62 {
        fill: url(#linear-gradient15);
      }

      .st63 {
        fill: url(#radial-gradient17);
      }

      .st64 {
        fill: url(#radial-gradient6);
      }

      .st65 {
        fill: #debf81;
      }

      .st66 {
        fill: url(#linear-gradient17);
      }

      .st10 {
        opacity: .5;
      }

      .st67 {
        fill: url(#radial-gradient2);
      }

      .st68 {
        fill: url(#radial-gradient15);
      }

      .st69 {
        fill: url(#linear-gradient6);
      }

      .st70 {
        fill: url(#radial-gradient4);
      }

      .st71 {
        fill: url(#radial-gradient3);
      }

      .st72 {
        fill: url(#radial-gradient29);
      }

      .st73 {
        fill: #27495a;
      }

      .st74 {
        fill: url(#linear-gradient13);
      }

      .st75 {
        fill: url(#radial-gradient9);
      }

      .st76 {
        fill: url(#linear-gradient);
      }

      .st77 {
        fill: #f3fcf5;
      }

      .st78 {
        fill: url(#radial-gradient36);
      }

      .st79 {
        opacity: .5;
      }

      .st80 {
        fill: #ffd;
      }

      .st81 {
        fill: url(#radial-gradient16);
      }

      .st11 {
        opacity: .7;
      }
    </style>
    <radialGradient id="radial-gradient" cx="-327.4" cy="4.6" fx="-327.4" fy="4.6" r="40.6" gradientTransform="translate(-284.8) rotate(-180) scale(1 -1)" gradientUnits="userSpaceOnUse">
      <stop offset="0" stop-color="#f3fcf5"/>
      <stop offset="1" stop-color="#d8e2ec"/>
    </radialGradient>
    <radialGradient id="radial-gradient1" cx="-290.6" cy="42.3" fx="-290.6" fy="42.3" r="18.9" xlink:href="#radial-gradient"/>
    <radialGradient id="radial-gradient2" cx="-367" cy="41" fx="-367" fy="41" r="45" gradientTransform="translate(-273.5 -52.9) rotate(-169.2) scale(1 -.6)" xlink:href="#radial-gradient"/>
    <radialGradient id="radial-gradient3" cx="-327.4" cy="4.6" fx="-327.4" fy="4.6" r="40.6" xlink:href="#radial-gradient"/>
    <radialGradient id="radial-gradient4" cx="-327.4" cy="4.6" fx="-327.4" fy="4.6" r="40.6" xlink:href="#radial-gradient"/>
    <radialGradient id="radial-gradient5" cx="-327.4" cy="4.6" fx="-327.4" fy="4.6" r="40.6" xlink:href="#radial-gradient"/>
    <radialGradient id="radial-gradient6" cx="-327.4" cy="4.6" fx="-327.4" fy="4.6" r="40.6" xlink:href="#radial-gradient"/>
    <radialGradient id="radial-gradient7" cx="-327.4" cy="4.6" fx="-327.4" fy="4.6" r="40.6" xlink:href="#radial-gradient"/>
    <radialGradient id="radial-gradient8" cx="-327.4" cy="4.6" fx="-327.4" fy="4.6" r="40.6" xlink:href="#radial-gradient"/>
    <radialGradient id="radial-gradient9" cx="-303.4" cy="31" fx="-303.4" fy="31" r="0" xlink:href="#radial-gradient"/>
    <radialGradient id="radial-gradient10" cx="-303.7" cy="31.1" fx="-303.7" fy="31.1" r="0" xlink:href="#radial-gradient"/>
    <radialGradient id="radial-gradient11" cx="-303.2" cy="30.9" fx="-303.2" fy="30.9" r="0" xlink:href="#radial-gradient"/>
    <radialGradient id="radial-gradient12" cx="-303" cy="30.8" fx="-303" fy="30.8" r="0" xlink:href="#radial-gradient"/>
    <radialGradient id="radial-gradient13" cx="-302.7" cy="30.6" fx="-302.7" fy="30.6" r="0" xlink:href="#radial-gradient"/>
    <radialGradient id="radial-gradient14" cx="-302.8" cy="30.7" fx="-302.8" fy="30.7" r="0" xlink:href="#radial-gradient"/>
    <radialGradient id="radial-gradient15" cx="-327.4" cy="4.6" fx="-327.4" fy="4.6" r="40.6" xlink:href="#radial-gradient"/>
    <radialGradient id="radial-gradient16" cx="-327.4" cy="4.6" fx="-327.4" fy="4.6" r="40.6" xlink:href="#radial-gradient"/>
    <radialGradient id="radial-gradient17" cx="-327.4" cy="4.6" fx="-327.4" fy="4.6" r="40.6" xlink:href="#radial-gradient"/>
    <radialGradient id="radial-gradient18" cx="-327.4" cy="4.6" fx="-327.4" fy="4.6" r="40.6" xlink:href="#radial-gradient"/>
    <radialGradient id="radial-gradient19" cx="-327.4" cy="4.6" fx="-327.4" fy="4.6" r="40.6" xlink:href="#radial-gradient"/>
    <radialGradient id="radial-gradient20" cx="-327.4" cy="4.6" fx="-327.4" fy="4.6" r="40.6" xlink:href="#radial-gradient"/>
    <radialGradient id="radial-gradient21" cx="-327.4" cy="4.6" fx="-327.4" fy="4.6" r="40.6" xlink:href="#radial-gradient"/>
    <radialGradient id="radial-gradient22" cx="-327.4" cy="4.6" fx="-327.4" fy="4.6" r="40.6" xlink:href="#radial-gradient"/>
    <radialGradient id="radial-gradient23" cx="-327.4" cy="4.6" fx="-327.4" fy="4.6" r="40.6" xlink:href="#radial-gradient"/>
    <radialGradient id="radial-gradient24" cx="-327.4" cy="4.6" fx="-327.4" fy="4.6" r="40.6" xlink:href="#radial-gradient"/>
    <radialGradient id="radial-gradient25" cx="-327.4" cy="4.6" fx="-327.4" fy="4.6" r="40.6" xlink:href="#radial-gradient"/>
    <radialGradient id="radial-gradient26" cx="-327.4" cy="4.6" fx="-327.4" fy="4.6" r="40.6" xlink:href="#radial-gradient"/>
    <radialGradient id="radial-gradient27" cx="-327.4" cy="4.6" fx="-327.4" fy="4.6" r="40.6" xlink:href="#radial-gradient"/>
    <radialGradient id="radial-gradient28" cx="-327.4" cy="4.6" fx="-327.4" fy="4.6" r="40.6" xlink:href="#radial-gradient"/>
    <radialGradient id="radial-gradient29" cx="-327.4" cy="4.6" fx="-327.4" fy="4.6" r="40.6" xlink:href="#radial-gradient"/>
    <radialGradient id="radial-gradient30" cx="-327.4" cy="4.6" fx="-327.4" fy="4.6" r="40.6" xlink:href="#radial-gradient"/>
    <linearGradient id="linear-gradient" x1="-450" y1="107.9" x2="-450.1" y2="111.1" gradientTransform="translate(-284.8) rotate(-180) scale(1 -1)" gradientUnits="userSpaceOnUse">
      <stop offset="0" stop-color="#f3fcf5"/>
      <stop offset="1" stop-color="#d8e2ec"/>
    </linearGradient>
    <linearGradient id="linear-gradient1" x1="-442.9" y1="48.4" x2="-442.2" y2="96.6" xlink:href="#linear-gradient"/>
    <radialGradient id="radial-gradient31" cx="-475.2" cy="88.2" fx="-475.2" fy="88.2" r="31.2" xlink:href="#radial-gradient"/>
    <radialGradient id="radial-gradient32" cx="-426.4" cy="30.7" fx="-426.4" fy="30.7" r="55.9" xlink:href="#radial-gradient"/>
    <linearGradient id="linear-gradient2" x1="-412.4" y1="27.9" x2="-405.9" y2=".7" gradientTransform="translate(-284.8) rotate(-180) scale(1 -1)" gradientUnits="userSpaceOnUse">
      <stop offset="0" stop-color="#191d32"/>
      <stop offset=".5" stop-color="#606677"/>
    </linearGradient>
    <linearGradient id="linear-gradient3" x1="-467.2" y1="-9" x2="-481.5" y2="-15.1" xlink:href="#linear-gradient"/>
    <linearGradient id="linear-gradient4" x1="-466.6" y1="-10.3" x2="-480.9" y2="-16.5" xlink:href="#linear-gradient"/>
    <linearGradient id="linear-gradient5" x1="-466.8" y1="-9.8" x2="-481.1" y2="-15.9" xlink:href="#linear-gradient"/>
    <linearGradient id="linear-gradient6" x1="-467" y1="-9.3" x2="-481.4" y2="-15.4" xlink:href="#linear-gradient"/>
    <linearGradient id="linear-gradient7" x1="-466.1" y1="-11.4" x2="-480.5" y2="-17.5" xlink:href="#linear-gradient"/>
    <linearGradient id="linear-gradient8" x1="-466.2" y1="-11.1" x2="-480.6" y2="-17.3" xlink:href="#linear-gradient"/>
    <linearGradient id="linear-gradient9" x1="-466.4" y1="-10.7" x2="-480.8" y2="-16.8" xlink:href="#linear-gradient"/>
    <linearGradient id="linear-gradient10" x1="-365.6" y1="33.1" x2="-365.6" y2="33.1" xlink:href="#linear-gradient"/>
    <linearGradient id="linear-gradient11" x1="-467.3" y1="-8.7" x2="-481.6" y2="-14.8" xlink:href="#linear-gradient"/>
    <linearGradient id="linear-gradient12" x1="-360.9" y1="33.3" x2="-361" y2="33.3" xlink:href="#linear-gradient"/>
    <linearGradient id="linear-gradient13" x1="-360.6" y1="33.3" x2="-360.6" y2="33.3" xlink:href="#linear-gradient"/>
    <linearGradient id="linear-gradient14" x1="-360.9" y1="33.3" x2="-360.9" y2="33.3" xlink:href="#linear-gradient"/>
    <linearGradient id="linear-gradient15" x1="-360.5" y1="33.3" x2="-360.5" y2="33.3" xlink:href="#linear-gradient"/>
    <linearGradient id="linear-gradient16" x1="-467.4" y1="-8.5" x2="-481.7" y2="-14.6" xlink:href="#linear-gradient"/>
    <linearGradient id="linear-gradient17" x1="-467.5" y1="-8.2" x2="-481.8" y2="-14.3" xlink:href="#linear-gradient"/>
    <linearGradient id="linear-gradient18" x1="-324.2" y1="38.9" x2="-329.5" y2="14.7" xlink:href="#linear-gradient2"/>
    <linearGradient id="linear-gradient19" x1="-328.2" y1="51" x2="-318.1" y2="74.5" xlink:href="#linear-gradient"/>
    <linearGradient id="linear-gradient20" x1="-350.8" y1="40.1" x2="-295" y2="42.7" xlink:href="#linear-gradient"/>
    <linearGradient id="linear-gradient21" x1="-309.6" y1="78.9" x2="-326" y2="101.3" gradientTransform="translate(-284.8) rotate(-180) scale(1 -1)" gradientUnits="userSpaceOnUse">
      <stop offset=".5" stop-color="#f3fcf5"/>
      <stop offset="1" stop-color="#d8e2ec"/>
    </linearGradient>
    <radialGradient id="radial-gradient33" cx="-299.3" cy="40.2" fx="-299.3" fy="40.2" r="2.6" xlink:href="#radial-gradient"/>
    <radialGradient id="radial-gradient34" cx="-319.6" cy="45.1" fx="-319.6" fy="45.1" r="3.5" xlink:href="#radial-gradient"/>
    <radialGradient id="radial-gradient35" cx="-299.3" cy="40.2" fx="-299.3" fy="40.2" r="2.6" xlink:href="#radial-gradient"/>
    <radialGradient id="radial-gradient36" cx="-319.6" cy="45.1" fx="-319.6" fy="45.1" r="3.5" xlink:href="#radial-gradient"/>
    <linearGradient id="linear-gradient22" x1="-468" y1="47" x2="-467.8" y2="75.4" xlink:href="#linear-gradient"/>
    <linearGradient id="linear-gradient23" x1="293.8" y1="46.3" x2="390.5" y2="356.2" gradientUnits="userSpaceOnUse">
      <stop offset="0" stop-color="#ffffc7" stop-opacity=".6"/>
      <stop offset="1" stop-color="#ffffc7" stop-opacity="0"/>
    </linearGradient>
  </defs>
  <g class="st37">
    <g id="Capa_1">
      <g>
        <g>
          <path class="st17" d="M222.1,119.1s22.8,2.2,24.3,4.5c1.5,2.2,9.7,8.1-19.5,8.4-29.2.4-97.2,3.9-110.5,2.4-13.3-1.5-34.8-2.6-42-7-7.2-4.4-29.1-11.9-39.2-13.9-10.1-2.1-26.6-4.1-26.6-6.4s2.6-7.9,45.1-6.6c42.5,1.3,90.1,13.3,98.3,13.9,8.2.6,32.8,1.9,48.7,2.6,15.9.7,21.3,2.1,21.3,2.1Z"/>
          <g>
            <path class="st18" d="M179.2,31.8c-.7.2-.9,1.7-.9,2.2s.8,2.5,3.6,2.7,11.6-.1,12.1-.3,2.4-3.6,1.7-5.3-4.8-2.4-7.4-2.6c-2.6-.2-4.8.3-5.3,1.1s-.4,3.7-.4,3.7l-1.4-.2s-1.4-1.6-2.1-1.4Z"/>
            <path class="st12" d="M191.2,31.7c-3.2-.5-5.9-1.4-8-2.2.7-.7,2.7-1.1,5.1-.9,2.6.2,6.7.8,7.4,2.6,0,.2.1.5.1.8-1.1.2-2.6.1-4.7-.2Z"/>
            <path class="st12" d="M65.4,54.4l28,11.6,38.7,3.7,9-10.7,18.2-1.9,44.9-.4,19.7,5.2s4.5.1,9.5,7.6,9,16,9,16l2.1,3-1.9,9.7-2.7,3.4s-61.2,3.4-61.7,3.5-75.8,2.4-75.8,2.4l-42.6-8.7-48.8-13.5L.5,74.1l2.3-18,62.7-1.7Z"/>
            <path class="st10" d="M221.2,61.4s-64.7,1.2-67.2,2.6-6.7,1.9-7,5c-.2,3.1-3,6.2-3.4,6.4s-17.4-1.4-17.4-1.4c0,0,4.4-15.2,5-15.4s9-1.6,10.6-1.7c1.6-.1,54.4-.1,54.4-.1l24.8,4.6Z"/>
            <path class="st10" d="M221.2,61.4s4.7,2.9,5.5,4.7c.7,1.9,1.1,4.1-.1,4.6s-42.6,1.4-42.6,1.4l-39.9,1.6,90.7-.4-1.5-7.9-10.9-5.5-1.2,1.4Z"/>
            <g class="st79">
              <path class="st6" d="M104.9,98l.5,3.5s5.1.7,9.5.3c4.3-.4,5.3-.9,6.5-2.5.3-.4.5-.9.6-1.4l28.2,2.7v-2.5s-28.1-.8-28.1-.8c.2-1.5-.1-3.1-1-3.9l-1.3-1.1s13.2-.8,24.3.4c11.1,1.2,3.7-.7,3.7-.7l-19.7-4.5s-11,1.4-11.8,1.6c-.8.2-8.3,3.3-8.3,3.3l-3.1,5.8ZM112.6,96.5c0-2,1.6-3.7,3.7-3.7,2,0,3.7,1.6,3.7,3.7,0,2-1.6,3.7-3.7,3.7-2,0-3.7-1.6-3.7-3.7Z"/>
              <path class="st6" d="M113.7,96.3c0,1.6,1.2,2.9,2.8,2.9s2.8-1.3,2.8-2.9-1.2-2.9-2.8-2.9-2.8,1.3-2.8,2.9ZM114.9,96.9c.2.1.4.2.7.2.8,0,1.4-.7,1.4-1.5s0-.5-.2-.8c.4.3.7.7.7,1.3,0,.8-.6,1.5-1.4,1.5s-1-.3-1.2-.7Z"/>
            </g>
            <path class="st11" d="M231.8,96.1l4.9-2.3c.3,1.7,1.4,2.9,2.8,2.9,1.6,0,2.8-1.7,2.8-3.7,0-2-1.3-3.7-2.8-3.7-1.6,0-2.8,1.7-2.8,3.7s0,0,0,0l-4.2.7c-.2-.7-.2-1.3,0-1.9,1-1.9,2.8-3.4,2.8-3.4l3.2-2.5,5.6,1.1s.3,9.5-1.8,11-6.7,1.7-9.2.6c-.8-.4-2.1-1.3-1.3-2.7ZM239.2,90.3c1.1,0,2.1,1.2,2.1,2.7s-.9,2.7-2.1,2.7c-1.1,0-2.1-1.2-2.1-2.7,0-1.5.9-2.7,2.1-2.7ZM239,94.2c.5,0,.8-.6.8-1.3,0-.6-.3-1.2-.7-1.2.1.3.2.6.2,1,0,.7-.3,1.2-.7,1.3.1.1.3.2.4.2Z"/>
            <path class="st10" d="M230.1,85.7s-20.1,1.2-36.7,1.6c-16.6.4-42.9.1-42.9.1l1.2,2s21.1.6,41.9,0c20.8-.6,29.6-1.5,29.6-1.5l6.5-.5.4-1.7Z"/>
            <path class="st18" d="M68.2,64.2c1.4-1.3,3.2-1.2,3.2-1.2h2.2c.9.8,1.9,1.8,2.5,2.9,1.8,2.9,6.3,15.8,8.2,25.1,2,9.3,1.9,13.8,3,15.8,1.1,2.1,2.2,4.9,8.9,5.6,1.7.2,4,.3,6.4.4-.6,2.3-1.6,6-2.7,7.8-1.8,2.6-4.7,5.5-6.9,5.8-2.2.3-16.4,1-18.5,1-2.2,0-6.9-2.6-8.9-5.8-1.8-2.8-4.2-11-4.9-17.9-.7-6.9-3.2-29.6,7.5-39.5Z"/>
            <path class="st18" d="M232.8,106.1s-4.4,13.1-12.8,14.5l-15.8.7s-2.5,0-3.6-.3-4.5-1.3-8.1-5.6c-3.7-4.3-4.2-8.5-4.2-8.5l39.6-2.3,5,1.5Z"/>
            <path class="st18" d="M0,80.6c.3-9.1,1.9-18.4,5.2-19.2,0,0,.8-.2,2.1,0,0,0,0,0,.1,0,3.1,5.7,7.2,26.6,7.4,28.7.2,2.3,1.6,3.5,2.1,3.8s3.2.4,4,.5,7,1.6,7,1.6h0c0,.1,0,.1.1.1-.4,3.3-1.8,9.6-6,11.1,0,0-10.5.2-11.5.2s-2.9,0-3.5-.1c-.6-.1-3.6-1-4.8-6.5C.9,95.2-.3,89.7,0,80.6Z"/>
            <path class="st14" d="M.5,74.2c1-11.9,3.1-13.7,3.1-13.7,0,0,1.3-1.9,3-.4,3.2,2.9,8,27.6,8.2,29.9.2,2.3,1.6,3.5,2.1,3.8s3.2.4,4,.5,7,1.6,7,1.6h0c.3.2.7.3,1.1.4,7.3,1.8,30.8,7.9,30.8,7.9l1,.6h0c0-.3,0-.7-.1-1-.2-2.5-.7-7-.7-12.2-.3-7.3-.5-27.5,8.4-30.4,1.9-.6,4.9,1,6.1,2.7.6.6,1.2,1.3,1.7,2.1,1.8,2.9,6.3,15.8,8.2,25.1,2,9.3,1.9,13.8,3,15.8,1.1,2.1,2.2,4.9,8.9,5.6,1.7.2,4,.3,6.4.4,0,0,0,.2,0,.3,5.6.2,13,.1,21.8-.5l17.8-1s1.6-1.5,5.7-1.4c0,0,39-1.6,47.1-1.9,8.1-.3,35.9-.6,35.9-.6,0,0,.7,0,.9.6l6.5.5s4.6-3.5,5-6.6l-.5-2.2s2.8-8.1,1.9-12.5c0,0-3.4-7.4-3.7-10.7s-.6-8.9-2.3-10.6l-1.8-1.7-.4-6.9s-1.5-3-2.6-4.3c-1.1-1.3-3.1-2.4-3.1-2.4-2.2-3.1-5.9-7.6-11.2-9.5-5.3-2-18.8-5.3-23-6.5-4.2-1.1-9.5-4.5-11.5-6.2-2.1-1.7-21.8-16.6-27.6-19.3-5.8-2.7-12.3-5.1-18.3-5.5-2.9-.2-4.5-.2-4.5-.2,0,0-20-3.5-51-3.7-20.1-.2-26.4,1.1-26.4,1.1,0,0-.8-.3-3.6-.2-2.7,0-15.2,1.9-23.3,9.9-8.1,8.1-10.1,10.2-11.8,12.2-1.7,2-3.8,6.1-5.8,8.1-2,2.1-5.9,4.1-7,5.6-1.1,1.5-4.2,15.2-4.4,19.8,0,2.3,0,3.7-.2,5.1-.3,1.3-1,10.3-.5,12.6ZM231.8,91.1c1.5-2,10.2-4,11.5-3,1.2,1-1,9.6-2,11-1,1.4-5.6,2.5-8.1,2.6-2.5.1-4.1-1.5-4.7-3.2-.6-1.7,1.9-5.4,3.4-7.4ZM152.4,88.7s-3.2-5.7-5.6-11.6c-2.4-5.9-8.6-6.4-8.6-6.4l-6.1-1c10.2-5.9,9.7-8.6,9.7-8.6,2.6,1.5,18.1,1.6,18.1,1.6l60.5-.7s.7.4,4.6,1,6.5,8.5,6.5,8.5c-.1,2.7-3.2,14.5-3.2,14.5l-5.1,2-4.1,7.6s-2.2,3.7-5.9,4.7c-4,1.1-46.7,2-50.3.5-3.6-1.5-10.5-12.1-10.5-12.1ZM108.7,95.7c3.2-5.2,11.1-5.1,22.7-4.7,11.6.4,12.8.9,14.5,2.4,3.7,3.4,3.9,6.5,3.1,8.1-.7,1.6-6.1,3.2-9.4,3.4-3.2.1-23.1-1.4-28.3-1.5-5.2-.1-5.9-2.4-2.6-7.6Z"/>
            <path class="st28" d="M5.5,36.8c1.1-1.5,5.1-3.6,7-5.6,2-2.1,4.1-6.2,5.8-8.1,1.7-2,3.7-4.1,11.8-12.2C38.3,2.8,50.7,1,53.5,1c2.7,0,3.6.2,3.6.2,2.6.9,4.5,3.3,5.7,5.6,0,0,0,0,0,0,1.3,3,6.4,20,6.8,21-2.3.6-4,1.9-5.1,3.4-.4-1.4-.9-2.9-1.2-3.7-.5-1.4-5.3-18.3-5.9-19.5-.6-1.2-1.6-4.1-6.6-4.3-5.7-.3-14.3,4-21.2,9.1-4.3,3.2-10.3,10.1-11,11-.6.8-1.1,5.8-.7,6.8-.4.6-1,1.7-1.9,2.7-1.3,1.7-4.7,5-5,6.2,0,.2-.1.7-.3,1.4-1.8-.7-3.8-1.7-5.7-3.2.1-.4.3-.6.4-.8Z"/>
            <path class="st35" d="M.9,61.6c.3-1.3,0-2.7.2-5.1.2-4.1,2.7-15.6,4-19,1.9,1.5,3.8,2.5,5.7,3.2-.6,3.9-2,14.8-1.3,19.6.9,5.6,5.9,23.9,11.4,28.7,1.5,1.3,10,2.8,16.4,4.5,5.5,1.5,18.2,5.4,21.5,6.5l1.7,1.6s0,0,0,0c0,.8.1,1.5.2,2.1,0,.3,0,.7.1,1h0s-1-.6-1-.6c0,0-23.5-6.1-30.8-7.9-.4,0-.7-.2-1.1-.3h0c0-.1-6.2-1.6-7-1.7s-3.6-.2-4-.5-1.8-1.5-2.1-3.8c-.2-2.3-5-27-8.2-29.9-1.7-1.5-3,.4-3,.4,0,0-2.1,1.8-3,13.7-.6-2.3.1-11.2.4-12.6Z"/>
            <path class="st67" d="M55.4,63.2c.6-11.6,1.2-12,3.7-16.4,2.5-4.4,2.9-10.9,2.9-10.9,0,0,1.4-6.6,7.6-8.2.4.9,1,2.4,2.6,3.9,1,1,2.4,1.4,3.2,1.6h0s21.8,5.4,32.3,9c10.5,3.6,19.4,7.4,25.8,10.5.7.3,1.3.6,2,.9,2,1.1,5,3.3,6.2,7.6,0,0-13.4-6-17.8-7.7-4.5-1.7-13.9-5.5-19.8-5.7-6-.2-16.5,5.1-16.5,5.1,0,0-.1,1.1-5.6,3.2-5.5,2.1-7.1,2.9-7.1,2.9l-2,3.4c-1.4-1-3.2-1.6-4.5-1.2-8.9,3-8.7,23.1-8.4,30.4,0,4,.3,7.5.5,10.1l-2.4-2.2s-3.6-17.2-2.6-36.2Z"/>
            <g>
              <path class="st71" d="M60.4,101.2c0,0,0-.2,0-.3,0,0,0,.2,0,.3Z"/>
              <path class="st70" d="M60.4,100.6c0,0,0-.2,0-.2,0,0,0,.2,0,.2Z"/>
              <path class="st33" d="M60.3,99.9c0,0,0-.1,0-.2,0,0,0,.1,0,.2Z"/>
              <path class="st64" d="M60.5.7c.2,0,.3,0,.5,0-.2,0-.3,0-.5,0Z"/>
              <path class="st43" d="M59.5.8c.1,0,.3,0,.4,0-.1,0-.3,0-.4,0Z"/>
              <path class="st57" d="M61,.6c.2,0,.3,0,.5,0-.2,0-.4,0-.5,0Z"/>
              <g>
                <path class="st75" d="M18.7,31s0,0,0,0c0,0,0,0,0,0Z"/>
                <path class="st13" d="M18.9,31.1s0,0,0,0c0,0,0,0,0,0Z"/>
                <path class="st22" d="M18.4,30.9s0,0,0,0c0,0,0,0,0,0Z"/>
                <path class="st59" d="M18.3,30.8s0,0,0,0c0,0,0,0,0,0Z"/>
                <path class="st47" d="M17.9,30.6s0,0,0,0c0,0,0,0,0,0Z"/>
                <path class="st45" d="M18.1,30.7s0,0,0,0c0,0,0,0,0,0Z"/>
              </g>
              <path class="st68" d="M57,1.1s0,0,0,0c0,0,0,0,0,0Z"/>
              <path class="st81" d="M60.2,97.7s0,0,0,0c0,0,0,0,0,0Z"/>
              <path class="st63" d="M60.2,98.4s0,0,0-.1c0,0,0,0,0,.1Z"/>
              <path class="st44" d="M60.3,99.2c0,0,0-.1,0-.2,0,0,0,.1,0,.2Z"/>
              <path class="st31" d="M60.4.7c-.1,0-.3,0-.4,0,.1,0,.3,0,.4,0Z"/>
              <path class="st1" d="M57.4,1.1c0,0,.1,0,.2,0,0,0-.1,0-.2,0Z"/>
              <path class="st29" d="M57.3,1.1s0,0,.1,0c0,0,0,0-.1,0Z"/>
              <path class="st32" d="M57.2,1.1s0,0,0,0c0,0,0,0,0,0Z"/>
              <path class="st61" d="M57.1,1.1s0,0,0,0c0,0,0,0,0,0Z"/>
              <path class="st16" d="M59.1.8c.1,0,.2,0,.4,0-.1,0-.3,0-.4,0Z"/>
              <path class="st60" d="M57,1.1s0,0,0,0c0,0,0,0,0,0Z"/>
              <path class="st42" d="M58.7.9c.1,0,.2,0,.3,0-.1,0-.2,0-.3,0Z"/>
              <path class="st54" d="M57.6,1c0,0,.1,0,.2,0,0,0-.1,0-.2,0Z"/>
              <path class="st3" d="M58.4.9c0,0,.2,0,.3,0-.1,0-.2,0-.3,0Z"/>
              <path class="st72" d="M57.8,1c0,0,.1,0,.2,0,0,0-.2,0-.2,0Z"/>
              <path class="st2" d="M58.1,1c0,0,.2,0,.3,0,0,0-.2,0-.3,0Z"/>
            </g>
            <g>
              <path class="st77" d="M196.7,35c-.1,0-.2,0-.3,0,0,0,.2,0,.3,0Z"/>
              <path class="st77" d="M83.4,0c31,.3,51,3.7,51,3.7,0,0,1.6,0,4.5.2,6.1.4,12.5,2.8,18.3,5.5,5.8,2.7,25.6,17.6,27.6,19.3,2,1.7,7.2,5,11.4,6.2-3.7-.7-7.3-1.3-7.3-1.3,0,0-14-1.7-24.3-2.1-10.3-.4-26.3-1.4-39.1-.9-9.9.4-34.1,1.8-44.5,2.5l-16.1-20.4s-2-9.4-8-11.5c0,0,6.3-1.3,26.4-1.1Z"/>
            </g>
            <path class="st76" d="M108.9,95.4c0,0-.1.2-.2.3-3.2,5.2-2.6,7.5,2.6,7.6,5.2.1,25.1,1.6,28.3,1.5,3.2-.1,8.6-1.7,9.4-3.4.4-.8.5-1.9.2-3.2l11.2.8c.9.9,1.8,1.5,2.5,1.8,3.6,1.5,46.3.6,50.3-.5,3.2-.9,5.3-3.9,5.8-4.6l10.4-.9c-.8,1.4-1.2,2.8-.9,3.7.6,1.7,2.2,3.4,4.7,3.2,2.5-.1,7.1-1.2,8.1-2.6.5-.7,1.3-3.1,1.8-5.5h1.3c-.6,3.3-1.7,6.4-1.7,6.4l.5,2.2c-.4,3.2-5,6.6-5,6.6l-6.5-.5c-.2-.7-.9-.6-.9-.6,0,0-27.9.3-35.9.6-8.1.3-47.1,1.9-47.1,1.9-4.1,0-5.7,1.4-5.7,1.4l-17.8,1c-8.8.6-16.2.7-21.8.5,0,0,0-.2,0-.3-2.4,0-4.7-.2-6.4-.4-6.6-.7-7.8-3.6-8.9-5.6-1-1.8-1-5.7-2.5-13.1l24,1.7Z"/>
            <path class="st15" d="M70.7,61.2c1.5.5,2.9,1.5,3.7,2.6.6.6,1.2,1.3,1.7,2.1,1.8,2.9,6.3,15.8,8.2,25.1,1.2,5.5,1.6,9.3,2,11.9.6.5,4,2.8,22,3.3,20.5.5,81.6.6,81.6.6,0,0,35.1-1,47.2-3.6,2.5-.5,4.4-1.1,5.9-1.5l-.4-1.6s2.8-8.1,1.9-12.5c0,0-3.4-7.4-3.7-10.7s-.6-8.9-2.3-10.6c-1-1-1.5-1.4-1.6-1.6,0,0,.1.1.2.2,0,1.5-.8,3.1-2.5,3.7-2.1.7-3.1,2.8-3.1,2.8-.1,2.7-3.2,14.5-3.2,14.5l-5.1,2-4.1,7.6s-2.2,3.7-5.9,4.7c-4,1.1-46.7,2-50.3.5-3.6-1.5-10.5-12.1-10.5-12.1,0,0-3.2-5.7-5.6-11.6-2.4-5.9-8.6-6.4-8.6-6.4l-6.1-1h0s-12.2-2.3-17.6-2.7c-5.4-.4-15.2-2.4-18.6-3.7-7.1-2.6-6.3-8.7-8.2-10.5,0,0,1.6-.8,3.8-1.8l-5.5-1.8-15.2,7v5.1ZM231.8,91.1c1.5-2,10.2-4,11.5-3,1.2,1-1,9.6-2,11-1,1.4-5.6,2.5-8.1,2.6-2.5.1-4.1-1.5-4.7-3.2-.6-1.7,1.9-5.4,3.4-7.4ZM108.7,95.7c3.2-5.2,11.1-5.1,22.7-4.7,11.6.4,12.8.9,14.5,2.4,3.7,3.4,3.9,6.5,3.1,8.1-.7,1.6-6.1,3.2-9.4,3.4-3.2.1-23.1-1.4-28.3-1.5-5.2-.1-5.9-2.4-2.6-7.6Z"/>
            <path class="st80" d="M87.6,52.8s10.5-5.4,16.5-5.1,15.4,4,19.8,5.7c4.5,1.7,17.8,7.7,17.8,7.7,0,0,.9,2.4-9.7,8.6,0,0-12.2-2.3-17.6-2.7-5.4-.4-15.2-2.4-18.6-3.7-7.1-2.6-6.3-8.7-8.2-10.5Z"/>
            <path class="st80" d="M234.6,68.7c-2.1.7-3.1,2.8-3.1,2.8,0,0-2.6-7.9-6.5-8.5s-4.6-1-4.6-1c4.4.4,6.3,0,7.9-.9,1.6-.9,1.6-3.4,2.2-6.2.4-1.7,0-3.3-.3-4.4.1.2.3.4.4.6,0,0,2,1.1,3.1,2.4,1.1,1.3,2.6,4.3,2.6,4.3l.4,6.9s0,0,.4.3c0,1.5-.8,3.1-2.5,3.7Z"/>
            <path class="st8" d="M162.6,102.9c-2.1-1.6-9.2-9-13.1-19.6,0,0,0-.2,0-.2,1.6,3.3,3,5.7,3,5.7,0,0,6.9,10.6,10.5,12.1,3.6,1.5,46.3.6,50.3-.5,3.6-1,5.9-4.7,5.9-4.7l4.1-7.6,5.1-2s2.9-10.8,3.2-14.1c-.1,1.6-.7,7.7-1.7,11.5-1.2,4.3-5.5,15.4-9.4,17.8-3.9,2.4-11.8,2.6-30.8,3.1-19,.6-24.8.2-27-1.4Z"/>
            <path class="st53" d="M76.2,33.3s36.6-2.2,49.4-2.7c12.8-.5,28.8.4,39.1.9,10.3.4,24.3,2.1,24.3,2.1,0,0,3.5.7,7.3,1.3,0,0,0,0,0,0,3.4.9,12.9,3.3,19.2,5.2,1.1.5,2.1,1.1,2.8,1.6,2.9,2.2,5.6,4.3,5.9,8,.2,3.7.3,6.1-4.3,6.1-4.6,0-12.5-.4-28.4-.4-15.9,0-25.7.3-34.3.4-8.6.1-17.3,0-23.7-3.1-6.4-3.1-15.3-6.9-25.8-10.5-10.5-3.6-32.3-9-32.3-9h0c.5,0,.8.1.8.1Z"/>
            <path class="st0" d="M149.5,7.2s1.2.1,5.1,1.9,17.9,10.3,31.5,21.8l2.6,2.2.4.5s-14-1.7-24.3-2.1c-10.3-.4-26.3-1.4-39.1-.9-12.8.5-49.4,2.7-49.4,2.7,0,0-2.4-.2-4-1.7s-2.2-2.9-2.6-3.9-5.5-18-6.8-21c-.9-1.9-.8-2.1,2.2-2.4,3.1-.3,18.8-1.7,45.1-1.1,26.3.6,39.4,3.8,39.4,3.8Z"/>
            <g>
              <path class="st48" d="M225.5,63.1c0,0,.1,0,.2,0,0,0-.1,0-.2,0Z"/>
              <path class="st48" d="M225.8,63.2c0,0,.1,0,.2,0,0,0-.1,0-.2,0Z"/>
              <path class="st48" d="M225.1,63c.1,0,.2,0,.3,0-.1,0-.2,0-.3,0Z"/>
              <g>
                <path class="st58" d="M84.4,32.9c0,0-.2,0-.3,0,0,0,.2,0,.3,0Z"/>
                <path class="st50" d="M80.4,33.1c-.5,0-.9,0-1.3,0,.4,0,.8,0,1.3,0Z"/>
                <path class="st56" d="M81.8,33c-.2,0-.4,0-.6,0,.2,0,.4,0,.6,0Z"/>
                <path class="st69" d="M83.9,32.9c-.4,0-.9,0-1.3,0,.4,0,.8,0,1.3,0Z"/>
                <path class="st46" d="M76.5,33.3c0,0-.1,0-.2,0,0,0,0,0,.2,0Z"/>
                <path class="st24" d="M77.4,33.3c-.1,0-.2,0-.3,0,0,0,.2,0,.3,0Z"/>
                <path class="st19" d="M78.9,33.2c-.2,0-.4,0-.6,0,.2,0,.4,0,.6,0Z"/>
                <path class="st4" d="M80.8,33.1s0,0,0,0c0,0,0,0,0,0Z"/>
                <path class="st25" d="M85.4,32.8c-.2,0-.4,0-.6,0,.2,0,.4,0,.6,0Z"/>
                <path class="st41" d="M76.2,33.3s0,0,0,0h0s0,0,0,0Z"/>
                <path class="st74" d="M75.9,33.3s0,0,0,0c0,0,0,0,0,0Z"/>
                <path class="st55" d="M76.2,33.3s0,0,0,0c0,0,0,0,0,0Z"/>
                <path class="st62" d="M75.8,33.3s0,0,0,0c0,0,0,0,0,0Z"/>
                <path class="st30" d="M86,32.8c-.1,0-.2,0-.4,0,.1,0,.2,0,.4,0Z"/>
                <path class="st66" d="M86.9,32.7c-.1,0-.2,0-.3,0,.1,0,.2,0,.3,0Z"/>
              </g>
              <path class="st48" d="M226.1,63.4c0,0,.2.1.3.2,0,0-.2-.1-.3-.2Z"/>
              <path class="st48" d="M226.9,63.8s0,0,.1,0c0,0,0,0-.1,0Z"/>
              <polygon class="st48" points="227.1 64 227.1 64 227.1 64 227.1 64"/>
              <path class="st48" d="M230.8,51s0,0,0,0c0,0,0,0,0,0Z"/>
              <path class="st48" d="M230.7,51s0,0,0,0c0,0,0,0,0,0Z"/>
              <path class="st48" d="M230.9,51s0,0,0,0c0,0,0,0,0,0Z"/>
              <path class="st48" d="M231.4,51.4h0s0,0,0,0c0,0,0,0,0,0Z"/>
              <path class="st48" d="M226.6,63.6s0,0,.1,0c0,0,0,0-.1,0Z"/>
              <path class="st48" d="M231.1,51.2s0,0,0,0c0,0,0,0,0,0Z"/>
              <path class="st48" d="M231,51.1s0,0,0,0c0,0,0,0,0,0Z"/>
            </g>
            <g>
              <path class="st73" d="M231.5,71.3s0,0,0-.1c0,0,0,0,0,.1Z"/>
              <path class="st73" d="M229.1,66.5h0c1.2,1.9,2,4,2.3,4.8-.3-.7-1.1-2.9-2.3-4.8Z"/>
              <path class="st73" d="M231.6,71.5s0,0,0,0c0,0,0,0,0,0Z"/>
              <path class="st73" d="M236.8,64.6s0,0,0,0c0,0,0,0,0,0Z"/>
              <path class="st73" d="M231.5,71.4s0,0,0,0c0,0,0,0,0,0Z"/>
              <g>
                <path class="st73" d="M136.7,66.8s0,0,0,0c0,0,0,0,0,0Z"/>
                <path class="st73" d="M132.1,69.7c1.8-1,3.3-2,4.4-2.8-1.2.8-2.7,1.8-4.4,2.8Z"/>
              </g>
            </g>
            <path class="st77" d="M95.9,63.3c3.4,1.2,13.2,3.2,18.6,3.7,5.4.4,17.6,2.7,17.6,2.7l6.1,1s6.2.5,8.6,6.4c0,.2.2.4.3.7-3.8-3.4-4.4-3.4-9.5-5-5.1-1.6-28.6-4.6-35.4-6-6.9-1.4-7.4-1.5-10.4-4.4-3-2.9-4.1-9.6-4.1-9.6,1.9,1.9,1.1,7.9,8.2,10.5Z"/>
            <path class="st77" d="M237,64.8s0,0,0,0c.2.2.6.6,1.6,1.6.2.2.4.5.6.8-.3.4-.8.8-1.3,1.1-2.4,1.5-4.4,1.2-6,2.7,0,0,0,0,0,0,0,0,.1-.2.2-.2,0,0,0,0,0,0,0,0,.1-.1.2-.2,0,0,0,0,0,0,0,0,.2-.2.2-.3,0,0,0,0,0,0,0,0,.2-.2.2-.2,0,0,0,0,0,0,0,0,.2-.2.3-.2,0,0,0,0,0,0,.1,0,.2-.2.4-.3,0,0,0,0,.1,0,.1,0,.2-.1.3-.2,0,0,0,0,.1,0,.2,0,.3-.1.5-.2,1.7-.6,2.5-2.2,2.5-3.7,0,0-.1,0-.1-.1Z"/>
            <g>
              <path class="st77" d="M243.1,93.6c.6-2.5.8-5,.2-5.5-1.3-1-10,1-11.5,3s-4,5.6-3.4,7.4c.4,1,1,2,2,2.6-5.6-.7-1.2-8.5.2-10.6,1.6-2.4,7.2-3.7,10.7-3.9,3.5-.1,2.9,1.7,1.7,7,0,0,0,0,0,0Z"/>
              <path class="st77" d="M241.6,98.5c0,0,0-.2.1-.3,0,0,0,.2-.1.3Z"/>
            </g>
            <path class="st77" d="M111.3,103.3c3,0,10.5.6,17.2,1-9.3,0-22.7-.4-23.7-1.7-1.5-2,2.6-9.4,6.4-12,3.7-2.6,25.5-2,30.7-1.5,5.2.5,7.9,1.9,9.5,6.7,1.1,3.3-.9,4.9-2.4,5.6,0,0,0,0,0,0,.7-1.6.6-4.7-3.1-8.1-1.7-1.5-2.9-2-14.5-2.4-11.6-.4-19.5-.5-22.7,4.7-3.2,5.2-2.6,7.5,2.6,7.6Z"/>
            <path class="st21" d="M64.5,6.3c.3-.6,0-.7,2.9-1,2.9-.2,22-1.7,44.8-1.2,22.8.6,37.1,3.6,37.7,3.6.6,0,3.1,1.1,3.9,1.6.9.6,12.7,7.1,19.7,12.6,5,3.9,11.6,9.3,13.6,10.8,0,0-9-.8-27.2-1.6-1.8,0-4-.1-6.6-.1-8.8-.4-19-.7-27.7-.4-5.9.2-17,.8-27.1,1.4-12,.3-21.1.4-22.3,0-1.5-.6-3.8-1.9-5-5.1-1.2-3.2-7.1-20-6.7-20.6Z"/>
            <path class="st34" d="M67.3,5.3c2.9-.2,22-1.7,44.8-1.2,22.8.6,37.1,3.6,37.7,3.6.6,0,3.1,1.1,3.9,1.6.9.6,12.7,7.1,19.7,12.6,5,3.9,11.6,9.3,13.6,10.8,0,0-6.3-.6-19.1-1.2-9.1-5.7-24-13.9-42.3-19.8-25.2-8.2-51.9-4.5-60.6-2.9-.4-1.5-.7-2.4-.6-2.5.3-.6,0-.7,2.9-1Z"/>
            <path class="st20" d="M50.7,3.7c5.1.2,6.1,3.1,6.6,4.3.6,1.2,5.4,18.1,5.9,19.5.5,1.4,1.9,5.1,1.5,6.7-.4,1.6-3.7,4.6-7.7,5s-10.9-1.5-16.2-2.5-19.7-4.8-19.7-4.8c0,0-2.8-.8-3.3-1.2s0-6.1.7-6.9,6.6-7.7,11-11c6.8-5.1,15.4-9.4,21.2-9.1Z"/>
            <g>
              <path class="st21" d="M35.9,33.8c.3-3.3,3.6-11.3,5.9-17,1.9-4.6,4.8-10.1,5.9-12.1,2-.2,6-.6,7.9,2.9,2.1,3.7,5,14.1,5,14.1l-4.1,15.6s-3,.3-7.8-.5c-2.7-.5-8.3-1.6-12.9-2.6,0-.1,0-.3,0-.4Z"/>
              <path class="st21" d="M28.9,14.7l.3-.8c2.9-2.2,7.3-5.7,14.7-8.2.2,0,.5-.1.7-.2-1.6,2.6-4,6.7-6.6,12.2-3.3,7.1-5.1,12.9-5.8,15.6-1.8-.4-3-.7-3-.7,0,0-5-1.2-8-2,2.1-7.4,7.8-16.1,7.8-16.1Z"/>
              <path class="st21" d="M19.1,23.8c.2-.5,5-5.9,8.1-8.4-1.1,2-2.7,4.6-4.1,7.1-1.9,3.4-3.2,6.3-3.9,7.7-.3,0-.4-.1-.5-.2-.3-.2.1-5.7.3-6.3Z"/>
            </g>
            <g>
              <path class="st34" d="M42.5,15.2c1.8-4.2,4.3-8.7,5.3-10.5,2-.2,6-.6,7.9,2.9,2.1,3.7,5,14.1,5,14.1l-4.1,15.6s-1.8.2-5-.1c-.7-6-2.9-17.7-9.1-22Z"/>
              <path class="st34" d="M29.2,13.9c2.9-2.2,7.3-5.7,14.7-8.2.2,0,.5-.1.7-.2-1.2,1.9-2.9,4.7-4.7,8.4-1.2-.3-2.5-.4-4-.2-2.7.4-5,.7-6.9.8l.2-.6Z"/>
            </g>
            <path class="st18" d="M62.1,30.9c1,.3,1.2,2.5,1.2,3.2s-1.4,3.4-6,3.6c-4.6.1-18.2-1.1-19-1.5s-3.5-5.2-2.2-7.6c1.2-2.4,7.7-2.9,11.9-3,4.1,0,7.6.9,8.2,2,.6,1.1.3,5.2.3,5.2h2.2c0-.1,2.3-2.2,3.4-1.9Z"/>
            <path class="st40" d="M11.1,39.4c.3-1.2,3.7-4.5,5-6.2.8-1.1,1.5-2.1,1.9-2.7,0,0,0,.1,0,.1.5.4,3.3,1.2,3.3,1.2,0,0,14.3,3.8,19.7,4.8,5.3,1,12.3,2.9,16.2,2.5,2.8-.3,5.3-1.9,6.7-3.3-1.6,2.8-3,7.2-3.3,8.5-.4,1.5-3.3,7.1-3.3,7.1,0,0-1.6,3.2-1.6,17,.1,23.5,3.9,31.9,3.9,31.9,0,0-16-5.1-22.3-6.7-6.3-1.7-14.9-3.2-16.4-4.5-5.5-4.8-10.5-23.1-11.4-28.7-.9-5.6,1.2-19.8,1.6-21Z"/>
            <path class="st49" d="M11.1,39.4c.3-1.2,3.7-4.5,5-6.2.8-1.1,1.5-2.1,1.9-2.7,0,0,0,.1,0,.1.5.4,3.3,1.2,3.3,1.2,0,0,14.3,3.8,19.7,4.8,5.3,1,12.3,2.9,16.2,2.5,2.8-.3,5.3-1.9,6.7-3.3-1.6,2.8-3,7.2-3.3,8.5-.4,1.5-3.3,7.1-3.3,7.1,0,0-.1.3-.3,1l-46-12c0-.5.1-.8.2-1Z"/>
            <path class="st77" d="M62.3,62.1c1.4-3.9,6.5-7.1,10.6-4.6,3.2,1.9,7.6,9.7,9.1,15.1,1.5,5.4,4.3,18,4.3,30.3-.4-2.6-.8-6.4-2-11.9-2-9.3-6.5-22.2-8.2-25.1-.5-.8-1.1-1.5-1.7-2.1-1.3-1.7-4.2-3.4-6.1-2.7-8.9,3-8.7,23.1-8.4,30.4,0,0-3-14.3,2.3-29.4Z"/>
            <path class="st77" d="M7,56.9c2.1,1.6,4.1,12.4,5.4,20.8-1.7-7.5-4-15.9-5.8-17.5-1.7-1.5-3,.4-3,.4,0,0-2.1,1.9-3.1,13.8-.2-17.1,3-20.2,6.5-17.4Z"/>
            <path class="st7" d="M20.9,89.1s3.2,1.1,10.5,2.7c7.2,1.6,26.7,7.6,26.7,7.6l2.4,1.9c0,.9.2,1.8.2,2.4,0,.3,0,.7.1,1h0s-1-.6-1-.6c0,0-23.5-6.1-30.8-7.9-.4,0-.7-.2-1.1-.3h0c0-.1-6.2-1.6-7-1.7s-3.6-.2-4-.5-1.8-1.5-2.1-3.8c-.1-1-1.1-6.6-2.5-12.7l-.3-4.7c5.2,16.5,8.9,16.5,8.9,16.5Z"/>
            <path class="st12" d="M33.5,34.8c-1.7,2.9-3.8,5.6-5.4,8.5-.5,2.1-.4,4.2-.5,6.3-.4,4.3-.7,8.6-.2,12.9.6,4.9,1.6,9.7,2.3,14.7.6,3.1-.4,6.2.4,9.2,0,0,.5,1.8.5,1.8.3,1.2.6,2.4.8,3.7-.9-1.7-1.6-3.4-2.2-5.2-1-3,0-6.4-.7-9.3-.8-4.8-2-9.7-2.6-14.7-.5-4.4-.1-8.8.4-13.1.1-2.2.1-4.5.8-6.6,1.8-3,4.2-5.5,6.4-8.1h0Z"/>
            <g>
              <path class="st38" d="M16.7,40.6c.4.2.4,1,.2,1.3s-.8,1-1,1-1.4-.8-1.8-.8-.6.3-.8.2-.9-.4-1-1.1.6-1.5.9-1.6,2.7.5,3.7.9Z"/>
              <path class="st27" d="M35.7,45.1s.7.7.7.9-.3,1.2-.6,1.5-1.4.6-1.4.6c0,0-1.6-1.1-2.4-1.1,0,0-.1.2-.4.4s-1.4,0-2-.9.2-2.2,1-2.6,1.8,0,1.8,0c0,0,.4.8,3.2,1.2Z"/>
            </g>
            <g class="st9">
              <path class="st39" d="M16.7,40.6c.4.2.4,1,.2,1.3s-.8,1-1,1-1.4-.8-1.8-.8-.6.3-.8.2-.9-.4-1-1.1.6-1.5.9-1.6,2.7.5,3.7.9Z"/>
              <path class="st78" d="M35.7,45.1s.7.7.7.9-.3,1.2-.6,1.5-1.4.6-1.4.6c0,0-1.6-1.1-2.4-1.1,0,0-.1.2-.4.4s-1.4,0-2-.9.2-2.2,1-2.6,1.8,0,1.8,0c0,0,.4.8,3.2,1.2Z"/>
            </g>
            <path class="st65" d="M91.6,52c-.5,1.5-.6,2.6,3.1,3.4,3.7.7,4.4,1.6,6.5,2.5,2.1.9,6,5.9,11.5,6,5.5.1,6.4-4.9,9.5-6.1,2.1-.9,10.5.6,15.5,1.6,2.4,1.1,4.1,1.8,4.1,1.8,0,0,.9,2.4-9.7,8.6,0,0-12.2-2.3-17.6-2.7-5.4-.4-15.2-2.4-18.6-3.7-7.1-2.6-6.3-8.7-8.2-10.5,0,0,1.8-.9,4.3-2,0,.5-.2.9-.3,1.2Z"/>
            <path class="st65" d="M226.8,63.7l6.5-1.8c1.7.7,2.7.2,3.3-.7l.2,3.3s0,0,.4.3c0,1.5-.8,3.1-2.5,3.7-2.1.7-3.1,2.8-3.1,2.8,0,0-1.9-5.6-4.8-7.7Z"/>
            <path class="st52" d="M36.8,29c-.3,0-.6-.2-.8-.3,0,0,0-.1,0-.2,1.2-2.4,7.7-2.9,11.9-3,4.1,0,7.6.9,8.2,2,.6,1.1.3,5.2.3,5.2h2.2c0-.1,2.3-2.2,3.4-1.9.2,0,.4.3.6.5-.1.5-.4,1-1,1.3-2,1.1-2.4,1.6-5.2,1.6-2.9,0-14.9-.7-18.5-3.2,0,0,7.5,2.5,13.6,2,3.1-.2,2.5-3.7,2.5-3.7,0,0-10.7,1.6-17.2-.4Z"/>
            <g>
              <path class="st26" d="M135.6,53.5c-.7-.3-1.4-.5-2-.9,0,0,.8.2,2,.9Z"/>
              <path class="st36" d="M135.6,53.5c6.2,2.3,14,2.4,21.7,2.3,8.6-.1,18.4-.4,34.3-.4,15.9,0,23.8.4,28.4.4,4.6,0,4.6-2.4,4.3-6.1-.2-3.7-3-5.8-5.9-8-.7-.6-1.7-1.1-2.8-1.6-.2,0-.5-.1-.7-.2h0c1.8.5,3.3,1,4.5,1.5,5.3,2,9,6.5,11.2,9.5-.1-.2-.3-.4-.4-.6.4,1.1.7,2.8.3,4.4-.6,2.9-.6,5.4-2.2,6.2-1.6.9-3.5,1.4-7.9.9l-60.5.7s-15.5-.1-18.1-1.6c-1.3-4.3-4.2-6.5-6.2-7.6Z"/>
            </g>
            <g>
              <ellipse class="st77" cx="70.9" cy="94.2" rx="8.4" ry="26.6" transform="translate(-.2 .2) rotate(-.2)"/>
              <ellipse class="st18" cx="72.8" cy="93.4" rx="6.5" ry="22.5" transform="translate(-.2 .2) rotate(-.2)"/>
              <g>
                <path class="st51" d="M63.4,81.8"/>
                <path class="st5" d="M70.4,87.6c.3,1.7.6,2.9.6,3.5,0,1-1.6-.6-1.6-.6-2.2-1.7-5-6.8-6-8.7,0,0,1.9,1.9,3.3,1.9,0,0,2.5,3.3,3.7,3.9Z"/>
              </g>
              <g>
                <path class="st51" d="M65.1,113.5c0,.3.2.6.3.8-.1-.3-.2-.6-.3-.8Z"/>
                <path class="st5" d="M68.9,105.2c1.6-6.9,2.8-7,3.1-6.7.2.3,0,5.9,0,5.9,0,0-3,5.3-2.2,7.7.4,1.3.6,1.7.7,1.9-.5,0-2.9,0-3.7,2.8v.7c-.1,0-.1,0-.1-.1.3-2.5,1-7.4,2.1-12.2Z"/>
                <path class="st51" d="M65.4,114.4c.4,1.1.9,2.2,1.4,3-.5-.9-.9-1.9-1.4-3Z"/>
                <path class="st51" d="M64.8,112.6c0,.3.2.5.2.8,0-.3-.2-.5-.2-.8Z"/>
                <path class="st51" d="M64.5,111.6c0,.2.1.4.2.6,0-.2-.1-.4-.2-.6Z"/>
              </g>
              <path class="st14" d="M70.2,94.4c-.5-.3-5.5-3.3-7.7-5.3.2-2.6.4-5.1.8-7.4,1,1.9,3.7,7,6,8.7,0,0,1.6,1.6,1.6.6,0-1-.9-4.2-1.3-8.6-.3-3.6-.8-11.4-1-14.1.7-.5,1.4-.8,2.1-.8s.6,0,1,.2c-.5,3-1.5,12,.5,23.1l.4.7s1.4-3.9,5.8-9.1c.5,3.4.8,7.2.9,11.2-.6,0-1.8,0-2.9.9,0,0,1,2.5,0,4.5l-.4.7s-.8,6.2,1,8.9c.3.4.5.8.7,1.1-.9,4.1-2.3,7.4-3.8,9.2-.5-2.9-2-12.2-1.9-14.7,0,0,.2-5.6,0-5.9-.2-.3-1.5-.2-3.1,6.7-1.1,4.8-1.8,9.7-2.1,12.2-1-1.7-1.8-4.1-2.5-6.8,1.2-3.1,4.8-11.9,6.2-13.7.3-.4.3-2.1-.2-2.4Z"/>
              <path class="st5" d="M72.8,96.4c.3-.7.4-2.2.4-2.2.7-1.2,4.4-2.4,6.1-2.8,0,.8,0,1.6,0,2.4-.6,0-1.8,0-2.9.9,0,0,1,2.5,0,4.5l-.4.7s-.8,6.2,1,8.9c.3.4.5.8.7,1.1-.4,1.7-.8,3.2-1.3,4.5,0,0,0-.2,0-.2-3.7-9.2-3.5-17.8-3.5-17.8Z"/>
              <path class="st5" d="M73.3,82c.3,2.8,1.5,3.9,2.3,4.3-2.2,3.2-2.9,5.3-2.9,5.3l-.4-.7c-2-11.1-1-20.1-.5-23.1.6,1.6,2.9,4.3,2.9,4.3-1.8,2.3-1.8,5.8-1.4,9.9Z"/>
            </g>
            <g>
              <ellipse class="st77" cx="5.3" cy="82.9" rx="3.4" ry="18.4" transform="translate(-.2 0) rotate(-.2)"/>
              <ellipse class="st18" cx="6" cy="82.3" rx="2.6" ry="15.6" transform="translate(-.2 0) rotate(-.2)"/>
              <g>
                <path class="st51" d="M2.2,74.3"/>
                <path class="st5" d="M5.1,78.3c.1,1.2.2,2,.2,2.4,0,.7-.7-.4-.7-.4-.9-1.2-2-4.7-2.4-6,0,0,.8,1.3,1.3,1.3,0,0,1,2.3,1.5,2.7Z"/>
              </g>
              <g>
                <path class="st51" d="M3,96.2c0,.2,0,.4.1.6,0-.2,0-.4-.1-.6Z"/>
                <path class="st5" d="M4.5,90.5c.6-4.8,1.1-4.8,1.2-4.6,0,.2,0,4.1,0,4.1,0,0-1.2,3.7-.9,5.4.2.9.3,1.2.3,1.3-.2,0-1.2,0-1.5,1.9v.5s0,0,0,0c.1-1.7.4-5.1.8-8.4Z"/>
                <path class="st51" d="M3.1,96.8c.2.8.4,1.5.5,2.1-.2-.6-.4-1.3-.5-2.1Z"/>
                <path class="st51" d="M2.8,95.6c0,.2,0,.4,0,.5,0-.2,0-.4,0-.5Z"/>
                <path class="st51" d="M2.7,94.9c0,.1,0,.3,0,.4,0-.1,0-.3,0-.4Z"/>
              </g>
              <path class="st14" d="M5,83c-.2-.2-2.2-2.3-3.1-3.6,0-1.8.2-3.5.3-5.1.4,1.3,1.5,4.8,2.4,6,0,0,.6,1.1.7.4s-.4-2.9-.5-6c-.1-2.5-.3-7.9-.4-9.7.3-.4.5-.6.8-.6s.3,0,.4.1c-.2,2.1-.6,8.3.2,16v.5c.1,0,.7-2.7,2.4-6.3.2,2.4.3,5,.4,7.8-.2,0-.7,0-1.1.7,0,0,.4,1.7,0,3.1l-.2.5s-.3,4.3.4,6.2c.1.3.2.6.3.8-.4,2.9-.9,5.1-1.5,6.4-.2-2-.8-8.4-.8-10.2,0,0,0-3.9,0-4.1,0-.2-.6-.1-1.2,4.6-.4,3.3-.7,6.7-.8,8.4-.4-1.2-.7-2.8-1-4.7.5-2.2,1.9-8.2,2.5-9.5.1-.3.1-1.4,0-1.7Z"/>
              <path class="st5" d="M6,84.4c.1-.5.2-1.6.2-1.6.3-.8,1.8-1.6,2.4-1.9,0,.6,0,1.1,0,1.7-.2,0-.7,0-1.1.7,0,0,.4,1.7,0,3.1l-.2.5s-.3,4.3.4,6.2c.1.3.2.6.3.8-.1,1.1-.3,2.2-.5,3.1,0,0,0-.1,0-.2-1.5-6.4-1.4-12.3-1.4-12.3Z"/>
              <path class="st5" d="M6.2,74.4c.1,1.9.6,2.7.9,3-.9,2.2-1.2,3.7-1.2,3.7v-.5c-.9-7.7-.6-13.9-.4-16,.2,1.1,1.2,3,1.2,3-.7,1.6-.7,4-.6,6.9Z"/>
            </g>
          </g>
        </g>
        <polyline class="st23" points="701 319 670.5 460 103.4 468.4 53.9 263.5 111.3 58.3 122.2 57.7 242.9 169.3 228.4 61.1 234.3 60.1"/>
      </g>
    </g>
  </g>
</svg>