<?xml version="1.0" encoding="UTF-8"?>
<svg xmlns="http://www.w3.org/2000/svg" version="1.1" xmlns:xlink="http://www.w3.org/1999/xlink" viewBox="0 0 257.2 141.8">
  <!-- Generator: Adobe Illustrator 29.7.1, SVG Export Plug-In . SVG Version: 2.1.1 Build 8)  -->
  <defs>
    <style>
      .st0 {
        fill: url(#linear-gradient2);
      }

      .st1 {
        fill: url(#linear-gradient10);
      }

      .st2 {
        fill: #b4b8c0;
      }

      .st3 {
        fill: url(#linear-gradient21);
      }

      .st4 {
        fill: #3c3952;
      }

      .st5 {
        fill: #474162;
      }

      .st6, .st7 {
        fill: #211e3a;
      }

      .st8 {
        fill: url(#linear-gradient1);
      }

      .st9 {
        opacity: .7;
      }

      .st9, .st10 {
        fill: #261f46;
      }

      .st11 {
        fill: url(#linear-gradient9);
      }

      .st12 {
        fill: #6451f6;
      }

      .st13 {
        fill: url(#linear-gradient18);
      }

      .st14 {
        fill: url(#linear-gradient8);
      }

      .st15 {
        fill: #cfcaf6;
        opacity: .6;
      }

      .st16 {
        fill: url(#linear-gradient11);
      }

      .st17 {
        fill: #191d32;
      }

      .st18 {
        fill: #4b495f;
      }

      .st19 {
        fill: #ce2948;
      }

      .st20 {
        fill: url(#linear-gradient16);
      }

      .st21 {
        fill: url(#radial-gradient);
        mix-blend-mode: screen;
      }

      .st22 {
        fill: url(#linear-gradient22);
      }

      .st23 {
        isolation: isolate;
      }

      .st7 {
        mix-blend-mode: multiply;
      }

      .st24 {
        fill: url(#linear-gradient19);
      }

      .st25 {
        fill: url(#linear-gradient12);
      }

      .st26 {
        fill: #920e38;
      }

      .st27 {
        fill: url(#linear-gradient7);
      }

      .st28 {
        fill: url(#linear-gradient20);
      }

      .st29 {
        fill: url(#linear-gradient4);
      }

      .st30 {
        fill: #f23851;
      }

      .st31 {
        fill: url(#linear-gradient14);
      }

      .st32 {
        fill: url(#linear-gradient5);
      }

      .st33 {
        fill: url(#linear-gradient3);
      }

      .st34 {
        fill: url(#linear-gradient15);
      }

      .st35 {
        fill: url(#linear-gradient17);
      }

      .st36 {
        fill: url(#linear-gradient6);
      }

      .st37 {
        fill: url(#linear-gradient13);
      }

      .st38 {
        fill: url(#linear-gradient);
      }
    </style>
    <linearGradient id="linear-gradient" x1="-20.2" y1="79.3" x2="75.5" y2="79.3" gradientTransform="translate(83.2) rotate(-180) scale(1 -1)" gradientUnits="userSpaceOnUse">
      <stop offset="0" stop-color="#191d32"/>
      <stop offset=".2" stop-color="#1e2337"/>
      <stop offset=".5" stop-color="#2f3448"/>
      <stop offset=".8" stop-color="#4b5062"/>
      <stop offset=".9" stop-color="#606677"/>
    </linearGradient>
    <linearGradient id="linear-gradient1" x1="-85" y1="107.3" x2="-84.1" y2="84.8" gradientTransform="translate(83.2) rotate(-180) scale(1 -1)" gradientUnits="userSpaceOnUse">
      <stop offset="0" stop-color="#191d32"/>
      <stop offset=".5" stop-color="#606677"/>
    </linearGradient>
    <linearGradient id="linear-gradient2" x1="-62.7" y1="23.3" x2="-25.4" y2="126.4" gradientTransform="translate(83.2) rotate(-180) scale(1 -1)" gradientUnits="userSpaceOnUse">
      <stop offset="0" stop-color="#ffda9e"/>
      <stop offset="1" stop-color="#8f6a2e"/>
    </linearGradient>
    <linearGradient id="linear-gradient3" x1="-83" y1="31.8" x2="-83" y2="61.1" xlink:href="#linear-gradient2"/>
    <linearGradient id="linear-gradient4" x1="-88.3" y1="28.9" x2="-88.8" y2="64.9" xlink:href="#linear-gradient2"/>
    <linearGradient id="linear-gradient5" x1="-79.4" y1="19.3" x2="-80.1" y2="3.4" xlink:href="#linear-gradient2"/>
    <linearGradient id="linear-gradient6" x1="-143" y1="78.8" x2="-57.8" y2="78.8" gradientTransform="translate(83.2) rotate(-180) scale(1 -1)" gradientUnits="userSpaceOnUse">
      <stop offset="0" stop-color="#8f6a2e"/>
      <stop offset="1" stop-color="#ffda9e"/>
    </linearGradient>
    <linearGradient id="linear-gradient7" x1="22.4" y1="41.5" x2="31.8" y2="-3.4" xlink:href="#linear-gradient1"/>
    <linearGradient id="linear-gradient8" x1="-12.6" y1="65.3" x2="60.5" y2="67.8" xlink:href="#linear-gradient2"/>
    <linearGradient id="linear-gradient9" x1="48.6" y1="47" x2="58" y2="2.2" xlink:href="#linear-gradient1"/>
    <linearGradient id="linear-gradient10" x1="66.6" y1="41" x2="51.9" y2="42.1" gradientTransform="translate(83.2) rotate(-180) scale(1 -1)" gradientUnits="userSpaceOnUse">
      <stop offset="0" stop-color="#d08d42"/>
      <stop offset="1" stop-color="#593c02"/>
    </linearGradient>
    <linearGradient id="linear-gradient11" x1="-103.1" y1="2.8" x2="-12.7" y2="2.8" xlink:href="#linear-gradient6"/>
    <linearGradient id="linear-gradient12" x1="-.7" y1="36.6" x2="8.8" y2="-8.2" xlink:href="#linear-gradient1"/>
    <linearGradient id="linear-gradient13" x1="18.9" y1="40.7" x2="28.4" y2="-4.1" xlink:href="#linear-gradient1"/>
    <linearGradient id="linear-gradient14" x1="40" y1="102.9" x2="40" y2="74.3" xlink:href="#linear-gradient1"/>
    <linearGradient id="linear-gradient15" x1="60.2" y1="103.4" x2="30.1" y2="104.8" xlink:href="#linear-gradient"/>
    <linearGradient id="linear-gradient16" x1="14.7" y1="51.3" x2="19.3" y2="51.3" gradientTransform="translate(83.2) rotate(-180) scale(1 -1)" gradientUnits="userSpaceOnUse">
      <stop offset="0" stop-color="#593c02"/>
      <stop offset="1" stop-color="#d08d42"/>
    </linearGradient>
    <linearGradient id="linear-gradient17" x1="16.5" y1="53.1" x2="17.4" y2="49.9" xlink:href="#linear-gradient"/>
    <linearGradient id="linear-gradient18" x1="41.4" y1="57.1" x2="45.1" y2="57.1" xlink:href="#linear-gradient16"/>
    <linearGradient id="linear-gradient19" x1="42.8" y1="58.9" x2="43.7" y2="55.7" xlink:href="#linear-gradient"/>
    <linearGradient id="linear-gradient20" x1="61.8" y1="59.6" x2="60" y2="82.1" xlink:href="#linear-gradient1"/>
    <linearGradient id="linear-gradient21" x1="1.1" y1="101" x2="10.6" y2="101" gradientTransform="translate(83.2) rotate(-180) scale(1 -1)" gradientUnits="userSpaceOnUse">
      <stop offset="0" stop-color="#93a1b1"/>
      <stop offset="1" stop-color="#5e738b"/>
    </linearGradient>
    <linearGradient id="linear-gradient22" x1="66.8" y1="90.1" x2="71.1" y2="90.1" xlink:href="#linear-gradient21"/>
    <radialGradient id="radial-gradient" cx="-98.3" cy="38.5" fx="-98.3" fy="38.5" r="49.2" gradientTransform="translate(83.1 30.3) rotate(179.7) scale(1 -.2)" gradientUnits="userSpaceOnUse">
      <stop offset="0" stop-color="#96aba0"/>
      <stop offset=".3" stop-color="#5b6861"/>
      <stop offset=".6" stop-color="#2a302d"/>
      <stop offset=".9" stop-color="#0b0d0c"/>
      <stop offset="1" stop-color="#000"/>
    </radialGradient>
  </defs>
  <g class="st23">
    <g id="Capa_1">
      <g>
        <path class="st9" d="M219.6,124.3s30.2,5.8,30.4,8.2-48.8,6.4-57.2,6.6c-8.4.2-72.9,3.3-93.5.9-20.6-2.4-74.2-21.1-81.8-22.6s-7.5-2.2-8.2-3.3,11.7-3.3,25.9-3.5c14.2-.2,39.4,0,39.4,0,0,0,46.8,1.5,55.8,2.4s59.6,8.6,74,10.4c14.4,1.8,15.3.9,15.3.9Z"/>
        <path class="st17" d="M238.2,103.5s-1.6,9.5-4.9,14.2c-3.3,4.7-7.1,7.3-10.6,7.5s-15.1.7-15.1.7c0,0-5.8-.7-9.7-5.8-3.8-5.1-5.6-10.2-6.2-13.7s8.2-5.1,8.2-5.1l27-.2,11.3,2.4Z"/>
        <path class="st38" d="M103.3,69.4l-2.7,34.6-44.5-.7-37.3-4-11.1-18.9s-.9-14,4.7-15.7,70.5-10.2,70.5-10.2l20.4,14.9Z"/>
        <path class="st7" d="M238.6,89.6c.7,2.7,2.2,3.1,2.9,3.1,0-1.5,0-9.6,0-11.3,0,1.8,0,3.1,0,3.1-.4-11.9-3.6-10.2-3.6-10.2,0,0,0,11.7.8,15.2Z"/>
        <path class="st8" d="M92.5,68.8l1.7,28.6.7,11.9,18.9.3,11.8-.5,2-.8,107.5-3.1,2.5-.5,3.1-9.4.8-2.3v-.2c0,0,0,0,0-.2-.6,0-2.2-.4-2.9-3.1-.9-3.5-.8-15.2-.8-15.2,0,0,3.2-1.7,3.6,10.2,0,0,0-1.3,0-3.1,0,0,0,0,0-.1-.1-1.6-.5-2.6-.5-4.6s-2.2-4.3-2.2-4.3l-37.9-8.7-108.3,5.2Z"/>
        <g>
          <path class="st0" d="M7.4,86.1s.5-19.1,3.8-20.5c3.4-1.4,5.1,7.3,6.5,13.8,1.1,5.2,3.3,18.5,3.3,18.5v1.8s.6.2.6.2l42.1,6.3s-.3-4-.6-8.8c0-.4-.1-.8-.1-1.2-.2-1.4-.3-3-.4-4.6,0-.2,0-.4,0-.6,0-.2,0-.5,0-.7,0-.3,0-.5,0-.8,0-.2,0-.4,0-.5,0-.5,0-.9,0-1.4,0-.5,0-1.1,0-1.6.4-18.4,5.4-22.2,6.1-23,.7-.8,4.5-4,10.1,0,5.6,3.9,12.3,33.8,12.6,34.3.1.2,1.3.3,2.9.3s4,0,5.3,0c2.4,0,21.3-.6,25.9-.9,4.6-.3,8.9-4.9,11.8-6.7,2.9-1.8,9.6-1.4,9.6-1.4l80.1-1.4c6.8.2,6.4,4.8,9,6.6,1.7,1.2,4.1.3,5.6-.5.1,0,.2-.1.4-.2v-.2s-.1,0-.3,0c-.6,0-2.2-.4-2.9-3.1-.9-3.5-.8-15.2-.8-15.2,0,0,3.2-1.7,3.6,10.2,0,0,0-1.3,0-3.1,0-2.7,0-6.4-.4-8-.2-.9-1.5-1.7-1.9-2.3-1.1-2.2-1.2-6.3-1.3-7.3,0-1-1.9-4.5-2.4-6.5-.5-2-.8-5.9-1.7-8-.9-2.1-3.4-5.8-3.4-5.8,0,0,1.1-1,1.1-1.5s-2-4-5.6-5.7c-5-2.3-8.2-2.8-12.5-10,0,0-8.2-12.8-9.3-14.7-1.1-1.9-2.2-3.3-4.5-4.2-2.3-.9-11.3-4-25.9-4.7-14.6-.7-29-1.5-41.9-1.7-12.9-.3-34,1.2-39.8,1.6-5.8.5-21.2,4.1-32.6,10.6-11.4,6.5-29.1,31.8-29.1,31.8,0,0-8.1,6-11,9.4-2.3,2.6-7.3,7.9-8.7,9-1.4,1.1-4.3,12.2-3.3,22.7Z"/>
          <path class="st15" d="M62.9,86c0,0,0-.1,0-.2,0,0,0,.1,0,.2Z"/>
          <path class="st15" d="M62.9,85.6c0,0,0-.1,0-.2,0,0,0,.1,0,.2Z"/>
          <path class="st15" d="M62.9,86.4c0,0,0-.1,0-.2,0,0,0,.1,0,.2Z"/>
          <path class="st15" d="M62.9,87.8s0,0,0,0c0,0,0,0,0,0Z"/>
          <path class="st15" d="M62.9,86.9c0,0,0-.1,0-.2,0,0,0,.1,0,.2Z"/>
          <path class="st15" d="M62.9,85.1c0,0,0-.1,0-.2,0,0,0,.1,0,.2Z"/>
          <path class="st15" d="M62.9,87.4c0,0,0-.1,0-.2,0,0,0,.1,0,.2Z"/>
          <path class="st15" d="M63.1,83.2s0,0,0-.1c0,0,0,0,0,.1Z"/>
          <path class="st15" d="M63.1,83.6c0,0,0-.1,0-.2,0,0,0,.1,0,.2Z"/>
          <path class="st15" d="M63,84.7c0,0,0-.1,0-.2,0,0,0,.1,0,.2Z"/>
          <path class="st15" d="M62.9,88.8s0,0,0,.1c0,0,0,0,0-.1Z"/>
          <path class="st15" d="M63,84c0,0,0-.1,0-.2,0,0,0,.1,0,.2Z"/>
          <path class="st15" d="M63,84.3c0,0,0-.1,0-.2,0,0,0,.1,0,.2Z"/>
          <path class="st15" d="M62.9,90c0,0,0-.1,0-.2,0,0,0,.1,0,.2Z"/>
          <path class="st15" d="M63,94.2s0,0,0,0c0,0,0,0,0,0Z"/>
          <path class="st15" d="M63,93.7s0,0,0-.1c0,0,0,0,0,.1Z"/>
          <path class="st15" d="M63.1,82.9s0,0,0-.1c0,0,0,0,0,.1Z"/>
          <path class="st15" d="M63.2,82.6s0,0,0-.1c0,0,0,0,0,.1Z"/>
          <path class="st15" d="M62.9,93.2s0,0,0-.1c0,0,0,0,0,.1Z"/>
          <path class="st15" d="M62.9,90.5c0,0,0-.1,0-.2,0,0,0,.1,0,.2Z"/>
          <path class="st15" d="M62.9,91.1c0,0,0-.1,0-.2,0,0,0,.1,0,.2Z"/>
          <path class="st15" d="M62.9,88.3h0s0,0,0,0Z"/>
          <path class="st15" d="M62.9,89.5c0,0,0-.1,0-.2,0,0,0,.1,0,.2Z"/>
          <path class="st15" d="M62.9,92.6c0,0,0-.1,0-.2,0,0,0,.1,0,.2Z"/>
          <path class="st15" d="M62.9,91.6c0,0,0-.1,0-.2,0,0,0,.1,0,.2Z"/>
          <path class="st15" d="M62.9,92.1c0,0,0-.1,0-.2,0,0,0,.1,0,.2Z"/>
        </g>
        <path class="st33" d="M97.6,39.5s.6-2.2,13.1-2.6c12.5-.4,25.7-.2,30.4,0,4.7,0,50.4,1.2,60,1.3,8.2,0,23.3.6,28.2.8,1.4,1.5,2.1,2.9,2.1,3.2s-1.1,1.5-1.1,1.5c0,0,2.5,3.7,3.4,5.8.9,2.1,1.2,6,1.7,8,.5,2,2.4,5.5,2.4,6.5-1.4.7-8.4,1.8-27.6,1.7-19.2,0-79.7.2-90.1-.5s-18.5-1.8-23.2-11.1l-2.6-4.4,3.3-10Z"/>
        <path class="st29" d="M171.1,30.7c35.5.4,41,.7,42.6-3.8,4.1,6.7,7.3,7.2,12.2,9.5.1,0,.3.1.4.2.4.4,1.4.8,1.7,1.1,2,1.8,2.4,2.5,2.4,2.5l-1.6,2.8s.6,8.7.5,10.5c-.2,1.7.8,7.4-.3,8.6s-1.1,1.3-2.7,1.3-54.2.2-54.2.2c0,0-31.1.4-36,.2-4.9-.2-9.4-1.5-11.3-6-1.9-4.6-5.4-16.6-5.4-16.6l.9-1.5s-1.6-1.7-2.6-3.2c-.9-1.5-3.7-5.2-4.6-8.4-.8-3.2-.6-4.4-.6-4.4,0,0,21.1,6.7,58.5,7.1Z"/>
        <path class="st6" d="M171.1,30.7c-37.3-.5-58.5-7.1-58.5-7.1,0,0,0-8.6,3.8-12.2,3.7-3.6,14.1-4.8,28.6-4.2,14.5.6,24.9,1,33,1.9,8.1.9,14.2,1.5,16.2,2.3,3.6,1.5,19.2,15,19.2,15l.2.8c-1.8,4.1-7.9,3.9-42.5,3.5Z"/>
        <path class="st32" d="M116.9,6.7c3.5-1.7,16.1-3.3,28.7-3.5,12.6-.2,36.6,1.4,43.1,2.4,6.5,1,11.3,3.4,12.8,4.1,1.5.7,11.4,15.9,11.4,15.9h-.6c-3.6-3.1-15.1-12.9-18.1-14.1-2-.8-8.1-1.4-16.2-2.3-8.1-.9-18.5-1.3-33-1.9-14.5-.6-24.9.5-28.6,4.2-3.7,3.6-3.8,12.2-3.8,12.2-1.6-14.5.8-15.2,4.3-16.9Z"/>
        <path class="st36" d="M146.7,88.3s-2.9-.2-5.8.2c1.6-1.7,4-4,4.7-4.6,1-.8,1.1-1.6,7.2-8,6.1-6.4,9.5-6.5,20.3-6.7l28.7-.2c6.6.2,8.7.5,11.5,2.2,2.7,1.6,8.2,10.7,8.2,10.7,1.7,2.3,3.4,3.9,4.7,5l-79.4,1.4Z"/>
        <path class="st27" d="M89.2,11.9c.7,4.3-.5,13.8-.5,13.8l-.2.7s-6.8,3.1-10.8,5.9c-4,2.8-9.7,5.3-13.1,6.3-3.5,1-24.2,8.1-24.2,8.1,0,0-9.6,3.6-10.4,3.6s-1.5.5-2.1-.5c0,0,8.3-12.3,10.3-14.7s9.6-12.3,16.3-16.9c6.7-4.6,7.8-5.6,16.3-8,8.5-2.4,17.6-3.6,18.4,1.6Z"/>
        <path class="st4" d="M34.2,48.4l4.4-12.7c0-.1.2-.2.2-.3,2-2.4,9.3-11.8,16-16.5,6.7-4.6,7.3-5.4,15.8-7.7,8.5-2.4,17.1-4.2,17.9,1.1.7,4.3-.4,13.2-.4,13.2v.3c0,0-6.8,3.2-10.8,6-4,2.8-9.6,5.2-13,6.2-3.5,1-24.1,8.4-24.1,8.4,0,0-3.3,1.3-6.1,2.3v-.2Z"/>
        <path class="st6" d="M38.6,35.6c0-.1.2-.2.2-.3,2-2.4,9.3-11.8,16-16.5,6.7-4.6,7.3-5.4,15.8-7.7,8.5-2.4,17.1-4.2,17.9,1.1,0,.1,0,.3,0,.5-7.2,0-24.5,1-34.4,12.5-6.6,7.8-6.5,13.8-4.8,17.8-5,1.8-9.2,3.3-9.2,3.3,0,0-3.3,1.3-6.1,2.3v-.2s4.4-12.7,4.4-12.7Z"/>
        <path class="st14" d="M23.7,59.2c1.1-2.5,3.5-6.1,5.3-8.7.3,0,.6-.1,1-.2.8,0,10.4-3.6,10.4-3.6,0,0,20.8-7.1,24.2-8.1,3.5-1,9.1-3.5,13.1-6.3,4-2.8,10.8-5.9,10.8-5.9l.2-.7s-.5,6-2.9,8.2c-2.4,2.2-6.7,3.5-9.8,9.1-3.1,5.6-7.3,17.7-9.5,22.2-.2.5-.4,1-.7,1.7-1.5,3.2-3.1,8.9-3.3,19.1,0,.5,0,1.1,0,1.6,0,.5,0,.9,0,1.4,0,.2,0,.4,0,.5,0,.3,0,.5,0,.8,0,.2,0,.5,0,.7,0,.2,0,.4,0,.6,0,1.6.2,3.2.4,4.6,0,.4,0,.8.1,1.2.2,4.8.6,8.8.6,8.8l-38-5.7-.5-4.3s-3.3-32.6-1.5-37Z"/>
        <path class="st11" d="M27.9,49.8s8.3-12.3,10.3-14.7c.2-.3.6-.7,1-1.2l-5,14.4-.2.7c-2,.7-3.7,1.3-4,1.3-.8,0-1.5.5-2.1-.5Z"/>
        <path class="st1" d="M17.2,42.7c-.2-.7.1-2,2-3.8,3.2-3.1,10.1-3.2,11.3-2.6s.7,2.8.6,5.5c0,1.1-.2,1.9-.4,2.4h.2s2.7-.7,2.7-.7l-.7,3.8h-3.8c-2.5.3-6,0-7.9-.4-1.9-.4-3.2-2-3.6-2.8-.4-.8-.5-1.5-.5-1.5Z"/>
        <path class="st16" d="M120.3,4.2c-.9,0-1.8.2-2.5.4-2.1-.5-10.9-2.2-21.9-2.3,8.5-.6,25.1-1.6,36-1.4,12.9.3,27.3,1,41.9,1.7,4.8.2,9,.7,12.6,1.3-6.4-.5-15-1.1-25.3-1.5-24.5-1.1-34.5,1-40.7,1.6Z"/>
        <path class="st4" d="M116.5,11.4c1-1,2.5-1.8,4.5-2.5.8,8.5,3.3,11,8.4,13.1,5.5,2.3,44.7,3.3,53.9,3.6,9.2.3,19.3-.2,21.7-2.7,1-1.1-.2-3.2-2-5.2,5.1,4.1,10.4,8.7,10.4,8.7l.2.8c-1.8,4.1-7.9,3.9-42.5,3.5-37.3-.5-58.5-7.1-58.5-7.1,0,0,0-8.6,3.8-12.2Z"/>
        <g>
          <path class="st12" d="M87.8,9.4l-10.6,23.3c-1.1.7-2.2,1.4-3.4,2.1l12.8-26c.5.2.9.4,1.2.7Z"/>
          <path class="st25" d="M77.2,32.7c-1.1.7-2.2,1.4-3.4,2.1l12.8-26c.5.2.9.4,1.2.7"/>
          <path class="st12" d="M67.4,11.2c1-.3,2.1-.6,3.4-1,.3,0,.5-.2.8-.2h0s-4.3,6.1-9.3,16.5c-3.5,7.3-5.3,12.5-6.1,14.8-1.7.6-3.6,1.2-5.4,1.8.6-1.7,2.6-7.5,8-17.7,3.1-5.9,6.2-10.8,8.5-14.3Z"/>
          <path class="st37" d="M67.4,11.2c1-.3,2.1-.6,3.4-1,.3,0,.5-.2.8-.2h0s-4.3,6.1-9.3,16.5c-3.5,7.3-5.3,12.5-6.1,14.8-1.7.6-3.6,1.2-5.4,1.8.6-1.7,2.6-7.5,8-17.7,3.1-5.9,6.2-10.8,8.5-14.3Z"/>
        </g>
        <path class="st31" d="M61,93.7c-.3,4-1.1,4.9-1.1,4.9,0,0-5.6,0-12.3-.4-6.5-.4-21.4-1.9-22.4-2,.3-3.9,2-8.1,7.3-9.4,11-2.7,17.9-2.5,23.3-.8,2.2.7,3.9,2.7,5.3,4.8,0,1.2-.1,2.2-.2,2.8Z"/>
        <path class="st17" d="M72.7,67.8c1.3-.2,5.5-.2,5.5-.2,3,3.8,5,10.6,7,16.9,3.1,9.5,7.9,26.1,7.9,26.1h2.1c0,0,9.3-.5,9.3-.5-.2,2.9-.8,8.4-2.5,11.9-2.4,4.9-4.7,8.6-7.5,9.5-2.7.9-18,.9-18.6,1.1s-3.2-1-5.5-3.3-4.6-4-6.4-16.6h0s0-.4,0-.4c-.1-1.1-.3-2.2-.4-3.3,0-.9-.1-1.7-.2-2.6-3.5-37.1,8-38.2,9.3-38.4Z"/>
        <path class="st6" d="M7.4,86.1s.5-19.1,3.8-20.5c3.4-1.4,5.1,7.3,6.5,13.8,1.1,5.2,3.3,18.5,3.3,18.5v1.8s.6.2.6.2l41.8,6.2c-.7-7-.8-12.7-.5-17.4,0-2.7.1-5.1.4-6.6,1.1-5.6,2.8-17.3,9.4-17.6,2.2,0,4,1.1,5.5,3h0c3,3.8,5,10.6,7,16.9,3.1,9.5,7.9,26.1,7.9,26.1h2.1c0,0,20.3-.9,20.3-.9,0,0,14.9-14.8,21.2-17,6.3-2.3,23-1.6,51.4-2.3,28.3-.6,36.3-.8,36.3-.8,0,0,9.6-.7,10.7,15.8h3.4c0,0,2.6-5.4,2.7-9.8l.5-.4v-2.1c-1.4.8-4,1.9-5.9.7-2.6-1.8-2.2-6.5-9-6.7l-80.1,1.4s-6.7-.5-9.6,1.4c-2.9,1.8-7.3,6.5-11.8,6.7-4.6.3-23.5.9-25.9.9s-7.8.3-8.1-.2-6.9-30.3-12.6-34.3c-5.6-3.9-9.4-.7-10.1,0-.3.3-1.2,1.1-2.2,2.9,0,0-.2.2-.3.3-4.4,5.3-4.9,23.5-5.2,27.5s-1.1,4.9-1.1,4.9c0,0-5.6,0-12.3-.4-6.7-.5-22.4-2-22.4-2l-3.3,1.8s-.5-3.2-2.7-16.3c-2.2-13.1-4.3-18-6.6-18.6-.8-.2-1.5,0-2,.4-1.4,1.6-4.1,12.4-3.2,22.6ZM62.6,91c0,.2,0,.4,0,.6,0,0,0,0,0,0,0-.2,0-.4,0-.6h0ZM62.5,89.5c0,.1,0,.3,0,.4,0-.1,0-.3,0-.4,0,0,0,0,0,0Z"/>
        <path class="st17" d="M8,77.2c.3-2.3.8-4.3,1.5-5.6,2.1-3.7,2.3-4,3.3-4h1.6c1.5,2.8,2.5,7.7,3.3,11.8,1.1,5.2,3.3,18.5,3.3,18.5v1.8s.6.2.6.2l10.7,1.6v1.3c0,0-.7,7.3-4.4,8.7-1.1.4-13.6.6-13.6.6,0,0-1.6-.4-2.3-1.2-.7-.9-2.4-3.1-3.3-8.7-.6-3.5-1.4-12.2-1.2-19.7,0-1.5.2-3.4.4-5.4Z"/>
        <path class="st34" d="M21,99.8l42.4,6.4s0,0,0,0c0,.9.1,1.7.2,2.6l-43.5-7.7.9-1.4Z"/>
        <path class="st6" d="M30,37.1c-.7-.3-4.1-.6-7.1.5s-3.6,1.9-3.9,3.5.8,3.9,6.7,4.3c3.9.2,4.8-1,4.9-2.4s.7-5.3-.5-5.9Z"/>
        <path class="st7" d="M111.5,75c-1.3.5-2.6,12-.1,17.3,1.1,2.3,3.9,1.8,3.9,1.8,0,0-2.7-1.3-1.9-15.6.1-2.3,1.1-2.8,1.1-2.8,0,0-1.4-1.2-2.9-.6Z"/>
        <path class="st5" d="M52.3,43.6s-7.2,6.2-8.7,15.8c-1.6,9.6-.1,24.9-.1,24.9,0,0-1.9,3.2-1.6,7.8l.4,4.6s-.2-5.5.7-8.7l1-3.3s-1.8-17.3.1-25.3c2.7-11.3,8.3-15.8,8.3-15.8Z"/>
        <path class="st18" d="M22.2,37.9c.2,0,.4-.2.7-.3,3-1.1,6.4-.8,7.1-.5,1.2.6.6,4.5.5,5.9,0,.3,0,.5-.1.7-2.1-3.6-5.6-5.2-8.2-5.9Z"/>
        <path class="st20" d="M63.9,51.4c0,2.3,0,4.3,1.4,4.3s3.2-2.6,3.2-4.9.3-3.7-1.2-3.7-3.4,2-3.4,4.4Z"/>
        <path class="st35" d="M69.8,49c.7.2,0,3-.6,3.4s-1.5,0-1.5,0c0,0-3.4,0-3.8,1.1,0,0-.9.4-1.6-.7s0-2.1.8-2.7,4.7-1.6,6.7-1.1Z"/>
        <path class="st13" d="M38,57.1c0,1.9,0,3.4,1.1,3.4s2.6-2.1,2.6-4,.2-3-1-3-2.7,1.6-2.7,3.5Z"/>
        <path class="st24" d="M42.8,55.2c.6.2,0,2.4-.5,2.7s-1.2,0-1.2,0c0,0-2.7,0-3.1.9,0,0-.7.3-1.3-.6s0-1.7.7-2.2,3.8-1.3,5.4-.9Z"/>
        <path class="st28" d="M23.9,58.9s-3.1.3-3.8.9-1.2,15.8,1.7,19.5c.6.8,1-1.1,1-1.1,0,0-1-7.8-.5-12.4.7-5.8,1.5-6.9,1.5-6.9Z"/>
        <g>
          <ellipse class="st2" cx="74.8" cy="101" rx="8.2" ry="24.3"/>
          <ellipse class="st5" cx="75.4" cy="100.8" rx="6.8" ry="21.5"/>
          <path class="st10" d="M72.6,101.3c0-10.2,2.5-18.4,5.6-18.4s.7.1,1.1.3c1.7,3.9,2.9,10.3,2.9,17.6s-1.4,15.1-3.5,18.8c-.2,0-.3,0-.5,0-3.1,0-5.6-8.2-5.6-18.4Z"/>
          <path class="st3" d="M73.8,113c.8,3,1.8,5.3,3,6.2-.4-1.1-1.9-6.5.7-7.5,1.4-.5,2.3,1.1,3,3.1.4-1.5.7-3.2,1-5-.4-.8-.8-2.3-.5-4.8.2-1.5.6-2.4,1.1-3,0-.4,0-.8,0-1.2,0-1.9,0-3.7-.2-5.5-.4,0-1.1-.5-2-2.1-1.4-2.7-.3-7.9-.1-8.7-.2-.5-.4-.9-.6-1.4-.3-.2-.7-.3-1.1-.3s-.3,0-.4,0c-.3,3.7-.7,9-1.5,10.1-2.2,2.9-2.8-.2-2.8-.2v-.6c-.5,2.3-.8,5-.8,7.9l.5-.7s1.3,1.8,1.7,3.3c.4,1.4.5,3.5.4,4.2-.1.7-1,5.2-1.1,5.9,0,.1,0,.2-.2.3ZM75.7,101.4c0-3.5.9-6.4,2.1-6.4s2.1,2.9,2.1,6.4c0,3.5-.9,6.4-2.1,6.4s-2.1-2.9-2.1-6.4Z"/>
        </g>
        <g>
          <ellipse class="st2" cx="13" cy="90.1" rx="3.7" ry="16.6"/>
          <ellipse class="st5" cx="13.3" cy="90" rx="3" ry="14.7"/>
          <path class="st10" d="M12,90.3c0-6.9,1.1-12.6,2.5-12.6s.3,0,.5.2c.8,2.6,1.3,7,1.3,12,0,5.5-.6,10.3-1.6,12.8,0,0-.1,0-.2,0-1.4,0-2.5-5.6-2.5-12.6Z"/>
          <path class="st22" d="M12.6,98.3c.3,2.1.8,3.6,1.3,4.2-.2-.7-.9-4.4.3-5.1.6-.4,1,.8,1.3,2.1.2-1,.3-2.2.5-3.4-.2-.6-.3-1.6-.2-3.3,0-1,.3-1.7.5-2,0-.3,0-.5,0-.8,0-1.3,0-2.5-.1-3.7-.2,0-.5-.3-.9-1.4-.6-1.8-.1-5.4,0-5.9,0-.3-.2-.6-.2-.9-.2-.1-.3-.2-.5-.2s-.1,0-.2,0c-.1,2.6-.3,6.2-.7,6.9-1,2-1.2-.2-1.2-.2v-.4c-.2,1.6-.3,3.4-.4,5.4l.2-.5s.6,1.2.8,2.2c.2,1,.2,2.4.2,2.9,0,.5-.4,3.5-.5,4,0,0,0,.1,0,.2ZM13.4,90.4c0-2.4.4-4.4.9-4.4s.9,2,.9,4.4-.4,4.4-.9,4.4-.9-2-.9-4.4Z"/>
        </g>
        <path class="st21" d="M171.2,31c35.5.4,41,.7,42.6-3.8,4.1,6.7,7.3,7.2,12.2,9.5.1,0,.3.1.4.2.4.4.7.8.9,1.2.5,1.4,2.1,3.7,2.1,3.7l-.5,1.5s.6,8.7.5,10.5c-.2,1.7.8,7.4-.3,8.6s-1.1,1.3-2.7,1.3-54.2.2-54.2.2c0,0-31.1.4-36,.2-4.9-.2-9.4-1.5-11.3-6-1.9-4.6-5.4-16.6-5.4-16.6l.9-1.5s-1.6-1.7-2.6-3.2c-.9-1.5-3.7-5.2-4.6-8.4-.8-3.2-.6-4.4-.6-4.4,0,0,21.1,6.7,58.5,7.1Z"/>
        <path class="st26" d="M216.4,39.4c6.7.1,9.7.4,12,.5,1,0,1.7.2,2.1.2.7.9,1,1.6,1,1.9,0,.5-1.1,1.5-1.1,1.5,0,0,2.5,3.7,3.4,5.8.4.8.6,2,.8,3.2-.2.3-.4.6-.5.7-.6.3-5.5.5-8.4.6-2.9,0-5-2.2-8-4.4-3-2.2-7.5-4.6-9.2-5.2-1.6-.7-15-.6-16.3-.9-1.3-.3-3.7-3.8-3.5-4.1.2-.2,20.9.1,27.6.2Z"/>
        <path class="st26" d="M176.4,39.1c.2-.5-24.9-.9-33.7-1.1-8.8-.2-20.1-.4-24.7-.2-4.6.2-19.5.9-22,1.5s-4.6,1.1-3.8,4.3,2.2,7.4,5.5,7.7c3.6.4,23,1.4,24.9,1.5s9.8.4,11,0c8.9-3.4,14.8-7.7,18.2-8.8,4.8-1.5,17.3-.7,19.5-.8s3.4.3,5.1-4.1Z"/>
        <path class="st19" d="M142.2,38c2.6.4,4.4.8,4.7,1.3,1.1,1.6-10.7,10.4-16.1,10.7-5.5.3-26.5-1.1-30.1-2.5-2.3-.9-2-5.4-1.5-8.5,5.4-.5,15.2-1,18.7-1.1,4.5-.2,15.5,0,24.2.2Z"/>
        <path class="st30" d="M231.3,42.4c-.3.5-1,1.1-1,1.1,0,0,2.5,3.7,3.4,5.8.2.4.3.9.5,1.4-3.3.2-7.3.4-9.7,0-4.6-.5-12.6-8.2-11.8-9,.6-.6,11.8.2,18.5.7Z"/>
      </g>
    </g>
  </g>
</svg>