<?xml version="1.0" encoding="UTF-8"?>
<svg id="Capa_1" xmlns="http://www.w3.org/2000/svg" version="1.1" xmlns:xlink="http://www.w3.org/1999/xlink" viewBox="0 0 600 1200">
  <!-- Generator: Adobe Illustrator 29.8.2, SVG Export Plug-In . SVG Version: 2.1.1 Build 3)  -->
  <defs>
    <style>
      .st0 {
        fill: url(#Degradado_sin_nombre_6);
      }

      .st1 {
        fill: url(#Degradado_sin_nombre_44);
      }

      .st2 {
        fill: #555a75;
      }

      .st3 {
        fill: #f4cebb;
      }

      .st4 {
        fill: #fff;
      }

      .st5 {
        fill: #768194;
      }

      .st6 {
        fill: url(#Degradado_sin_nombre_43);
      }

      .st7 {
        fill: none;
      }

      .st8 {
        fill: url(#Degradado_sin_nombre_46);
      }

      .st9 {
        fill: #6e738c;
      }

      .st10 {
        fill: url(#Degradado_sin_nombre_41);
      }

      .st11 {
        fill: #7f7386;
      }

      .st12 {
        fill: #83869f;
      }

      .st13 {
        fill: url(#Degradado_sin_nombre_7);
      }

      .st14 {
        fill: #b7aab4;
      }

      .st15 {
        fill: #aeb3c3;
      }

      .st16 {
        display: none;
      }

      .st17 {
        fill: #4f556b;
      }

      .st18 {
        fill: #4e5a75;
      }

      .st19 {
        fill: url(#Degradado_sin_nombre_39);
      }

      .st20 {
        fill: #b5bfcd;
      }

      .st21 {
        fill: url(#Degradado_sin_nombre_40);
      }

      .st22 {
        fill: url(#Degradado_sin_nombre_8);
      }

      .st23 {
        fill: url(#Degradado_sin_nombre_42);
      }

      .st24 {
        clip-path: url(#clippath);
      }

      .st25 {
        fill: #383652;
      }
    </style>
    <clipPath id="clippath">
      <rect class="st7" width="600" height="1200"/>
    </clipPath>
    <linearGradient id="Degradado_sin_nombre_6" data-name="Degradado sin nombre 6" x1="-27.78" y1="-573.73" x2="781.67" y2="-545.47" gradientTransform="translate(0 1147.89)" gradientUnits="userSpaceOnUse">
      <stop offset="0" stop-color="#8a889b"/>
      <stop offset=".65" stop-color="#565d74"/>
      <stop offset="1" stop-color="#3f4963"/>
    </linearGradient>
    <linearGradient id="Degradado_sin_nombre_7" data-name="Degradado sin nombre 7" x1="-30.4" y1="-611.69" x2="702.6" y2="-611.69" gradientTransform="translate(0 1147.89)" gradientUnits="userSpaceOnUse">
      <stop offset="0" stop-color="#9187a0"/>
      <stop offset="1" stop-color="#a0a7b8"/>
    </linearGradient>
    <linearGradient id="Degradado_sin_nombre_8" data-name="Degradado sin nombre 8" x1="-91.4" y1="-292.64" x2="771" y2="-292.64" gradientTransform="translate(0 1147.89)" gradientUnits="userSpaceOnUse">
      <stop offset="0" stop-color="#a7a5b9"/>
      <stop offset="1" stop-color="#8d8a99"/>
    </linearGradient>
    <linearGradient id="Degradado_sin_nombre_39" data-name="Degradado sin nombre 39" x1="104.41" y1="-405.15" x2="141.45" y2="124.55" gradientTransform="translate(0 1147.89)" gradientUnits="userSpaceOnUse">
      <stop offset="0" stop-color="#e5dad2"/>
      <stop offset="1" stop-color="#89b8cc"/>
    </linearGradient>
    <linearGradient id="Degradado_sin_nombre_40" data-name="Degradado sin nombre 40" x1="61.4" y1="-417.52" x2="-474.43" y2="-314.16" gradientTransform="translate(0 1147.89)" gradientUnits="userSpaceOnUse">
      <stop offset="0" stop-color="#e5dad2"/>
      <stop offset="1" stop-color="#89b8cc"/>
    </linearGradient>
    <linearGradient id="Degradado_sin_nombre_41" data-name="Degradado sin nombre 41" x1="-244.71" y1="-607.03" x2="-314.47" y2="-327.23" gradientTransform="translate(0 1147.89)" gradientUnits="userSpaceOnUse">
      <stop offset="0" stop-color="#e58557"/>
      <stop offset="1" stop-color="#f4d1a6"/>
    </linearGradient>
    <linearGradient id="Degradado_sin_nombre_42" data-name="Degradado sin nombre 42" x1="-486.4" y1="-395.54" x2="-62.9" y2="-395.54" gradientTransform="translate(0 1147.89)" gradientUnits="userSpaceOnUse">
      <stop offset="0" stop-color="#8d8a99"/>
      <stop offset="1" stop-color="#a7a5b9"/>
    </linearGradient>
    <linearGradient id="Degradado_sin_nombre_43" data-name="Degradado sin nombre 43" x1="-486.4" y1="-406.54" x2="-62.9" y2="-406.54" gradientTransform="translate(0 1147.89)" gradientUnits="userSpaceOnUse">
      <stop offset="0" stop-color="#544c5e"/>
      <stop offset="1" stop-color="#6a6374"/>
    </linearGradient>
    <linearGradient id="Degradado_sin_nombre_44" data-name="Degradado sin nombre 44" x1="-240.09" y1="-605.19" x2="-260.23" y2="-565.66" gradientTransform="translate(0 1147.89)" gradientUnits="userSpaceOnUse">
      <stop offset="0" stop-color="#714151"/>
      <stop offset="1" stop-color="#b47660"/>
    </linearGradient>
    <linearGradient id="Degradado_sin_nombre_46" data-name="Degradado sin nombre 46" x1="-186.45" y1="-355.16" x2="-184.01" y2="-327.3" gradientTransform="translate(0 1147.89)" gradientUnits="userSpaceOnUse">
      <stop offset="0" stop-color="#3d4361"/>
      <stop offset="1" stop-color="#aeb3c3"/>
    </linearGradient>
  </defs>
  <g class="st24">
    <g>
      <g>
        <g class="st16">
          <path class="st4" d="M-57.8,774c82.6-.7,143.1-.9,197.6-11.2,19.2-3.6,41.3-7.7,67.7-18.7,27.7-11.6,59.9-30.9,97.6-66.8,34.6-33,72.2-73,109.9-114.6,114.5-126.2,226.1-266.7,226.1-266.7h20.5c-.8,1.8-30.9,43.7-87.7,105.7-72.1,78.7-175.6,190.6-255.7,270.7-29.7,29.7-67.3,56.3-100.1,70.5-22.4,9.7-41.4,15.4-59.7,19.1-55.1,10.9-117.7,14.2-198.8,12.4l-17.4-.4h0Z"/>
          <g>
            <g>
              <polygon class="st20" points="632.2 305.9 633.3 306 633.5 333.9 632.3 333.9 632.2 305.9"/>
              <polygon class="st4" points="632.2 305.9 632.3 333.9 629.6 335 629.5 308.8 632.2 305.9"/>
            </g>
            <g>
              <polygon class="st20" points="598.6 347.2 599.7 347.3 599.9 372.4 598.7 372.4 598.6 347.2"/>
              <polygon class="st4" points="598.6 347.2 598.7 372.4 596 373.5 595.9 350 598.6 347.2"/>
            </g>
            <g>
              <polygon class="st20" points="570.9 380.9 571.9 381 572.4 404.4 571.3 404.3 570.9 380.9"/>
              <polygon class="st4" points="570.9 380.9 571.3 404.3 568.8 405.4 568.4 383.6 570.9 380.9"/>
            </g>
            <g>
              <polygon class="st20" points="545 412 546 412 546.4 433.2 545.4 433.2 545 412"/>
              <polygon class="st4" points="545 412 545.4 433.2 543.1 434.2 542.7 414.4 545 412"/>
            </g>
            <g>
              <polygon class="st20" points="522.4 439 523.2 439 523.6 458.5 522.7 458.4 522.4 439"/>
              <polygon class="st4" points="522.4 439 522.7 458.4 520.6 459.4 520.2 441.2 522.4 439"/>
            </g>
            <g>
              <polygon class="st20" points="502.8 461.9 503.6 462 504 480.1 503.1 480 502.8 461.9"/>
              <polygon class="st4" points="502.8 461.9 503.1 480 501.2 480.9 500.9 463.9 502.8 461.9"/>
            </g>
            <g>
              <polygon class="st20" points="485.8 481.9 486.5 482 486.8 497.9 486 497.9 485.8 481.9"/>
              <polygon class="st4" points="485.8 481.9 486 497.9 484.3 498.6 484.1 483.9 485.8 481.9"/>
            </g>
            <g>
              <polygon class="st20" points="470.1 500 470.8 500.1 471.1 515.6 470.4 515.6 470.1 500"/>
              <polygon class="st4" points="470.1 500 470.4 515.6 468.7 516.3 468.4 501.7 470.1 500"/>
            </g>
            <g>
              <polygon class="st20" points="456.5 515.5 457.2 515.5 457.5 529.8 456.8 529.8 456.5 515.5"/>
              <polygon class="st4" points="456.5 515.5 456.8 529.8 455.2 530.5 455 517.1 456.5 515.5"/>
            </g>
            <g>
              <polygon class="st20" points="443.2 530.8 443.8 530.8 444 543.9 443.4 543.9 443.2 530.8"/>
              <polygon class="st4" points="443.2 530.8 443.4 543.9 442 544.5 441.8 532.2 443.2 530.8"/>
            </g>
            <g>
              <polygon class="st20" points="431.3 544.1 431.9 544.1 432.1 556.6 431.6 556.5 431.3 544.1"/>
              <polygon class="st4" points="431.3 544.1 431.6 556.5 430.2 557.1 430 545.5 431.3 544.1"/>
            </g>
            <g>
              <polygon class="st20" points="419.9 556.7 420.5 556.8 420.7 568.8 420.2 568.8 419.9 556.7"/>
              <polygon class="st4" points="419.9 556.7 420.2 568.8 418.8 569.3 418.7 558.2 419.9 556.7"/>
            </g>
            <g>
              <polygon class="st20" points="410 567.7 410.5 567.8 410.7 579.2 410.2 579.2 410 567.7"/>
              <polygon class="st4" points="410 567.7 410.2 579.2 409 579.7 408.8 569.1 410 567.7"/>
            </g>
            <g>
              <polygon class="st20" points="400.8 577.8 401.3 577.9 401.5 588.2 401 588.2 400.8 577.8"/>
              <polygon class="st4" points="400.8 577.8 401 588.2 399.9 588.7 399.7 579 400.8 577.8"/>
            </g>
            <g>
              <polygon class="st20" points="392.4 587 392.8 587 393 597.3 392.6 597.3 392.4 587"/>
              <polygon class="st4" points="392.4 587 392.6 597.3 391.4 597.8 391.3 588.3 392.4 587"/>
            </g>
            <g>
              <polygon class="st20" points="384.7 595.4 385.1 595.4 385.3 605.2 384.9 605.2 384.7 595.4"/>
              <polygon class="st4" points="384.7 595.4 384.9 605.2 383.8 605.6 383.7 596.5 384.7 595.4"/>
            </g>
            <g>
              <polygon class="st20" points="377.3 603.3 377.7 603.3 377.9 612.6 377.5 612.5 377.3 603.3"/>
              <polygon class="st4" points="377.3 603.3 377.5 612.5 376.4 613 376.3 604.4 377.3 603.3"/>
            </g>
            <g>
              <polygon class="st20" points="370 611.1 370.4 611.2 370.6 619.9 370.2 619.8 370 611.1"/>
              <polygon class="st4" points="370 611.1 370.2 619.8 369.2 620.3 369 612.2 370 611.1"/>
            </g>
            <g>
              <polygon class="st20" points="363.8 617.6 364.2 617.7 364.4 626.5 364 626.5 363.8 617.6"/>
              <polygon class="st4" points="363.8 617.6 364 626.5 363 626.9 362.9 618.7 363.8 617.6"/>
            </g>
            <g>
              <polygon class="st20" points="357.6 624.2 358 624.2 358.2 633.3 357.8 633.3 357.6 624.2"/>
              <polygon class="st4" points="357.6 624.2 357.8 633.3 356.8 633.7 356.6 625.2 357.6 624.2"/>
            </g>
            <g>
              <polygon class="st20" points="351.9 630.1 352.3 630.2 352.4 638.9 352 638.9 351.9 630.1"/>
              <polygon class="st4" points="351.9 630.1 352 638.9 351.1 639.3 351 631.1 351.9 630.1"/>
            </g>
            <g>
              <polygon class="st20" points="346.2 636 346.6 636 346.7 645 346.3 645 346.2 636"/>
              <polygon class="st4" points="346.2 636 346.3 645 345.4 645.4 345.3 636.9 346.2 636"/>
            </g>
            <g>
              <polygon class="st20" points="341 641.4 341.3 641.4 341.5 650.1 341.1 650.1 341 641.4"/>
              <polygon class="st4" points="341 641.4 341.1 650.1 340.2 650.5 340 642.2 341 641.4"/>
            </g>
            <g>
              <polygon class="st20" points="336 646.4 336.4 646.5 336.6 655.1 336.2 655.1 336 646.4"/>
              <polygon class="st4" points="336 646.4 336.2 655.1 335.3 655.4 335.1 647.4 336 646.4"/>
            </g>
            <g>
              <polygon class="st20" points="331.1 651.4 331.5 651.4 331.6 661.2 331.3 661.2 331.1 651.4"/>
              <polygon class="st4" points="331.1 651.4 331.3 661.2 330.4 661.5 330.3 652.2 331.1 651.4"/>
            </g>
            <g>
              <polygon class="st20" points="326.9 655.6 327.3 655.7 327.4 664.9 327 664.9 326.9 655.6"/>
              <polygon class="st4" points="326.9 655.6 327 664.9 326.2 665.3 326.1 656.4 326.9 655.6"/>
            </g>
            <g>
              <polygon class="st20" points="322.7 659.9 323 659.9 323.2 669.3 322.8 669.3 322.7 659.9"/>
              <polygon class="st4" points="322.7 659.9 322.8 669.3 322 669.7 321.9 660.7 322.7 659.9"/>
            </g>
            <g>
              <polygon class="st20" points="318.7 663.8 319 663.8 319.2 673 318.8 672.9 318.7 663.8"/>
              <polygon class="st4" points="318.7 663.8 318.8 672.9 318 673.3 317.9 664.5 318.7 663.8"/>
            </g>
            <g>
              <polygon class="st20" points="314.8 667.6 315.2 667.6 315.3 676.7 315 676.7 314.8 667.6"/>
              <polygon class="st4" points="314.8 667.6 315 676.7 314.2 677 314.1 668.3 314.8 667.6"/>
            </g>
            <g>
              <polygon class="st20" points="311.1 671.3 311.4 671.3 311.5 681.4 311.2 681.4 311.1 671.3"/>
              <polygon class="st4" points="311.1 671.3 311.2 681.4 310.4 681.7 310.3 671.9 311.1 671.3"/>
            </g>
            <g>
              <polygon class="st20" points="307.5 674.6 307.8 674.6 308 684.3 307.7 684.3 307.5 674.6"/>
              <polygon class="st4" points="307.5 674.6 307.7 684.3 307 684.6 306.9 675.3 307.5 674.6"/>
            </g>
            <g>
              <polygon class="st20" points="303.9 678.2 304.1 678.2 304.3 687.2 304 687.2 303.9 678.2"/>
              <polygon class="st4" points="303.9 678.2 304 687.2 303.3 687.4 303.2 678.8 303.9 678.2"/>
            </g>
            <g>
              <polygon class="st20" points="300.7 681.2 300.9 681.2 301.1 690.1 300.8 690.1 300.7 681.2"/>
              <polygon class="st4" points="300.7 681.2 300.8 690.1 300.1 690.4 300 681.8 300.7 681.2"/>
            </g>
            <g>
              <polygon class="st20" points="297.1 684.5 297.3 684.5 297.4 692.8 297.2 692.8 297.1 684.5"/>
              <polygon class="st4" points="297.1 684.5 297.2 692.8 296.5 693 296.5 685.1 297.1 684.5"/>
            </g>
            <g>
              <polygon class="st20" points="294 687.3 294.3 687.3 294.4 695.5 294.1 695.5 294 687.3"/>
              <polygon class="st4" points="294 687.3 294.1 695.5 293.5 695.7 293.4 687.8 294 687.3"/>
            </g>
            <g>
              <polygon class="st20" points="287.8 692.8 288.1 692.8 288.2 700.4 287.9 700.4 287.8 692.8"/>
              <polygon class="st4" points="287.8 692.8 287.9 700.4 287.3 700.7 287.3 693.3 287.8 692.8"/>
            </g>
            <g>
              <polygon class="st20" points="284.7 695.4 285 695.4 285.1 702.9 284.8 702.9 284.7 695.4"/>
              <polygon class="st4" points="284.7 695.4 284.8 702.9 284.3 703.1 284.2 695.8 284.7 695.4"/>
            </g>
            <g>
              <polygon class="st20" points="282 697.7 282.2 697.7 282.3 705.4 282.1 705.3 282 697.7"/>
              <polygon class="st4" points="282 697.7 282.1 705.3 281.5 705.6 281.5 698.1 282 697.7"/>
            </g>
            <g>
              <polygon class="st20" points="278.9 700.2 279.1 700.2 279.2 707.5 279 707.5 278.9 700.2"/>
              <polygon class="st4" points="278.9 700.2 279 707.5 278.5 707.7 278.4 700.7 278.9 700.2"/>
            </g>
            <g>
              <polygon class="st20" points="275.9 702.6 276.1 702.7 276.2 709.4 276 709.4 275.9 702.6"/>
              <polygon class="st4" points="275.9 702.6 276 709.4 275.5 709.6 275.4 703.1 275.9 702.6"/>
            </g>
            <g>
              <polygon class="st20" points="273.3 704.7 273.5 704.7 273.6 711.1 273.4 711.1 273.3 704.7"/>
              <polygon class="st4" points="273.3 704.7 273.4 711.1 272.9 711.3 272.9 705.1 273.3 704.7"/>
            </g>
            <g>
              <polygon class="st20" points="270.7 706.7 270.9 706.7 271 713.1 270.8 713.1 270.7 706.7"/>
              <polygon class="st4" points="270.7 706.7 270.8 713.1 270.3 713.3 270.3 707.1 270.7 706.7"/>
            </g>
            <g>
              <polygon class="st20" points="268 708.7 268.2 708.7 268.3 715 268.1 715 268 708.7"/>
              <polygon class="st4" points="268 708.7 268.1 715 267.6 715.2 267.5 709.1 268 708.7"/>
            </g>
            <g>
              <polygon class="st20" points="265.5 710.6 265.7 710.6 265.8 716.6 265.6 716.6 265.5 710.6"/>
              <polygon class="st4" points="265.5 710.6 265.6 716.6 265.1 716.8 265.1 710.9 265.5 710.6"/>
            </g>
            <g>
              <polygon class="st20" points="263 712.5 263.2 712.5 263.2 718.2 263.1 718.2 263 712.5"/>
              <polygon class="st4" points="263 712.5 263.1 718.2 262.6 718.4 262.6 712.7 263 712.5"/>
            </g>
            <g>
              <polygon class="st20" points="260.2 714.5 260.4 714.5 260.4 719.8 260.3 719.8 260.2 714.5"/>
              <polygon class="st4" points="260.2 714.5 260.3 719.8 259.9 720 259.8 714.8 260.2 714.5"/>
            </g>
            <g>
              <polygon class="st20" points="255.2 717.9 255.3 718 255.4 723.1 255.3 723.1 255.2 717.9"/>
              <polygon class="st4" points="255.2 717.9 255.3 723.1 254.9 723.3 254.8 718.2 255.2 717.9"/>
            </g>
            <g>
              <polygon class="st20" points="257.7 716.2 257.8 716.2 257.9 721.3 257.7 721.3 257.7 716.2"/>
              <polygon class="st4" points="257.7 716.2 257.7 721.3 257.4 721.5 257.3 716.5 257.7 716.2"/>
            </g>
            <g>
              <polygon class="st20" points="252.8 719.5 253 719.5 253.1 724.6 252.9 724.6 252.8 719.5"/>
              <polygon class="st4" points="252.8 719.5 252.9 724.6 252.5 724.8 252.5 719.8 252.8 719.5"/>
            </g>
            <g>
              <polygon class="st20" points="250.5 721.1 250.6 721.1 250.7 726 250.5 726 250.5 721.1"/>
              <polygon class="st4" points="250.5 721.1 250.5 726 250.2 726.1 250.1 721.3 250.5 721.1"/>
            </g>
            <g>
              <polygon class="st20" points="248 722.6 248.2 722.7 248.2 727.5 248.1 727.5 248 722.6"/>
              <polygon class="st4" points="248 722.6 248.1 727.5 247.7 727.7 247.7 722.9 248 722.6"/>
            </g>
            <g>
              <polygon class="st20" points="245.6 724.2 245.8 724.2 245.8 728.7 245.7 728.7 245.6 724.2"/>
              <polygon class="st4" points="245.6 724.2 245.7 728.7 245.3 728.8 245.3 724.4 245.6 724.2"/>
            </g>
            <g>
              <polygon class="st20" points="243.4 725.6 243.5 725.6 243.6 729.8 243.4 729.8 243.4 725.6"/>
              <polygon class="st4" points="243.4 725.6 243.4 729.8 243.1 729.9 243.1 725.8 243.4 725.6"/>
            </g>
            <g>
              <polygon class="st20" points="241.3 726.8 241.5 726.8 241.5 731.2 241.4 731.1 241.3 726.8"/>
              <polygon class="st4" points="241.3 726.8 241.4 731.1 241.1 731.3 241 727 241.3 726.8"/>
            </g>
            <g>
              <polygon class="st20" points="239.1 728.2 239.2 728.2 239.2 732.5 239.1 732.5 239.1 728.2"/>
              <polygon class="st4" points="239.1 728.2 239.1 732.5 238.8 732.6 238.8 728.4 239.1 728.2"/>
            </g>
            <g>
              <polygon class="st20" points="236.9 729.5 237 729.5 237 733.7 236.9 733.7 236.9 729.5"/>
              <polygon class="st4" points="236.9 729.5 236.9 733.7 236.6 733.8 236.6 729.6 236.9 729.5"/>
            </g>
            <g>
              <polygon class="st20" points="234.8 730.6 234.9 730.7 235 734.6 234.8 734.6 234.8 730.6"/>
              <polygon class="st4" points="234.8 730.6 234.8 734.6 234.5 734.7 234.5 730.8 234.8 730.6"/>
            </g>
            <g>
              <polygon class="st20" points="232.9 731.7 233 731.7 233.1 735.6 232.9 735.6 232.9 731.7"/>
              <polygon class="st4" points="232.9 731.7 232.9 735.6 232.7 735.7 232.6 731.9 232.9 731.7"/>
            </g>
            <g>
              <polygon class="st20" points="230.7 732.9 230.8 733 230.8 736.7 230.7 736.7 230.7 732.9"/>
              <polygon class="st4" points="230.7 732.9 230.7 736.7 230.4 736.9 230.4 733.1 230.7 732.9"/>
            </g>
            <g>
              <polygon class="st20" points="228.7 734 228.8 734 228.8 737.6 228.7 737.6 228.7 734"/>
              <polygon class="st4" points="228.7 734 228.7 737.6 228.5 737.7 228.4 734.1 228.7 734"/>
            </g>
            <g>
              <polygon class="st20" points="226.5 735.2 226.6 735.2 226.7 738.5 226.6 738.5 226.5 735.2"/>
              <polygon class="st4" points="226.5 735.2 226.6 738.5 226.3 738.7 226.3 735.3 226.5 735.2"/>
            </g>
            <g>
              <polygon class="st20" points="224.5 736.2 224.5 736.2 224.6 739.4 224.5 739.4 224.5 736.2"/>
              <polygon class="st4" points="224.5 736.2 224.5 739.4 224.3 739.5 224.2 736.3 224.5 736.2"/>
            </g>
            <g>
              <polygon class="st20" points="222.4 737.3 222.5 737.3 222.5 740.4 222.4 740.4 222.4 737.3"/>
              <polygon class="st4" points="222.4 737.3 222.4 740.4 222.2 740.5 222.1 737.4 222.4 737.3"/>
            </g>
            <g>
              <polygon class="st20" points="220.3 738.3 220.4 738.3 220.4 741.4 220.3 741.4 220.3 738.3"/>
              <polygon class="st4" points="220.3 738.3 220.3 741.4 220.1 741.5 220.1 738.4 220.3 738.3"/>
            </g>
            <g>
              <polygon class="st20" points="218.3 739.3 218.3 739.3 218.4 742.3 218.3 742.3 218.3 739.3"/>
              <polygon class="st4" points="218.3 739.3 218.3 742.3 218.1 742.4 218 739.4 218.3 739.3"/>
            </g>
            <g>
              <polygon class="st20" points="216.3 740.2 216.4 740.2 216.5 743.2 216.4 743.2 216.3 740.2"/>
              <polygon class="st4" points="216.3 740.2 216.4 743.2 216.1 743.3 216.1 740.3 216.3 740.2"/>
            </g>
            <g>
              <polygon class="st20" points="214.6 741 214.7 741 214.7 743.9 214.6 743.9 214.6 741"/>
              <polygon class="st4" points="214.6 741 214.6 743.9 214.4 744 214.4 741.1 214.6 741"/>
            </g>
            <g>
              <polygon class="st20" points="212.6 741.9 212.7 741.9 212.7 744.8 212.6 744.8 212.6 741.9"/>
              <polygon class="st4" points="212.6 741.9 212.6 744.8 212.4 744.9 212.4 742 212.6 741.9"/>
            </g>
            <g>
              <polygon class="st20" points="210.6 742.8 210.6 742.8 210.7 745.5 210.6 745.5 210.6 742.8"/>
              <polygon class="st4" points="210.6 742.8 210.6 745.5 210.4 745.6 210.4 742.9 210.6 742.8"/>
            </g>
            <g>
              <polygon class="st20" points="208.3 743.7 208.4 743.7 208.4 746.5 208.4 746.5 208.3 743.7"/>
              <polygon class="st4" points="208.3 743.7 208.4 746.5 208.1 746.5 208.1 743.8 208.3 743.7"/>
            </g>
            <g>
              <polygon class="st20" points="206.2 744.6 206.3 744.6 206.3 747.4 206.2 747.4 206.2 744.6"/>
              <polygon class="st4" points="206.2 744.6 206.2 747.4 206 747.5 206 744.7 206.2 744.6"/>
            </g>
            <g>
              <polygon class="st20" points="204.1 745.5 204.2 745.5 204.2 748.2 204.1 748.2 204.1 745.5"/>
              <polygon class="st4" points="204.1 745.5 204.1 748.2 203.9 748.3 203.9 745.6 204.1 745.5"/>
            </g>
            <g>
              <polygon class="st20" points="202.2 746.2 202.3 746.2 202.3 748.9 202.2 748.9 202.2 746.2"/>
              <polygon class="st4" points="202.2 746.2 202.2 748.9 202 749 202 746.3 202.2 746.2"/>
            </g>
            <g>
              <polygon class="st20" points="200.5 746.9 200.6 746.9 200.6 749.5 200.5 749.5 200.5 746.9"/>
              <polygon class="st4" points="200.5 746.9 200.5 749.5 200.3 749.6 200.3 747 200.5 746.9"/>
            </g>
            <g>
              <polygon class="st20" points="198.7 747.5 198.8 747.5 198.9 750.2 198.8 750.2 198.7 747.5"/>
              <polygon class="st4" points="198.7 747.5 198.8 750.2 198.6 750.2 198.5 747.6 198.7 747.5"/>
            </g>
            <g>
              <polygon class="st20" points="196.6 748.3 196.7 748.3 196.7 750.9 196.6 750.9 196.6 748.3"/>
              <polygon class="st4" points="196.6 748.3 196.6 750.9 196.4 751 196.4 748.4 196.6 748.3"/>
            </g>
            <g>
              <polygon class="st20" points="194.7 749 194.7 749 194.8 751.5 194.7 751.5 194.7 749"/>
              <polygon class="st4" points="194.7 749 194.7 751.5 194.5 751.6 194.5 749.1 194.7 749"/>
            </g>
            <g>
              <polygon class="st20" points="291.1 689.9 291.3 689.9 291.4 697.9 291.2 697.9 291.1 689.9"/>
              <polygon class="st4" points="291.1 689.9 291.2 697.9 290.6 698.2 290.5 690.4 291.1 689.9"/>
            </g>
          </g>
          <path class="st4" d="M658,296c-4.8,7.1-35.3,48.2-87.8,105.5-37.5,41-82.9,91.3-129,141.3-9.6,10.4-19.2,20.7-28.7,31-33,35.3-65.3,69.6-95.7,98.7-10.3,9.9-21.6,20.1-33.4,29.5-7.4,5.9-14.9,11.7-22.7,16.8-15.7,10.4-31.6,19.1-46,25.4-9,3.9-17.6,7.1-25.8,9.6-12.1,3.8-23.4,6.5-34.3,8.7-24.2,4.8-36.6,5.4-37.1,5.6-.5.2,12.5-.4,40.9-6.1,11.1-2.2,22.5-5,34.6-9.1,8-2.7,16.2-6.1,25.1-9.9,32.8-14.3,70.4-40.9,100.1-70.5,11.8-11.8,24.3-23.8,36.9-36.8,73.2-75.1,157.3-166.9,218.8-234,56.8-62,86.9-103.9,87.7-105.7h-3.6Z"/>
        </g>
        <path class="st0" d="M-30.2,775.3c18.6-.4,57.2.3,109.8-3.8,64.8-5.1,117.8-9.9,182.4-53.1,30.5-20.4,62.1-50.5,100.9-91.1,11-11.5,23.1-23.4,35.3-36.7,135.5-147.8,224.5-237.6,263.4-294.6h109.4v612.1c-281.5-57.5-552-93.4-807-98.5l5.8-34.3Z"/>
        <path class="st13" d="M98.6,772.9c117.9-10.8,172.9-35.7,328.2-190.3,145.6-144.9,225.8-229,275.8-286.5h-41c-38.9,57-128,146.7-263.4,294.6-12.2,13.3-24.3,25.2-35.3,36.7-38.9,40.7-70.5,70.8-100.9,91.1-64.6,43.1-117.6,48-182.4,53.1-52.6,4.1-91.2,3.4-109.8,3.8l-.2.9c23.6-.2,80.8,1,129-3.4Z"/>
        <path class="st22" d="M771,815.1c-120.6-1.1-521.2,3.3-862-12.7l-.4,2.8c393.4,9.5,437.4,35,862.4,102.9v-93Z"/>
      </g>
      <g>
        <path class="st19" d="M-486.4,1003S76.4,800.4,118.7,780.2c25-11.9-39.5-11.4-101.1-14.4-51.5-2.5-101.6-3.9-101.6-3.9l.2-6s41.9,1.3,100.4,3.7c29.4,1.2,65.9,2.3,97.3,4.4,302.9,20.8,440.4,50.2,623,86.6v380.2H-486.4v-227.8h0Z"/>
        <g>
          <path class="st4" d="M736.9,898.2c-164.2-47.8-420.8-117-644-135.4,253.8,17.3,487.3,84,644,127.9v7.5h0Z"/>
          <path class="st4" d="M-486.4,1066.2S79.6,811.5,121.9,784.5c5.4-3.5,7-6.3,6.6-8.6-.9-5.3-15-7.5-40.8-8.5-27.2-1.1-43.4-1.6-44.3-1.7-1-.1,15.9,1.1,44.3,2,35,1.2,49.1,6.3,31.7,16.2-42.3,24.1-605.8,256.6-605.8,256.6v25.7Z"/>
        </g>
      </g>
      <path class="st9" d="M116.1,765.2c0-.2-.1-.4-.2-.5-1.8-2.7-13.9-4.7-40.9-5.6-11.2-.4-175.8-5.8-175.8-5.8v2s164.2,6.2,175.3,6.6c21.8.7,35.1,2.1,39.8,4.9h0c-4,1.8-14.5,3.6-30,4.7-90.8,6.9-570.6,23.8-570.6,23.8v74.8c123.1-17.4,486.6-71.7,570.6-89.3,20.3-4.3,31.7-7.6,31.8-11v-4.6h0Z"/>
      <path class="st21" d="M-486.4,825.4s554.8-45,586.2-51.6c28.9-6.1-227-12.5-227-12.5l-.3,5s105.9,1,82.8,4.5-441.7,14.4-441.7,14.4v40.2h0Z"/>
      <path class="st4" d="M-486.4,785.2s418.5-10.9,441.7-14.4c23.1-3.5-82.8-4.5-82.8-4.5v-.8s105.9,1,82.8,4.5-441.7,8-441.7,8v7.2Z"/>
      <g>
        <path class="st14" d="M124.1,773.8c-.7,1.9-5.5,4.6-16.1,8.8-4.1,1.6-115.3,39-240.8,80.3-164.7,54.2-353.6,108.4-353.6,108.4v-101.1C-363.3,852.8.2,798.5,84.2,780.9c17.1-3.6,27.9-6.5,30.9-9.4v-.3c4.8.7,8,1.4,9,2.6Z"/>
        <path class="st17" d="M124.4,774.3c-.1.3-.2.9-.3,1.1-.2.3-.4.6-.7.9-.5.5-1.6,1.2-2.7,1.9-2.6,1.7-6.6,3.7-12.7,6.3-4,1.7-113.4,41.8-237.6,87.5-165.4,60.9-356.8,124-356.8,124v10s191.4-69,356.8-129.9c124.2-45.7,233.6-88.4,237.6-90.1,11.5-5,16.3-8,16.4-9.9h0c.1-.6.1-1.2,0-1.8Z"/>
        <path class="st5" d="M124.1,773h0c-.5-1.5-4.6-2.4-11-3.2-31.6-3.8-197.5-8.3-197.5-8.3v.4s165.9,5.3,197.5,9.1c5.8.7,9.9,1.4,11,2.7h0c-.7,1.9-5.5,4.6-16.1,8.8-4.1,1.6-115.3,39-240.8,80.3-164.7,54.2-353.6,108.4-353.6,108.4v24.8s191.4-63.2,356.8-124c124.2-45.7,233.6-85.8,237.6-87.5,11.6-5.1,16.4-8,16.4-9.9h0c.1-.4-.1-1.2-.3-1.6h0Z"/>
      </g>
      <path class="st14" d="M113.1,769.8c-31.6-3.8-196.8-8.5-196.8-8.5l-.6,1.7s165.9,6,197.5,9.8c5.8.7,9.8-.4,10.9.9h0c.7-2-3.6-3-11-3.9Z"/>
      <g>
        <polygon class="st11" points="-224.6 873.6 -226.7 868.2 -355.2 846.6 -387.5 851.2 -239.7 878.1 -224.6 873.6"/>
        <polygon class="st11" points="-159 855.7 -162.8 850.2 -263.9 835.6 -289.1 839.4 -171.4 859.4 -159 855.7"/>
        <polygon class="st11" points="-111.6 841.1 -111.6 837.5 -205.2 825.4 -228.3 828.5 -122 844.3 -111.6 841.1"/>
        <polygon class="st11" points="-69.7 830.9 -69.7 828.7 -152.7 818.1 -173.3 820.9 -78.7 833.7 -69.7 830.9"/>
        <polygon class="st11" points="-306.3 894.5 -306.3 889 -445.8 862.3 -480.3 866.8 -323.2 899.1 -306.3 894.5"/>
        <polygon class="st11" points="-486.4 913 -432.1 926 -410.1 920 -410.1 914.6 -486.4 896.9 -486.4 913"/>
        <polygon class="st11" points="-36.3 820.6 -36.3 819 -98.4 810.4 -110.2 812.8 -43.8 822.8 -36.3 820.6"/>
        <polygon class="st11" points="-8.2 813 -8.2 811.4 -64.9 804.8 -76.7 807.1 -14.5 814.9 -8.2 813"/>
        <polygon class="st11" points="13.1 806.8 13.1 805.2 -34.6 800.1 -45.8 802.3 7.7 808.4 13.1 806.8"/>
        <polygon class="st11" points="30.5 802 30.5 800.4 -9.6 797 -21.2 798.8 25.9 803.4 30.5 802"/>
        <polygon class="st11" points="44.3 798 44.3 796.3 4.7 793.9 -6.8 795.8 40.2 799.2 44.3 798"/>
        <polygon class="st11" points="56.2 794.2 56.2 792.6 20.3 791.1 9.7 792.9 52.7 795.3 56.2 794.2"/>
        <polygon class="st11" points="65.9 792 65.9 789.9 31.4 789.4 19.9 791.3 62.8 792.9 65.9 792"/>
        <polygon class="st11" points="74.1 789.5 74.1 787.9 43.2 787.7 32.6 789.4 71.4 790.4 74.1 789.5"/>
        <polygon class="st11" points="81.6 787.3 81.6 786.2 55.1 786 45.9 787.7 79.2 788.1 81.6 787.3"/>
        <polygon class="st11" points="87.8 785.5 87.8 784.3 63.5 784.4 52.5 786.3 85.4 786.2 87.8 785.5"/>
        <polygon class="st11" points="93.3 783.9 93.3 782.8 69.2 782.9 58 784.8 91.2 784.5 93.3 783.9"/>
        <polygon class="st11" points="98.1 782.5 98.1 781.7 76.1 781.6 70.1 783.1 96.2 783.1 98.1 782.5"/>
        <polygon class="st11" points="102.3 781.1 102.3 780.5 81.4 780.9 75.1 782.1 100.6 781.8 102.3 781.1"/>
        <polygon class="st11" points="105.9 780.1 105.9 779.4 85 779.8 78.7 781 104.2 780.7 105.9 780.1"/>
        <polygon class="st11" points="108.7 778.9 108.7 778.3 88.7 778.9 82.4 780.1 107.2 779.6 108.7 778.9"/>
        <polygon class="st11" points="111.5 777.8 111.5 777.2 99.1 777.5 92.7 778.7 110.1 778.6 111.5 777.8"/>
        <polygon class="st11" points="113.8 777 113.8 776.4 102.3 776.3 96 777.5 112.5 777.6 113.8 777"/>
        <polygon class="st11" points="115.9 775.9 115.9 775.3 104.4 775.2 98.1 776.4 114.6 776.6 115.9 775.9"/>
      </g>
      <g>
        <path class="st10" d="M-162.8,626.2c-135-64.3-323.6-145.6-323.6-145.6v297.2l421.2-7.2c1.4-39.7,21.3-49,23.8-50.5h0c1.7-1,3.5-1.9,5.3-2.7,26.9-17.4-38.9-49.4-126.7-91.2h0Z"/>
        <path class="st3" d="M-31.6,672.4c-23.2-21.7-111.8-83.9-214.4-141.5-120-67.4-240.4-137.8-240.4-137.8v29.9S-71.9,631-21,690.2c5.3,6.1,5.8,11.8,4.1,16.9.9-1,1.6-2.1,2.2-3.4,3.2-6.5-1-16.5-16.9-31.3Z"/>
        <path class="st23" d="M-486.4,726.8v51.1l421.2-7.2c.2-7.1,1.1-13.1,2.3-18.4h0c-33.4-2.9-272.8-18.5-423.5-25.5h0Z"/>
        <path class="st6" d="M-62.9,752.3h0c-33.4-2.9-272.8-18.5-423.5-25.5v10.6c151.8,4,384.1,15.5,422.8,18.5.2-1.1.5-2.6.7-3.6Z"/>
        <path class="st1" d="M-20.9,690.2c-51-59.2-465.4-267.2-465.4-267.2v57.7c71,31,192.2,84.9,324,149.8,87.3,43,153.2,69.6,126.3,87,7.2-3.2,14.9-5.3,19.3-10.3,1.6-5.2,1-10.9-4.2-17h0Z"/>
      </g>
      <g>
        <g>
          <polygon class="st18" points="-440.3 819.5 -440.3 922.5 -432.1 926 -410.1 920 -410.1 819.5 -440.3 819.5"/>
          <polygon class="st18" points="-330 813.8 -330 896.4 -323.4 899.2 -305.8 894.4 -305.8 813.8 -330 813.8"/>
          <polygon class="st18" points="-245.1 806 -245.1 875.8 -239.5 878.2 -224.6 874.1 -224.6 806 -245.1 806"/>
          <polygon class="st18" points="-176.2 799.1 -176.2 857.5 -171.5 859.5 -159 856.1 -159 799.1 -176.2 799.1"/>
          <polygon class="st18" points="-126 793.6 -126 842.7 -122.1 844.3 -111.6 841.5 -111.6 793.6 -126 793.6"/>
          <path class="st18" d="M-46.5,787.2v34.2c0,.1.1.2.2.3l2.5,1.1h.2l7.1-1.9c.1,0,.2-.2.2-.3v-33.3c0-.2-.1-.3-.3-.3h-9.6c-.1-.1-.3.1-.3.2Z"/>
          <polygon class="st18" points="-82.2 789.7 -82.2 832.3 -78.8 833.7 -69.7 831.2 -69.7 789.7 -82.2 789.7"/>
          <polygon class="st18" points="-16.9 784.3 -16.9 813.9 -14.5 815 -8.2 813.2 -8.2 784.3 -16.9 784.3"/>
          <polygon class="st18" points="5.6 782.2 5.6 807.6 7.6 808.5 13.1 807 13.1 782.2 5.6 782.2"/>
          <polygon class="st18" points="24 780.7 24 802.7 25.8 803.5 30.5 802.2 30.5 780.7 24 780.7"/>
          <polygon class="st18" points="38.6 779.4 38.6 798.5 40.1 799.2 44.3 798.1 44.3 779.4 38.6 779.4"/>
          <polygon class="st18" points="51.3 778.1 51.3 794.7 52.7 795.3 56.2 794.3 56.2 778.1 51.3 778.1"/>
          <polygon class="st18" points="61.6 777.7 61.6 792.4 62.8 792.9 65.9 792.1 65.9 777.7 61.6 777.7"/>
          <polygon class="st18" points="70.3 776.7 70.3 789.9 71.3 790.4 74.1 789.6 74.1 776.7 70.3 776.7"/>
          <polygon class="st18" points="78.3 776.2 78.3 787.6 79.2 788 81.6 787.3 81.6 776.2 78.3 776.2"/>
          <polygon class="st18" points="84.7 775.1 84.7 785.8 85.5 786.2 87.8 785.5 87.8 775.1 84.7 775.1"/>
          <polygon class="st18" points="90.4 774.4 90.4 784.2 91.2 784.5 93.3 784 93.3 774.4 90.4 774.4"/>
          <polygon class="st18" points="95.5 773.8 95.5 782.8 96.2 783.1 98.1 782.6 98.1 773.8 95.5 773.8"/>
          <polygon class="st18" points="99.8 773.1 99.8 781.5 100.5 781.8 102.3 781.3 102.3 773.1 99.8 773.1"/>
          <polygon class="st18" points="103.7 772.7 103.7 780.5 104.3 780.7 105.9 780.1 105.9 772.7 103.7 772.7"/>
          <polygon class="st18" points="106.7 771.8 106.7 779.4 107.2 779.6 108.7 779 108.7 771.8 106.7 771.8"/>
          <polygon class="st18" points="109.5 771 109.5 778.3 110.1 778.6 111.5 777.9 111.5 771 109.5 771"/>
          <polygon class="st18" points="112 770.5 112 777.4 112.5 777.6 113.8 777 113.8 770.5 112 770.5"/>
          <polygon class="st18" points="114.1 769.6 114.1 776.3 114.6 776.6 115.9 775.9 115.9 769.6 114.1 769.6"/>
        </g>
        <g>
          <path class="st25" d="M-411,819.5h-28.5c-.5,0-.9.4-.9.9v56.3c3.9.9,8.1,1.7,8.1,1.7,0,0,14.3-2.5,22.2-3.9v-54c0-.6-.4-1-.9-1h0Z"/>
          <path class="st25" d="M-306.5,813.8h-22.8c-.4,0-.7.3-.7.7v43.3l6.6,1s11.7-2.1,17.7-3.2v-41.1c-.1-.4-.4-.7-.8-.7h0Z"/>
          <path class="st25" d="M-225.2,806h-19.3c-.3,0-.6.3-.6.6v36.4c2.7.5,6.1.7,6.1.7,0,0,9.9-2,14.4-2.8v-34.3c0-.3-.3-.6-.6-.6h0Z"/>
          <path class="st25" d="M-159.5,799.1h-16.2c-.3,0-.5.2-.5.5v30.6c2.3.4,4.1.7,5.7.9,3.8-.7,7.6-1.4,11.4-2.1v-29.4c.1-.3-.2-.5-.4-.5Z"/>
          <path class="st25" d="M-112,793.6h-13.6c-.2,0-.4.2-.4.4v27.7c1.6.2,3.9.8,3.9.8,0,0,7.1-1.4,10.5-2.3v-26.2c0-.2-.2-.4-.4-.4Z"/>
          <path class="st25" d="M-70.1,789.7h-11.8c-.2,0-.4.2-.4.4v23.8c1.4.2,3.6.5,3.6.5,0,0,5.9-1.1,8.9-1.9v-22.5c.1-.2-.1-.3-.3-.3Z"/>
          <path class="st25" d="M-36.6,786.9h-9.6c-.2,0-.3.1-.3.3v20l2.3.4s5.3-1,7.9-1.5v-18.9c0-.1-.1-.3-.3-.3Z"/>
          <path class="st25" d="M-8.5,784.3h-8.2c-.1,0-.3.1-.3.3v17.3l2.2.3s4.4-.8,6.5-1.2v-16.3c.1-.3,0-.4-.2-.4h0Z"/>
          <path class="st25" d="M12.8,782.2h-7c-.1,0-.2.1-.2.2v15.3l1.7.2s3.9-.7,5.8-1.1v-14.4c0-.1-.1-.2-.3-.2Z"/>
          <path class="st25" d="M30.3,780.7h-6.1c-.1,0-.2.1-.2.2v13.2l1.5.3s3.3-.7,4.9-1v-12.5c.1-.1,0-.2-.1-.2Z"/>
          <path class="st25" d="M44.1,779.4h-5.3c-.1,0-.2.1-.2.2v11.7l1.4.3s2.8-.6,4.2-.9v-11.1c.1-.2,0-.2-.1-.2Z"/>
          <path class="st25" d="M56.1,778.1h-4.6c-.1,0-.1.1-.1.1v10.5l.9.2s2.7-.6,4-.8v-9.9c-.07-.07-.13-.1-.2-.1Z"/>
          <path class="st25" d="M65.8,777.7h-4.1c-.1,0-.1.1-.1.1v8.7l.9.2s2.3-.5,3.5-.8v-8.2h-.2Z"/>
          <path class="st25" d="M74,776.7h-3.7c-.1,0-.1.1-.1.1v7.9l1,.1s1.9-.4,2.9-.6v-7.4s0-.1-.1-.1Z"/>
          <path class="st25" d="M81.5,776.2h-3.2c-.07,0-.1.03-.1.1v6.9l1,.1s1.6-.4,2.4-.6l-.1-6.5q.07,0,0,0Z"/>
          <path class="st25" d="M87.7,775.4h-3c-.07,0-.1.03-.1.1v6.3l.9.1s1.5-.4,2.2-.5v-6q.07,0,0,0h0Z"/>
          <path class="st25" d="M93.2,774.9h-2.7s-.1,0-.1.1v5.6l.8.1s1.4-.4,2.1-.5l-.1-5.3q.07,0,0,0h0Z"/>
          <path class="st25" d="M98,774.4h-2.5s-.1,0-.1.1v4.8l.7.1s1.3-.3,1.9-.5v-4.5q.07,0,0,0h0Z"/>
          <path class="st25" d="M102.2,773.7h-2.3s-.1,0-.1.1v4.4l.7.1s1.2-.3,1.8-.5l-.1-4.1q.07,0,0,0Z"/>
          <path class="st25" d="M105.9,773.3h-2.1s-.1,0-.1.1v3.7l.5.1s1.2-.3,1.7-.5v-3.4c0,.1,0,0,0,0h0Z"/>
          <path class="st25" d="M108.7,772.8h-2.1s-.1,0-.1.1v3.5l.6.1s1.1-.4,1.6-.6v-3.1h0Z"/>
          <path class="st25" d="M111.4,772.2h-2s-.1,0-.1.1v3.2h.6s1.1-.4,1.5-.7v-2.6q.07,0,0,0Z"/>
        </g>
        <g>
          <path class="st2" d="M-486.4,859.5v10.7C-363.3,852.8.2,798.5,84.2,780.9c17.1-3.6,27.9-6.5,30.9-9.4-2.6,2-14.2,4.6-32.7,8.3-89.2,18.1-568.8,79.7-568.8,79.7Z"/>
          <path class="st8" d="M116.1,768.1c-.5.7-4.7,2.1-6.8,2.5-5.4,1.3-13.9,2.9-25,4.2-90.5,10.7-570.7,44.2-570.7,44.2v28S-5.3,795.3,84.1,778.2c17.8-3.4,28.9-5.9,31.4-7.8h0s.3-.2.5-.5v-1.4l.1-.4Z"/>
          <path class="st15" d="M116.1,765.2c0-.1,0-.2-.1-.3.2,1.2-1.7,1.8-1.8,1.8h0c-.5.2-3.6,1.4-8,2.1-6.5,1.2-15.8,2.1-22,2.6-90.8,6.9-570.6,23.8-570.6,23.8v13.8s480.8-26.9,570-35.9c9.7-1,19.8-2.3,26.1-3.7,3.3-.7,5.6-1.8,6.4-2.6v-1.6h0Z"/>
          <path class="st12" d="M110.2,769.1c-6.3,1.5-16.7,3-26.5,4-88.5,8.6-570,35.9-570,35.9v10S-6.1,785.7,84.3,774.9c9.3-1.1,18.6-2.6,24.8-4,4-1,6.4-2.1,7-2.7v.4-1.8c-.4.5-3.3,1.7-5.9,2.3h0Z"/>
          <path class="st12" d="M116.1,770c-.2.3-.5.5-.5.5h0c-2.5,1.9-13.7,4.5-31.4,7.8-89.4,17-570.5,68.8-570.5,68.8v12.4S-6.7,797.9,82.5,779.9c18.5-3.7,30.1-6.4,32.7-8.3.5-.4.8-1,.9-1.6h0ZM115.7,770.8h0Z"/>
        </g>
      </g>
    </g>
  </g>
</svg>