<?xml version="1.0" encoding="utf-8"?>
<!-- Generator: Adobe Illustrator 27.7.0, SVG Export Plug-In . SVG Version: 6.00 Build 0)  -->
<svg version="1.1" id="Capa_1" xmlns="http://www.w3.org/2000/svg" xmlns:xlink="http://www.w3.org/1999/xlink" x="0px" y="0px"
	 viewBox="0 0 104.2 76.9" style="enable-background:new 0 0 104.2 76.9;" xml:space="preserve">
<style type="text/css">
	.st0{fill:#211E3A;}
	.st1{fill:#312E48;}
	.st2{fill:#4B495F;}
	.st3{opacity:0.57;fill:#261F46;}
	.st4{fill:#1C1733;}
	.st5{fill:url(#SVGID_1_);}
	.st6{fill:url(#SVGID_00000070088059506189196200000001981802480838281874_);}
	.st7{fill:url(#SVGID_00000036212729220236606660000008690931820012357019_);}
	.st8{fill:url(#SVGID_00000018920607490384169510000006806615960540414877_);}
	.st9{fill:url(#SVGID_00000010283518844265050940000017254184726644995489_);}
	.st10{fill:url(#SVGID_00000012436825588231260630000004688551293348010656_);}
	.st11{fill:#CE2948;}
	.st12{fill:#920E38;}
	.st13{opacity:0.35;fill:url(#SVGID_00000026842337932255140110000004728539991372512693_);}
	.st14{fill:#0071BB;}
	.st15{fill:url(#SVGID_00000090292740718314158880000007732919412113286297_);}
	.st16{fill:#EEC81B;}
	.st17{fill:url(#SVGID_00000178189757220969088520000009215478480506326664_);}
	.st18{fill:url(#SVGID_00000147218011257675741990000016212258954223417238_);}
	.st19{opacity:0.54;fill:url(#SVGID_00000036253335087231869280000012337862481777547396_);}
	.st20{opacity:0.54;fill:url(#SVGID_00000149354442932949089710000010566838194872786836_);}
	.st21{opacity:0.32;fill:#B4B8C0;}
	.st22{fill:url(#SVGID_00000081611056611163390230000004234937455911655577_);}
	.st23{fill:url(#SVGID_00000165220943547116079250000017211054638545960325_);}
	.st24{fill:#3C3952;}
	.st25{clip-path:url(#SVGID_00000054973710829382525730000000587766165924030640_);}
	.st26{fill:#261F46;}
	.st27{fill:#474162;}
	.st28{opacity:0.48;fill:#474162;}
	.st29{opacity:0.5;}
	.st30{opacity:0.66;fill:#474162;}
	.st31{fill:#FFFFFF;}
	.st32{fill:url(#SVGID_00000113348119077157260030000005465019373649024152_);}
	.st33{fill:url(#SVGID_00000114047092743328376570000015401892678680134076_);}
	.st34{fill:url(#SVGID_00000079460918190986079400000004111520803846359992_);}
	.st35{fill:url(#SVGID_00000075159128589814897130000013782188024171028923_);}
	.st36{fill:url(#SVGID_00000034802415870614539480000010580026314486795142_);}
	.st37{fill:url(#SVGID_00000004512152700588188090000013577150168287769250_);}
	.st38{fill:url(#SVGID_00000096777064899017435510000017777941102358522269_);}
	.st39{fill:url(#SVGID_00000163073995679669248910000004717861967899452580_);}
	.st40{fill:url(#SVGID_00000150800307973910018780000005113069897247415437_);}
	.st41{fill:url(#SVGID_00000119096615011490943510000008723148536145958841_);}
	.st42{fill:url(#SVGID_00000159431578678236272420000005967541747921772204_);}
	.st43{fill:url(#SVGID_00000023261357047824239270000005308330171416806547_);}
	.st44{fill:url(#SVGID_00000123435086821809667780000014357257412268554112_);}
	.st45{fill:url(#SVGID_00000069385325627833256870000016304569329153161640_);}
	.st46{fill:url(#SVGID_00000011730208992163127850000011042122634192645525_);}
	.st47{fill:url(#SVGID_00000066517481459782959960000001709516044259687308_);}
	.st48{fill:url(#SVGID_00000055684383359440615880000003747431417194368140_);}
	.st49{fill:url(#SVGID_00000182507883698469227820000006193657484154429881_);}
	.st50{fill:url(#SVGID_00000118388419937944906320000014292951296962879395_);}
	.st51{fill:url(#SVGID_00000159436166807490822820000012753723577956863874_);}
	.st52{fill:url(#SVGID_00000043438138210083821020000014524225339082418835_);}
	.st53{fill:url(#SVGID_00000137125540898842102200000017267049192826586521_);}
	.st54{fill:url(#SVGID_00000043443198861299371500000008765677703139631291_);}
	.st55{fill:url(#SVGID_00000075126078640118306600000014880940698092415385_);}
	.st56{fill:url(#SVGID_00000043427741196897332560000012866165526471968441_);}
	.st57{fill:url(#SVGID_00000003079056462711382570000003728354921550664616_);}
	.st58{fill:url(#SVGID_00000133530959693610345540000010442810272358549152_);}
	.st59{fill:url(#SVGID_00000076571104961245670770000009315983311057343652_);}
	.st60{fill:url(#SVGID_00000098926072886866785120000014806578210938736312_);}
	.st61{fill:url(#SVGID_00000136400594916305204580000016047163689380636821_);}
	.st62{fill:url(#SVGID_00000109751938411492876440000000826433716885373065_);}
	.st63{fill:#F3FCF5;}
	.st64{fill:url(#SVGID_00000076602447484517774900000002489754862424472761_);}
	.st65{fill:url(#SVGID_00000030485588201241689800000017549533624794080403_);}
	.st66{fill:#FFFFDD;}
	.st67{fill:url(#SVGID_00000160868874301717314790000005987626342285081755_);}
	.st68{fill:url(#SVGID_00000091707716081404043100000017629367767687359928_);}
	.st69{fill:url(#SVGID_00000123433032405572686420000010498336365101481618_);}
	.st70{fill:#FFEA86;}
	.st71{fill:url(#SVGID_00000085944386236268167760000009229235390450349187_);}
	.st72{fill:url(#SVGID_00000161614532458616111800000010368130657147084164_);}
	.st73{fill:url(#SVGID_00000059307291758846321210000016185119663639260829_);}
	.st74{fill:url(#SVGID_00000087391572282731119140000006332279669428066719_);}
	.st75{fill:url(#SVGID_00000180350353950197797900000008472152793185833648_);}
	.st76{fill:url(#SVGID_00000178912949934595976540000001239438990116553615_);}
	.st77{fill:url(#SVGID_00000048489502212590981580000013392757902323923604_);}
	.st78{fill:url(#SVGID_00000103979714208190096100000017857631340413206954_);}
	.st79{fill:url(#SVGID_00000011008815489259654730000006289609074290970499_);}
	.st80{fill:url(#SVGID_00000119814525633350461190000013757532693176847008_);}
	.st81{fill:url(#SVGID_00000154407046302640618760000005215464199566991016_);}
	.st82{fill:url(#SVGID_00000135658324358182871220000007154941113486737050_);}
	.st83{fill:url(#SVGID_00000155869177471409778830000011457637067205271427_);}
	.st84{fill:url(#SVGID_00000093176808220794750260000005756783113427486873_);}
	.st85{fill:url(#SVGID_00000164492945884925140660000001211264281143026085_);}
	.st86{fill:#27495A;}
	.st87{fill:#312A4F;}
	.st88{fill:#423C5E;}
	.st89{fill:url(#SVGID_00000130644043037943104410000017747862959029707683_);}
	.st90{fill:url(#SVGID_00000026121313257891278070000003731759743936901540_);}
	.st91{fill:url(#SVGID_00000155144533035913410560000010352114724701283749_);}
	.st92{fill:url(#SVGID_00000145032727449101982060000016170254477486427038_);}
	.st93{fill:url(#SVGID_00000023249384359609600390000007259107494961024703_);}
	.st94{fill:url(#SVGID_00000066474311957876415030000003232620453174992036_);}
	.st95{fill:url(#SVGID_00000165945790600851914130000005987981500816161417_);}
	.st96{fill:url(#SVGID_00000098928044133789114510000000941617054161596859_);}
	.st97{fill:#FFEABF;}
	.st98{fill:#574F78;}
	.st99{fill:none;}
	.st100{fill:url(#SVGID_00000114769876619953735920000012438369943052798883_);}
	.st101{fill:#B4B8C0;}
</style>
<g id="Car_00000042731220420250022840000018135515511258641326_">
	<g>
		<path class="st0" d="M94.2,21.4c0-0.1,1.9-3.5,1.9-3.5s-2-0.4-2-0.4c0,0-1.5,3-1.5,3L94.2,21.4z"/>
		<path class="st0" d="M93.6,18.9c0,0-2.2-3.3-2.2-5.4c0-2.1,1.4-2.1,2.2-2.1c1.2,0,7,1.6,7.9,2.7c0.4,0.5,0.4,2.7-0.3,3.1
			C100.3,17.8,93.6,18.9,93.6,18.9z"/>
		<path class="st1" d="M95.1,18c-0.6,0.1-1.3-0.2-1.6-0.8c-0.6-1-1.3-2.5-1.3-3.6c0-0.6,0.1-1,0.3-1.2c0.2-0.2,0.4-0.3,0.8-0.3
			c0.1,0,0.3,0,0.4,0c2,0.1,6.6,1.7,7.2,2.4c0.1,0.2,0.2,0.9,0,1.6c-0.1,0.4-0.2,0.5-0.2,0.5C100.3,16.9,97.7,17.5,95.1,18z"/>
		<path class="st2" d="M93.7,12.2c-0.1,0-0.3,0-0.4,0c-0.3,0-0.6,0.1-0.8,0.3c-0.2,0.2-0.3,0.6-0.3,1.2c0,1.1,0.7,2.6,1.3,3.6
			c0.1,0.1,0.1,0.2,0.2,0.3c1.7-1.6,3.9-2.6,6-3.6C98.1,13.2,95.1,12.3,93.7,12.2z"/>
		<path class="st0" d="M15.3,21.4c0-0.1-1.9-3.5-1.9-3.5s2-0.4,2-0.4c0,0,1.5,3,1.5,3L15.3,21.4z"/>
		<path class="st0" d="M15.9,18.9c0,0,2.2-3.3,2.2-5.4c0-2.1-1.4-2.1-2.2-2.1c-1.2,0-7,1.6-7.9,2.7c-0.4,0.5-0.4,2.7,0.3,3.1
			C9.2,17.8,15.9,18.9,15.9,18.9z"/>
		<path class="st1" d="M14.5,18c0.6,0.1,1.3-0.2,1.6-0.8c0.6-1,1.3-2.5,1.3-3.6c0-0.6-0.1-1-0.3-1.2c-0.2-0.2-0.4-0.3-0.8-0.3
			c-0.1,0-0.3,0-0.4,0c-2,0.1-6.6,1.7-7.2,2.4c-0.1,0.2-0.2,0.9,0,1.6c0.1,0.4,0.2,0.5,0.2,0.5C9.2,16.9,11.8,17.5,14.5,18z"/>
		<path class="st2" d="M15.9,12.2c0.1,0,0.3,0,0.4,0c0.3,0,0.6,0.1,0.8,0.3c0.2,0.2,0.3,0.6,0.3,1.2c0,1.1-0.7,2.6-1.3,3.6
			c-0.1,0.1-0.1,0.2-0.2,0.3c-1.7-1.6-3.9-2.6-6-3.6C11.4,13.2,14.4,12.3,15.9,12.2z"/>
		<g>
			<path class="st3" d="M4.5,69c0,0-2,0.3-3.5,1.9s-3,4.9,9.3,4.9s69.4,1.2,73.8,1c4.4-0.1,18.2-0.3,17.2-3.8
				c-1-3.5-10.9-12.3-14.5-12.6c-3.7-0.3-57.5-0.7-58.6-0.6c-1.1,0.1-8.2,5-13.5,6.5S4.5,69,4.5,69z"/>
			<path class="st4" d="M18.8,58.8l-3.7-3.2c0,0.1-0.1,0.1-0.1,0.1s-1.5,2-2.5,2.4s-3.7,0.2-4.5-0.2c-0.8-0.4-1.3-2-1.3-2.3
				c-0.1-0.3,0.3-0.4,0.3-0.4s5.9,0,7.7,0L3.7,46c0,0-0.8,5-0.8,12s0.8,13.8,2.9,14.9h9.4c0,0,2.3,0.5,3-4.3
				C19.1,63.9,18.8,58.8,18.8,58.8z"/>
			<path class="st4" d="M103.4,46c0,0,0.8,5,0.8,12s-0.8,13.8-2.9,14.9h-9.4c0,0-2.3,0.5-3-4.3c-0.8-4.7-1-12.3-1-12.3L103.4,46z"/>
			<linearGradient id="SVGID_1_" gradientUnits="userSpaceOnUse" x1="4.6711" y1="54.5654" x2="95.3342" y2="54.5654">
				<stop  offset="0" style="stop-color:#191D32"/>
				<stop  offset="0.5036" style="stop-color:#606677"/>
			</linearGradient>
			<path class="st5" d="M10.6,61l2.8,0.1h80.2l1.8-0.2l-6.4-9.4c0,0-10.3-3.2-10.7-3.2c-0.4,0-34.1-0.3-34.1-0.3s-16.9,0.5-17.3,0.5
				c-0.4-0.1-17.7,4.1-17.9,4.1C-1.5,51.9,10.6,61,10.6,61z"/>
			
				<linearGradient id="SVGID_00000013903637336935572730000000948661614961178779_" gradientUnits="userSpaceOnUse" x1="53.0061" y1="27.739" x2="53.4117" y2="42.1388">
				<stop  offset="0" style="stop-color:#93A1B1"/>
				<stop  offset="1" style="stop-color:#5E738B"/>
			</linearGradient>
			<path style="fill:url(#SVGID_00000013903637336935572730000000948661614961178779_);" d="M103.1,40.4c0,0,0.2-1.8-0.9-4.6
				c-1-2.8-2.7-5.3-3.1-6.7c-0.1-0.3-0.2-0.8-0.3-1.4c-0.4-1.3-0.8-2.7-1.3-4c-0.4-0.9-0.9-1.7-1.4-2.3c-1.8-1.8-4.9-2.9-5.4-4.8
				C90.1,14.8,83.6,4.5,82.3,3c-0.1-0.1-0.1-0.1-0.1-0.2c-0.3-0.3-0.5-0.6-0.7-0.7C80.4,1.4,73.3,0,53.5,0c-19.8,0-27,1.4-28,2.1
				c-0.2,0.1-0.4,0.4-0.7,0.7c0,0.1-0.1,0.1-0.1,0.2c-1.2,1.5-7.8,11.7-8.3,13.5c-0.6,1.8-3.6,2.9-5.4,4.8c-0.6,0.6-1,1.4-1.4,2.3
				c-0.5,1.3-0.9,2.7-1.3,4c-0.1,0.6-0.2,1.1-0.3,1.4c-0.4,1.5-2.1,4-3.1,6.7c-1,2.8-0.9,4.6-0.9,4.6S3.3,42.3,3.2,44
				c0,0.2,0,0.4,0,0.6c0.1,1.8,0.7,5.1,1.1,8.6c0.1,0.7,0.2,1.4,0.3,2.1c0.3,1.4,0.9,3.4,1.9,6.1l2.1,0l4.7-0.2
				c3.6-4.4,5.8-7.3,8.8-8.7c0.5-0.2,1-0.4,1.5-0.6c0,0,0,0,0,0c1.2-0.3,2.5-0.5,4.1-0.5l0.8,0c8.6-0.4,41.1-0.4,49.7,0l0.8,0
				c1.6,0,2.9,0.2,4.1,0.5c0,0,0,0,0,0c0.5,0.1,1,0.3,1.5,0.6c3,1.4,5.2,4.3,8.8,8.7l4.7,0.2l2.1,0c1-2.7,1.6-4.7,1.9-6.1
				c0.2-0.7,0.3-1.4,0.3-2.1c0.3-3.4,0.9-6.7,1.1-8.6c0-0.2,0-0.4,0-0.6C103.7,42.3,103.1,40.4,103.1,40.4z M15,55.7
				c0,0-1.5,2-2.5,2.4s-3.7,0.2-4.5-0.2c-0.8-0.4-1.3-2-1.3-2.3c-0.1-0.3,0.3-0.4,0.3-0.4s7.7-0.1,8.2,0.1
				C15.4,55.3,15,55.7,15,55.7z M100.7,55.5c-0.1,0.3-0.5,1.9-1.3,2.3c-0.8,0.4-3.5,0.6-4.5,0.2c-1-0.4-2.5-2.4-2.5-2.4
				s-0.5-0.4,0-0.5c0.5-0.1,8.2-0.1,8.2-0.1S100.8,55.2,100.7,55.5z"/>
			
				<linearGradient id="SVGID_00000101084759282154860970000011524935794949845901_" gradientUnits="userSpaceOnUse" x1="8.1782" y1="29.7804" x2="98.4772" y2="29.7804">
				<stop  offset="0" style="stop-color:#93A1B1"/>
				<stop  offset="1" style="stop-color:#5E738B"/>
			</linearGradient>
			<path style="fill:url(#SVGID_00000101084759282154860970000011524935794949845901_);" d="M98.4,31.3l0.1-4.8c-0.3-1-0.6-2-1-2.9
				c-0.2-0.4-0.4-0.8-0.6-1.1L9.9,22.7c-0.2,0.3-0.3,0.6-0.5,1c-0.5,1.3-0.9,2.6-1.2,3.8l0.1,3.8c0.3,3.2,1,5.2,10.1,5.4
				c8.5,0.2,31.7,0.3,34.8,0.3l0,0c0,0,0.1,0,0.2,0c0.1,0,0.2,0,0.2,0l0,0c3.1,0,26.2-0.1,34.8-0.3C97.4,36.5,98,34.5,98.4,31.3z"/>
			
				<radialGradient id="SVGID_00000062171350546900670670000017619969516135526057_" cx="65.3514" cy="-2.434" r="35.6955" gradientTransform="matrix(1 2.840898e-03 -1.031886e-03 0.3632 -1.844025e-04 -1.7356)" gradientUnits="userSpaceOnUse">
				<stop  offset="0" style="stop-color:#FFFFFF"/>
				<stop  offset="1" style="stop-color:#5E738B"/>
			</radialGradient>
			<path style="fill:url(#SVGID_00000062171350546900670670000017619969516135526057_);" d="M82.2,2.8c-0.3-0.3-0.5-0.6-0.7-0.7
				C80.4,1.4,73.3,0,53.5,0c-19.8,0-27,1.4-28,2.1c-0.2,0.1-0.4,0.4-0.7,0.7c0,0.1-0.1,0.1-0.1,0.2c-0.6,0.7-2.3,3.3-4,6.1l-0.6,1.6
				c-0.7,2.9,0.8,3.1,0.8,3.1c3.3,1.4,10.5,3.2,33.6,2.8c25.4-0.4,31.2-2.4,32.1-2.9c1.3-0.3,0.7-2.8,0.4-4.1
				c-1.9-3-3.8-5.9-4.4-6.6C82.3,3,82.2,2.9,82.2,2.8z"/>
			<path class="st0" d="M86.6,13.7c-0.9-1.1-2.6-3.4-4.7-5.8c-2.6-3-6.5-3.3-7.6-3.4c-1.1-0.1-12-0.5-12-0.5S51,3.9,43.5,4
				C36.1,4.2,29.1,4.8,27,6s-5,5.8-5.4,6.2c-0.1,0.2-0.4,0.6-0.7,1c-0.1,0.2-0.3,0.4-0.4,0.5c0.1,0,0.2,0.1,0.2,0.1
				c3.3,1.4,10.5,3.2,33.6,2.8c25.4-0.4,31.2-2.4,32.1-2.9C86.5,13.7,86.5,13.7,86.6,13.7z"/>
			<g>
				
					<linearGradient id="SVGID_00000090975449545215913200000002995891362216619448_" gradientUnits="userSpaceOnUse" x1="53.391" y1="0.8111" x2="53.391" y2="7.4025">
					<stop  offset="0" style="stop-color:#191D32"/>
					<stop  offset="0.5036" style="stop-color:#606677"/>
				</linearGradient>
				<path style="fill:url(#SVGID_00000090975449545215913200000002995891362216619448_);" d="M21.6,12.3c0.4-0.4,3.3-5,5.4-6.2
					s9.1-1.9,16.5-2C51,3.9,62.4,4,62.4,4s10.9,0.5,12,0.5c1.1,0.1,5,0.4,7.6,3.4c1.8,2.2,3.4,4.2,4.3,5.4c-0.5-1.8-2.3-8.5-5.6-9.6
					C77,2.4,70.5,1.2,52.6,1.2S30.8,2.5,27.5,3.3c-3.2,0.8-4.2,3.9-4.2,3.9l-2.8,6.6c0.1-0.2,0.3-0.4,0.4-0.5
					C21.2,12.8,21.5,12.4,21.6,12.3z"/>
			</g>
			
				<linearGradient id="SVGID_00000075857614390878748950000010897717851419084967_" gradientUnits="userSpaceOnUse" x1="94.9331" y1="22.4889" x2="-5.8657" y2="27.1537">
				<stop  offset="0" style="stop-color:#96ABA0"/>
				<stop  offset="0.3292" style="stop-color:#5C6962"/>
				<stop  offset="0.6433" style="stop-color:#2A302D"/>
				<stop  offset="0.8753" style="stop-color:#0C0D0C"/>
				<stop  offset="1" style="stop-color:#000000"/>
			</linearGradient>
			<path style="fill:url(#SVGID_00000075857614390878748950000010897717851419084967_);" d="M88.6,17.9c-1.2-1.1-2.2-4.2-2.2-4.2
				c-0.9,0.5-6.7,2.6-32.1,2.9C31.2,17,24,15.3,20.7,13.8c0,0-0.8,1.9-1.3,2.8c-0.6,0.9-2.5,2.5-2.2,4.7c0.3,2.2,0.7,6.1,0.7,6.1
				s0.6,5.5,2.1,6.9c1,0.9,19.4,0.7,32,0.7C64.5,35.1,84,35,84,35s3.3,0.5,4.2-3c0.8-3.5,1.7-10.7,1.7-10.7S90.3,19.6,88.6,17.9z"/>
			<path class="st11" d="M12.7,21.8c-1.2,0.1-2.1,0.5-2.8,0.9c-0.2,0.3-0.3,0.6-0.5,1c-0.5,1.2-0.9,2.6-1.2,3.8
				c0.1,0.8,0.2,1.5,0.3,1.7C9,29.6,20.8,30,23.2,29.8c2.4-0.1,7.6-4.5,11.8-5.5c1.8-0.4,8.4-0.2,10.9-0.3c2.5-0.1,3.4-2.5,3.4-2.5
				C37.5,20.9,15.4,21.6,12.7,21.8z"/>
			<path class="st12" d="M98.5,29.2c0.2-0.1,0.3-0.7,0.3-1.4c0,0,0-0.1,0-0.1c-0.4-1.3-0.8-2.7-1.3-4c-0.1-0.3-0.3-0.7-0.5-1
				c-0.7-0.4-1.6-0.7-2.7-0.8c-2.7-0.2-24.8-0.9-36.6-0.3c0,0,0.9,2.4,3.4,2.5c2.5,0.1,9.1-0.2,10.9,0.3c4.1,1,9.4,5.4,11.8,5.5
				C86.2,30.1,98,29.6,98.5,29.2z"/>
			
				<linearGradient id="SVGID_00000130638618499367263540000008375461404539469752_" gradientUnits="userSpaceOnUse" x1="18.1996" y1="33.0289" x2="88.7307" y2="33.0289">
				<stop  offset="0" style="stop-color:#191D32"/>
				<stop  offset="0.5036" style="stop-color:#606677"/>
			</linearGradient>
			<path style="opacity:0.35;fill:url(#SVGID_00000130638618499367263540000008375461404539469752_);" d="M88.6,29.9
				c-0.1,0.8-0.3,1.5-0.4,2.1c-0.8,3.5-4.2,3-4.2,3s-19.5,0.1-32.1,0.1c-12.6,0-31,0.2-32-0.7c-0.8-0.8-1.4-2.9-1.7-4.6
				c0.1,1.8,0.5,4.6,1.7,5.3c1.8,1,25.8,1.2,33.5,1.2s30.9-0.2,32.6-0.6c1.6-0.4,2.8-2.5,2.7-5.8C88.7,29.9,88.6,29.9,88.6,29.9z"/>
			<g>
				<path class="st14" d="M21.4,7.7c0,0,0.1-0.1,0.1-0.1C21.5,7.7,21.4,7.7,21.4,7.7z"/>
				<path class="st14" d="M21.7,7.4c0,0,0.1-0.1,0.1-0.1C21.7,7.3,21.7,7.3,21.7,7.4z"/>
				<path class="st14" d="M21.9,7L21.9,7C21.9,7,21.9,7,21.9,7C21.9,7,21.9,7,21.9,7z"/>
				<g>
					<path class="st14" d="M20.5,9.1L20.5,9.1C20.6,9.1,20.6,9,20.5,9.1C20.6,9,20.6,9.1,20.5,9.1z"/>
					
						<linearGradient id="SVGID_00000077305744064689358140000018190588432291525018_" gradientUnits="userSpaceOnUse" x1="9.8764" y1="15.8926" x2="20.6815" y2="15.8926">
						<stop  offset="0" style="stop-color:#93A1B1"/>
						<stop  offset="1" style="stop-color:#5E738B"/>
					</linearGradient>
					<path style="fill:url(#SVGID_00000077305744064689358140000018190588432291525018_);" d="M12.7,21.8c0.6,0,2.2-0.1,4.5-0.2
						c0-0.1,0-0.2,0-0.3c-0.3-2.2,1.7-3.8,2.2-4.7c0.6-0.9,1.3-2.8,1.3-2.8s-1.5-0.2-0.8-3.1l0.6-1.6c-2,3.1-4,6.5-4.3,7.5
						c-0.6,1.8-3.6,2.9-5.4,4.8c-0.4,0.4-0.7,0.8-1,1.3C10.6,22.3,11.5,21.9,12.7,21.8z"/>
					<path class="st14" d="M9.7,23.1c0.1-0.1,0.1-0.3,0.2-0.4C9.8,22.8,9.7,23,9.7,23.1z"/>
					<path class="st14" d="M9.4,23.6c0.1-0.1,0.1-0.3,0.2-0.4C9.5,23.3,9.5,23.5,9.4,23.6z"/>
				</g>
				<path class="st14" d="M20.7,8.8c0,0,0.1-0.1,0.1-0.1C20.8,8.7,20.8,8.7,20.7,8.8z"/>
				<path class="st14" d="M20.9,13.9C20.9,13.9,20.9,13.9,20.9,13.9C20.9,13.9,20.9,13.9,20.9,13.9z"/>
				<path class="st14" d="M21.2,8.1c0,0,0.1-0.1,0.1-0.1C21.3,8,21.2,8,21.2,8.1z"/>
				<path class="st14" d="M21.2,14.1C21.2,14.1,21.2,14.1,21.2,14.1C21.2,14.1,21.2,14.1,21.2,14.1z"/>
				<path class="st14" d="M21,8.5c0,0,0-0.1,0.1-0.1C21,8.4,21,8.4,21,8.5z"/>
			</g>
			<g>
				<path class="st16" d="M85.7,14c0,0-0.1,0-0.1,0C85.6,14.1,85.7,14,85.7,14z"/>
				<path class="st16" d="M85.8,14c0,0-0.1,0-0.1,0C85.8,14,85.8,14,85.8,14z"/>
				<path class="st16" d="M85.6,14.1c-0.3,0.1-0.7,0.2-1.3,0.4C84.8,14.3,85.3,14.2,85.6,14.1z"/>
				<path class="st16" d="M86.4,13.7C86.4,13.7,86.4,13.8,86.4,13.7C86.4,13.8,86.4,13.7,86.4,13.7z"/>
				<g>
					<path class="st14" d="M97.6,23.9c0-0.1-0.1-0.2-0.1-0.3C97.6,23.7,97.6,23.8,97.6,23.9L97.6,23.9z"/>
					<path class="st14" d="M97.5,23.6c-0.1-0.1-0.1-0.3-0.2-0.4C97.4,23.3,97.5,23.5,97.5,23.6z"/>
					<path class="st14" d="M97.1,22.7c0.1,0.1,0.1,0.3,0.2,0.4C97.2,23,97.1,22.8,97.1,22.7z"/>
					
						<linearGradient id="SVGID_00000054267110715955487150000001332575135863134883_" gradientUnits="userSpaceOnUse" x1="86.3934" y1="16.2767" x2="97.0526" y2="16.2767">
						<stop  offset="0" style="stop-color:#93A1B1"/>
						<stop  offset="1" style="stop-color:#5E738B"/>
					</linearGradient>
					<path style="fill:url(#SVGID_00000054267110715955487150000001332575135863134883_);" d="M86.4,13.7c0,0,1,3.1,2.2,4.2
						c1.8,1.6,1.3,3.3,1.3,3.3s0,0.2-0.1,0.4c2.3,0.1,3.9,0.1,4.5,0.2c1.1,0.1,2,0.4,2.7,0.8c-0.3-0.5-0.6-1-1-1.3
						c-1.8-1.8-4.9-2.9-5.4-4.8c-0.3-0.9-2-3.8-3.8-6.7l0,0.1C87.2,11.3,87.6,13.4,86.4,13.7z"/>
				</g>
				<path class="st16" d="M85.9,13.9C85.9,14,85.9,14,85.9,13.9C85.9,14,85.9,14,85.9,13.9z"/>
				<path class="st16" d="M86,13.9C86,13.9,86,13.9,86,13.9C86,13.9,86,13.9,86,13.9z"/>
				<path class="st16" d="M86.3,13.8C86.3,13.8,86.2,13.8,86.3,13.8C86.2,13.8,86.3,13.8,86.3,13.8z"/>
				<path class="st16" d="M86.3,13.8C86.3,13.8,86.3,13.8,86.3,13.8C86.3,13.8,86.3,13.8,86.3,13.8z"/>
				<path class="st16" d="M86.2,13.8C86.2,13.8,86.2,13.9,86.2,13.8C86.2,13.9,86.2,13.8,86.2,13.8z"/>
				<path class="st16" d="M86.1,13.9C86.1,13.9,86.1,13.9,86.1,13.9C86.1,13.9,86.1,13.9,86.1,13.9z"/>
			</g>
			
				<linearGradient id="SVGID_00000137854119472315856320000000944094470117494187_" gradientUnits="userSpaceOnUse" x1="75.446" y1="38.5242" x2="3.6497" y2="72.1914">
				<stop  offset="0" style="stop-color:#93A1B1"/>
				<stop  offset="1" style="stop-color:#5E738B"/>
			</linearGradient>
			<path style="fill:url(#SVGID_00000137854119472315856320000000944094470117494187_);" d="M27.8,51.3l0.8,0
				c8.6-0.4,41.1-0.4,49.7,0l0.8,0c1.5,0,2.8,0.2,4,0.5l-5.9-6.4c0,0-4-6.1-10.6-6.1c-4.5,0-10.1,0-13.1,0.1c-3,0-8.6-0.1-13.1-0.1
				c-6.6,0-10.6,6.1-10.6,6.1l-6,6.4c0,0,0,0,0,0C24.9,51.5,26.3,51.3,27.8,51.3z"/>
			
				<linearGradient id="SVGID_00000045604708464173451550000017455243012037486985_" gradientUnits="userSpaceOnUse" x1="21.8477" y1="47.96" x2="8.2591" y2="47.96">
				<stop  offset="0" style="stop-color:#93A1B1;stop-opacity:0"/>
				<stop  offset="1" style="stop-color:#5E738B"/>
			</linearGradient>
			<path style="opacity:0.54;fill:url(#SVGID_00000045604708464173451550000017455243012037486985_);" d="M17.9,41.5
				c0,0-7.3-0.1-8.5,0.3S7.6,44,7,45.5c-0.5,1.5-1.5,6.7-0.9,8.2c0.3,0.7,0.7,0.6,4.2,0.6s5.5,0.4,6.4-0.1c0.9-0.5,3.7-3.5,6.4-3.7
				L17.9,41.5z"/>
			<path class="st0" d="M10.3,42.7c0,0.9-0.1,1.8-0.2,2.7c-0.3,2.2-0.7,6-1.6,6.9c-1.1,1.1-1.2,1.5-1.8,1.2s-0.5-8,2.1-10.9
				c0.5-0.6,1.6-0.4,1.6-0.4L10.3,42.7z"/>
			
				<linearGradient id="SVGID_00000031193826690435158000000001981002985389706163_" gradientUnits="userSpaceOnUse" x1="86.1182" y1="47.8727" x2="100.4166" y2="48.0755">
				<stop  offset="0" style="stop-color:#93A1B1;stop-opacity:0"/>
				<stop  offset="1" style="stop-color:#5E738B"/>
			</linearGradient>
			<path style="opacity:0.54;fill:url(#SVGID_00000031193826690435158000000001981002985389706163_);" d="M89.1,41.5
				c0,0,7.3-0.1,8.5,0.3s1.8,2.2,2.4,3.7c0.5,1.5,1.5,6.7,0.9,8.2c-0.3,0.7-0.7,0.6-4.2,0.6c-3.5,0-5.5,0.4-6.4-0.1
				c-0.9-0.5-3.7-3.5-6.4-3.7L89.1,41.5z"/>
			<path class="st0" d="M96.7,42.7c0,0.9,0.1,1.8,0.2,2.7c0.3,2.2,0.7,6,1.6,6.9c1.1,1.1,1.2,1.5,1.8,1.2s0.5-8-2.1-10.9
				c-0.5-0.6-1.6-0.4-1.6-0.4L96.7,42.7z"/>
			<path class="st21" d="M15.6,55.2H15c0,0,0,0,0,0c0,0,0,0,0,0c0,0,0,0,0,0c0,0,0,0,0,0c0,0,0,0,0,0c0,0,0,0,0,0c0,0,0,0,0,0
				c0,0,0,0,0,0c0,0,0,0,0,0c0,0,0,0,0,0c0,0,0,0,0,0c0,0,0,0,0,0c0,0,0,0,0,0c0,0,0,0,0,0c0,0,0,0,0,0c0,0,0,0,0,0c0,0,0,0,0,0
				c0,0,0,0,0,0c0,0,0,0,0,0c0,0,0,0,0,0c0,0,0,0,0,0c0,0,0,0,0,0c0,0,0,0,0,0c0,0,0,0,0,0c0,0,0,0,0,0c0,0,0,0,0,0c0,0,0,0,0,0
				c0,0,0,0,0,0s-0.8,1-1.6,1.8c-0.3,0.3-0.6,0.5-0.9,0.6c-1,0.4-3.7,0.2-4.5-0.2c-0.8-0.4-1.3-2-1.3-2.3c0,0,0-0.1,0-0.1
				c0,0,0,0,0,0c0,0,0-0.1,0-0.1c0,0,0,0,0,0c0,0,0,0,0-0.1c0,0,0,0,0,0c0,0,0,0,0-0.1H6.6c-0.3,0.1-0.3,0.4-0.3,0.4s0,1.8,1.2,2.6
				c1.2,0.8,5.2,0.5,6,0.4s2.8-2.7,2.8-2.7C16.9,55.1,15.6,55.2,15.6,55.2z"/>
			<path class="st21" d="M91.6,55.2h0.6c-0.3,0.1,0.1,0.5,0.1,0.5s1.5,2,2.5,2.4s3.7,0.2,4.5-0.2c0.8-0.4,1.3-2,1.3-2.3
				c0-0.2,0-0.3-0.1-0.3h0.1c0.3,0.1,0.3,0.4,0.3,0.4s0,1.8-1.2,2.6c-1.2,0.8-5.2,0.5-6,0.4c-0.8-0.1-2.8-2.7-2.8-2.7
				C90.4,55.1,91.6,55.2,91.6,55.2z"/>
			
				<linearGradient id="SVGID_00000124159384811550335130000003580171620761561478_" gradientUnits="userSpaceOnUse" x1="53.4168" y1="29.915" x2="53.4168" y2="35.0867">
				<stop  offset="0" style="stop-color:#5E738B"/>
				<stop  offset="1" style="stop-color:#B0BAC6"/>
			</linearGradient>
			<path style="fill:url(#SVGID_00000124159384811550335130000003580171620761561478_);" d="M53.4,33.3c-11.1,0-29.9,0.3-34,0.4
				c0.2,0.3,0.3,0.5,0.5,0.7c1,0.9,19.4,0.7,32,0.7C64.5,35.1,84,35,84,35s2.2,0.3,3.4-1.4C81.1,33.5,63.5,33.3,53.4,33.3z"/>
			
				<linearGradient id="SVGID_00000170985409194140271650000007475275246955732127_" gradientUnits="userSpaceOnUse" x1="56.4286" y1="18.7131" x2="100.2365" y2="27.5356">
				<stop  offset="0" style="stop-color:#93A1B1"/>
				<stop  offset="1" style="stop-color:#5E738B"/>
			</linearGradient>
			<path style="fill:url(#SVGID_00000170985409194140271650000007475275246955732127_);" d="M89.8,21.9c0.1-0.4,0.1-0.6,0.1-0.6
				s0.5-1.7-1.3-3.3c-1.2-1.1-2.2-4.2-2.2-4.2c-0.9,0.5-6.7,2.6-32.1,2.9C31.2,17,24,15.3,20.7,13.8c0,0-0.8,1.9-1.3,2.8
				c-0.6,0.9-2.5,2.5-2.2,4.7c0,0.1,0,0.3,0.1,0.5c4-0.2,16.5-0.8,36.4-0.8C72.1,21,84.7,21.6,89.8,21.9z"/>
			<path class="st24" d="M86.6,13.7c-0.9-1-2.5-3.2-4.4-5.5c-0.3,0.5-0.6,0.9-1,1.1c-3.7,2.4-20.4,5.6-39.5,4.6
				c-8.5-0.5-15.3-1-20.1-1.5c-0.2,0.2-0.4,0.5-0.6,0.8c-0.1,0.2-0.3,0.4-0.4,0.5c0.1,0,0.2,0.1,0.2,0.1c3.3,1.4,10.5,3.2,33.6,2.8
				c25.4-0.4,31.2-2.4,32.1-2.9C86.5,13.7,86.5,13.7,86.6,13.7z"/>
			<path class="st12" d="M43.6,22.6c-2.6-0.2-11.4,0-12.3,0.8c-0.9,0.8-3.7,2.1-5,3.3c-1.4,1.2-4.9,1.5-7.5,1.4
				c-1.9-0.1-7.6-0.5-10.6-0.8c0,0.1,0,0.1-0.1,0.2c0.1,0.8,0.2,1.5,0.3,1.7C9,29.6,20.8,30,23.2,29.8c2.4-0.1,7.6-4.5,11.8-5.5
				c1.8-0.4,8.4-0.2,10.9-0.3c2.5-0.1,3.4-2.5,3.4-2.5c-1,0-2-0.1-3.1-0.1C46,21.8,45.6,22.7,43.6,22.6z"/>
			<path class="st11" d="M93,27.5c1.6,0,4.6,0.7,3.3-5.2c-0.6-0.2-1.2-0.4-1.9-0.5c-1.7-0.1-11.4-0.5-21.2-0.5
				c0.7,1.1,1.7,1.7,2.5,1.8c1.1,0.2,5.7,2.6,7.4,4.1C84.7,28.8,91.4,27.5,93,27.5z"/>
		</g>
	</g>
	<g>
		<defs>
			<path id="SVGID_00000097464050711396247630000008690689017397204923_" d="M95.1,18c-0.6,0.1-1.3-0.2-1.6-0.8
				c-0.6-1-1.3-2.5-1.3-3.6c0-0.6,0.1-1,0.3-1.2c0.2-0.2,0.4-0.3,0.8-0.3c0.1,0,0.3,0,0.4,0c2,0.1,6.6,1.7,7.2,2.4
				c0.1,0.2,0.2,0.9,0,1.6c-0.1,0.4-0.2,0.5-0.2,0.5C100.3,16.9,97.7,17.5,95.1,18z"/>
		</defs>
		<clipPath id="SVGID_00000158733032357332308080000016796078169743303849_">
			<use xlink:href="#SVGID_00000097464050711396247630000008690689017397204923_"  style="overflow:visible;"/>
		</clipPath>
		<g style="clip-path:url(#SVGID_00000158733032357332308080000016796078169743303849_);">
			<path class="st26" d="M97.5,17c0,0,0.5,0,0.5,0.1c0,0,0.2,0.2-0.4,0.2s-2,0.1-2.3,0c-0.3,0-0.7-0.1-0.9-0.1s-0.6-0.2-0.8-0.3
				c-0.2,0-0.5-0.1-0.5-0.1c0,0,0.1-0.2,0.9-0.1c0.9,0,1.8,0.3,2,0.3c0.2,0,0.7,0,1,0.1C97.3,17,97.5,17,97.5,17z"/>
			<g>
				<path class="st26" d="M96.6,15.2C96.6,15.2,96.6,15.3,96.6,15.2c0,0.1,0,0.1,0.1,0.1s0.2,0,0.2,0s0.1-0.1,0-0.1
					c0,0-0.1,0-0.2-0.1C96.7,15.2,96.7,15.2,96.6,15.2C96.6,15.2,96.6,15.3,96.6,15.2L96.6,15.2C96.6,15.3,96.6,15.2,96.6,15.2z"/>
				<path class="st27" d="M96.8,15.2c-0.1,0-0.1,0-0.2,0C96.7,15.2,96.7,15.2,96.8,15.2C96.8,15.2,96.9,15.2,96.8,15.2
					C96.9,15.2,96.9,15.2,96.8,15.2C96.9,15.2,96.9,15.2,96.8,15.2z"/>
				<path class="st27" d="M94.2,15.7l0.6,0.2l0.8,0.1l0.2-0.2l0.4,0l0.9,0l0.4,0.1c0,0,0.1,0,0.2,0.2c0.1,0.2,0.2,0.3,0.2,0.3l0,0.1
					l0,0.2l-0.1,0.1c0,0-1.3,0.1-1.3,0.1s-1.6,0-1.6,0l-0.9-0.2l-1-0.3l-0.2-0.2l0-0.4L94.2,15.7z"/>
				<path class="st28" d="M97.4,15.8c0,0-1.3,0-1.4,0.1s-0.1,0-0.1,0.1c0,0.1-0.1,0.1-0.1,0.1c0,0-0.4,0-0.4,0s0.1-0.3,0.1-0.3
					c0,0,0.2,0,0.2,0c0,0,1.1,0,1.1,0L97.4,15.8z"/>
				<path class="st28" d="M97.4,15.8c0,0,0.1,0.1,0.1,0.1s0,0.1,0,0.1c0,0-0.9,0-0.9,0l-0.8,0l1.9,0l0-0.2L97.4,15.8L97.4,15.8z"/>
				<g class="st29">
					<path class="st27" d="M95.1,16.5c0,0,0.2-0.1,0.2-0.1s0.2,0,0.2,0l0.4,0.1c0,0,0.2,0-0.1,0c-0.2,0-0.5,0-0.5,0s0,0,0,0
						c0,0,0,0,0,0.1l0.6,0v0.1l-0.6-0.1c0,0,0,0,0,0c0,0,0,0-0.1,0.1s-0.2,0-0.2,0l0-0.1L95.1,16.5z M95.3,16.6
						C95.3,16.6,95.4,16.6,95.3,16.6c0.1-0.1,0-0.1,0-0.1C95.2,16.5,95.2,16.5,95.3,16.6C95.2,16.6,95.2,16.6,95.3,16.6z"/>
					<path class="st27" d="M95.3,16.5C95.3,16.5,95.3,16.5,95.3,16.5c0.1,0.1,0,0.1,0,0.1S95.2,16.6,95.3,16.5
						C95.2,16.5,95.3,16.5,95.3,16.5z M95.3,16.6C95.3,16.6,95.3,16.6,95.3,16.6C95.3,16.5,95.3,16.5,95.3,16.6
						C95.3,16.5,95.3,16.5,95.3,16.6C95.3,16.6,95.3,16.6,95.3,16.6C95.3,16.6,95.3,16.6,95.3,16.6C95.3,16.6,95.3,16.6,95.3,16.6z"
						/>
				</g>
				<path class="st30" d="M97.7,16.6c0.1,0,0.1,0,0.2,0c0,0,0-0.2,0-0.2l-0.1,0l-0.1,0.1c0,0,0,0-0.1,0.1c0,0,0,0,0,0l0.1,0
					c0,0,0,0,0,0c0,0,0-0.1,0.1-0.1c0,0,0.1,0,0.1,0.1c0,0,0,0.1-0.1,0.1c0,0-0.1,0-0.1-0.1L97.7,16.6
					C97.6,16.6,97.7,16.6,97.7,16.6z M97.8,16.5C97.8,16.5,97.8,16.5,97.8,16.5C97.8,16.5,97.8,16.5,97.8,16.5
					C97.8,16.5,97.8,16.4,97.8,16.5C97.8,16.4,97.8,16.5,97.8,16.5z M97.8,16.5C97.8,16.5,97.8,16.5,97.8,16.5
					C97.8,16.5,97.8,16.5,97.8,16.5C97.8,16.5,97.8,16.5,97.8,16.5C97.8,16.5,97.8,16.5,97.8,16.5C97.8,16.5,97.8,16.5,97.8,16.5z"
					/>
				<path class="st28" d="M97.6,16.3c0,0-0.4,0-0.8,0s-0.9,0-0.9,0l0,0c0,0,0.4,0,0.9,0s0.6,0,0.6,0L97.6,16.3L97.6,16.3z"/>
				<path class="st26" d="M94.3,15.9C94.3,15.9,94.4,15.9,94.3,15.9l0.1,0c0,0,0,0,0.1,0.1c0,0.1,0.1,0.3,0.2,0.5
					c0,0.2,0,0.3,0.1,0.3c0,0,0,0.1,0.2,0.1c0,0,0.1,0,0.1,0c0,0,0,0.1-0.1,0.2c0,0.1-0.1,0.1-0.1,0.1c0,0-0.3,0-0.4,0
					s-0.1-0.1-0.2-0.1c0-0.1-0.1-0.2-0.1-0.4C94.1,16.6,94.1,16.1,94.3,15.9z"/>
				<path class="st26" d="M97.7,16.8c0,0-0.1,0.3-0.3,0.3l-0.3,0c0,0-0.1,0-0.1,0c0,0-0.1,0-0.2-0.1c-0.1-0.1-0.1-0.2-0.1-0.2l0.8,0
					L97.7,16.8z"/>
				<path class="st26" d="M92.9,16.2c0-0.2,0-0.4,0.1-0.4c0,0,0,0,0,0c0,0,0,0,0,0c0.1,0.1,0.1,0.5,0.2,0.6c0,0,0,0.1,0,0.1
					c0,0,0.1,0,0.1,0c0,0,0.1,0,0.1,0l0,0c0,0,0,0,0,0c0,0.1,0,0.2-0.1,0.2c0,0-0.2,0-0.2,0s-0.1,0-0.1,0c0,0-0.1,0-0.1-0.1
					C92.9,16.5,92.9,16.4,92.9,16.2z"/>
				<path class="st31" d="M92.9,15.8c0,0,0-0.1,0-0.1c0-0.1,0.1-0.4,0.1-0.4c0,0,0.1-0.1,0.1-0.1s0.1-0.1,0.1-0.2
					c0,0,0.1-0.1,0.2-0.2s0.4-0.2,0.5-0.2c0.1,0,0.1,0,0.1,0s0.1,0,0.5,0c0.6,0,1,0.1,1,0.1s0,0,0.1,0c0.1,0,0.3,0.1,0.4,0.1
					c0.1,0.1,0.5,0.4,0.6,0.4c0,0,0.1,0.1,0.2,0.1c0.1,0,0.4,0.1,0.5,0.1c0.1,0,0.2,0.1,0.2,0.2c0,0,0,0,0.1,0c0,0,0.1,0.1,0.1,0.1
					l0,0.1c0,0,0,0,0,0c0,0,0,0.1,0,0.2c0,0.1,0.1,0.2,0.1,0.2c0,0.1,0,0.3,0,0.3l0,0c0,0.1-0.1,0.1-0.1,0.1l-0.1,0c0,0,0,0,0,0
					s-0.6,0-0.7,0c-0.2,0-1,0-1,0c-0.1,0-0.1,0-0.1,0l-0.4,0c-0.2,0-0.3,0-0.4,0c0,0,0,0,0,0c0,0-0.1,0-0.1,0
					c-0.1,0-0.2-0.1-0.2-0.1c0,0,0-0.1-0.1-0.3c0-0.2-0.1-0.5-0.2-0.5c0,0,0,0,0,0c0,0-0.1-0.1-0.1-0.1c-0.2,0.1-0.2,0.5-0.2,0.6
					c0,0.1,0,0.2,0,0.2c0,0,0,0,0,0c0,0,0,0,0,0l0,0c0,0-0.5-0.1-0.6-0.2c0,0,0,0,0,0l0,0c0,0-0.1,0-0.1,0c0,0-0.1,0-0.1,0
					c0,0,0,0,0-0.1c0,0-0.1-0.6-0.2-0.6C93,15.8,93,15.8,92.9,15.8c0.1,0,0,0,0,0.3C92.9,16,92.9,15.9,92.9,15.8z M97.6,16.6
					C97.6,16.6,97.6,16.7,97.6,16.6c0.1,0.1,0.2,0,0.3,0c0,0,0.1-0.2,0-0.2c0,0-0.2,0-0.2,0.1C97.6,16.5,97.6,16.6,97.6,16.6z
					 M96.2,16.6c0.1,0,0.9,0,1,0c0.1,0,0.1-0.1,0.1-0.1l0.1-0.2l0.1,0c0,0,0.1-0.2,0.1-0.3c0,0-0.1-0.2-0.1-0.2c-0.1,0-0.1,0-0.1,0
					l-1.2,0c0,0-0.3,0-0.4,0c0,0,0,0.1-0.2,0.2l0.1,0c0,0,0.1,0,0.2,0.1c0,0.1,0.1,0.2,0.1,0.2S96.2,16.6,96.2,16.6z M95.2,16.7
					c0.1,0,0.5,0,0.6,0c0.1,0,0.2,0,0.2-0.1c0,0,0-0.1-0.1-0.2c0,0-0.1,0-0.3,0c-0.2,0-0.4,0-0.5,0.1C95.1,16.6,95.1,16.7,95.2,16.7
					z"/>
				<g>
					
						<radialGradient id="SVGID_00000165223797296974672300000000710482530766908037_" cx="70.8013" cy="14.6687" r="0.8333" gradientTransform="matrix(-1 0 0 1 164.5734 0)" gradientUnits="userSpaceOnUse">
						<stop  offset="0" style="stop-color:#F3FCF5"/>
						<stop  offset="1" style="stop-color:#D8E2EC"/>
					</radialGradient>
					<path style="fill:url(#SVGID_00000165223797296974672300000000710482530766908037_);" d="M93,15.3c0,0,0.1-0.1,0.1-0.1
						s0.1-0.1,0.1-0.2c0,0,0.1-0.1,0.2-0.2s0.4-0.2,0.5-0.2c0.1,0,0.1,0,0.1,0c0.1,0,0.1,0.1,0.1,0.1c0,0,0,0,0,0
						c0,0.1,0.1,0.4,0.1,0.4c0,0-0.1,0-0.1,0.1c0,0,0-0.1,0-0.1c0,0-0.1-0.4-0.1-0.4c0,0,0-0.1-0.1-0.1c-0.1,0-0.3,0.1-0.4,0.2
						c-0.1,0.1-0.2,0.2-0.2,0.2c0,0,0,0.1,0,0.1c0,0,0,0,0,0.1c0,0-0.1,0.1-0.1,0.1c0,0,0,0,0,0C93.1,15.4,93,15.4,93,15.3
						C93,15.3,93,15.3,93,15.3z"/>
				</g>
				
					<radialGradient id="SVGID_00000027603426206856060670000002622547112165255087_" cx="71.5564" cy="15.4417" r="0.3867" gradientTransform="matrix(-1 0 0 1 164.5734 0)" gradientUnits="userSpaceOnUse">
					<stop  offset="0" style="stop-color:#F3FCF5"/>
					<stop  offset="1" style="stop-color:#D8E2EC"/>
				</radialGradient>
				<path style="fill:url(#SVGID_00000027603426206856060670000002622547112165255087_);" d="M92.9,15.8c0,0,0-0.1,0-0.1
					c0-0.1,0.1-0.3,0.1-0.4c0,0,0.1,0.1,0.1,0.1c0,0.1,0,0.3,0,0.4c0,0.1,0.1,0.5,0.2,0.6c0,0,0.2,0.1,0.3,0.1
					c0.1,0,0.4,0.1,0.4,0.1l0,0c0,0,0,0,0,0c0,0,0,0,0,0c0,0,0,0,0,0c0,0,0,0,0,0l0,0c0,0-0.5-0.1-0.6-0.2c0,0,0,0,0,0l0,0
					c0,0-0.1,0-0.1,0c0,0-0.1,0-0.1,0c0,0,0,0,0-0.1c0,0-0.1-0.6-0.2-0.6C93,15.8,93,15.8,92.9,15.8c0.1,0,0,0,0,0.3
					C92.9,16,92.9,15.9,92.9,15.8z"/>
				
					<radialGradient id="SVGID_00000157300764200697036960000011443215442328489643_" cx="69.9912" cy="15.4161" r="0.9224" gradientTransform="matrix(-0.9823 -0.1873 -0.1172 0.6144 165.1407 19.054)" gradientUnits="userSpaceOnUse">
					<stop  offset="0" style="stop-color:#F3FCF5"/>
					<stop  offset="1" style="stop-color:#D8E2EC"/>
				</radialGradient>
				<path style="fill:url(#SVGID_00000157300764200697036960000011443215442328489643_);" d="M94,15.9c0-0.2,0-0.2,0.1-0.3
					c0.1-0.1,0.1-0.2,0.1-0.2s0-0.1,0.2-0.2c0,0,0,0,0.1,0.1c0,0,0,0,0.1,0l0,0c0,0,0.4,0.1,0.7,0.2s0.4,0.2,0.5,0.2c0,0,0,0,0,0
					c0,0,0.1,0.1,0.1,0.2c0,0-0.3-0.1-0.4-0.2c-0.1,0-0.3-0.1-0.4-0.1c-0.1,0-0.3,0.1-0.3,0.1s0,0-0.1,0.1c-0.1,0-0.1,0.1-0.1,0.1
					l0,0.1c0,0-0.1,0-0.1,0c-0.2,0.1-0.2,0.5-0.2,0.6c0,0.1,0,0.2,0,0.2l0,0C94.1,16.6,94,16.3,94,15.9z"/>
				<g>
					
						<radialGradient id="SVGID_00000121993193380813752520000016216796929102332817_" cx="70.8013" cy="14.6687" r="0.8333" gradientTransform="matrix(-1 0 0 1 164.5734 0)" gradientUnits="userSpaceOnUse">
						<stop  offset="0" style="stop-color:#F3FCF5"/>
						<stop  offset="1" style="stop-color:#D8E2EC"/>
					</radialGradient>
					<path style="fill:url(#SVGID_00000121993193380813752520000016216796929102332817_);" d="M94.1,16.7
						C94.1,16.6,94.1,16.6,94.1,16.7C94.1,16.6,94.1,16.6,94.1,16.7z"/>
					
						<radialGradient id="SVGID_00000132068372553622606900000009546099860510920338_" cx="70.8013" cy="14.6687" r="0.8333" gradientTransform="matrix(-1 0 0 1 164.5734 0)" gradientUnits="userSpaceOnUse">
						<stop  offset="0" style="stop-color:#F3FCF5"/>
						<stop  offset="1" style="stop-color:#D8E2EC"/>
					</radialGradient>
					<path style="fill:url(#SVGID_00000132068372553622606900000009546099860510920338_);" d="M94.1,16.6
						C94.1,16.6,94.1,16.6,94.1,16.6C94.1,16.6,94.1,16.6,94.1,16.6z"/>
					
						<radialGradient id="SVGID_00000115481594618457250120000004462694063398572223_" cx="70.8013" cy="14.6687" r="0.8333" gradientTransform="matrix(-1 0 0 1 164.5734 0)" gradientUnits="userSpaceOnUse">
						<stop  offset="0" style="stop-color:#F3FCF5"/>
						<stop  offset="1" style="stop-color:#D8E2EC"/>
					</radialGradient>
					<path style="fill:url(#SVGID_00000115481594618457250120000004462694063398572223_);" d="M94.1,16.6
						C94.1,16.6,94.1,16.6,94.1,16.6C94.1,16.6,94.1,16.6,94.1,16.6z"/>
					
						<radialGradient id="SVGID_00000088845064589687209230000005193507367923753119_" cx="70.8013" cy="14.6687" r="0.8333" gradientTransform="matrix(-1 0 0 1 164.5734 0)" gradientUnits="userSpaceOnUse">
						<stop  offset="0" style="stop-color:#F3FCF5"/>
						<stop  offset="1" style="stop-color:#D8E2EC"/>
					</radialGradient>
					<path style="fill:url(#SVGID_00000088845064589687209230000005193507367923753119_);" d="M94.1,14.6
						C94.1,14.6,94.1,14.6,94.1,14.6C94.1,14.6,94.1,14.6,94.1,14.6z"/>
					
						<radialGradient id="SVGID_00000127037833762413019520000002987599720769848238_" cx="70.8013" cy="14.6687" r="0.8333" gradientTransform="matrix(-1 0 0 1 164.5734 0)" gradientUnits="userSpaceOnUse">
						<stop  offset="0" style="stop-color:#F3FCF5"/>
						<stop  offset="1" style="stop-color:#D8E2EC"/>
					</radialGradient>
					<path style="fill:url(#SVGID_00000127037833762413019520000002987599720769848238_);" d="M94.1,14.6
						C94.1,14.6,94.1,14.6,94.1,14.6C94.1,14.6,94.1,14.6,94.1,14.6z"/>
					
						<radialGradient id="SVGID_00000114756812499670320120000006960979583023742601_" cx="70.8013" cy="14.6687" r="0.8333" gradientTransform="matrix(-1 0 0 1 164.5734 0)" gradientUnits="userSpaceOnUse">
						<stop  offset="0" style="stop-color:#F3FCF5"/>
						<stop  offset="1" style="stop-color:#D8E2EC"/>
					</radialGradient>
					<path style="fill:url(#SVGID_00000114756812499670320120000006960979583023742601_);" d="M94.1,14.6
						C94.2,14.6,94.2,14.6,94.1,14.6C94.2,14.6,94.2,14.6,94.1,14.6z"/>
					<g>
						
							<radialGradient id="SVGID_00000128455631623641831290000007450090858323758976_" cx="71.2938" cy="15.2099" r="4.672963e-05" gradientTransform="matrix(-1 0 0 1 164.5734 0)" gradientUnits="userSpaceOnUse">
							<stop  offset="0" style="stop-color:#F3FCF5"/>
							<stop  offset="1" style="stop-color:#D8E2EC"/>
						</radialGradient>
						<path style="fill:url(#SVGID_00000128455631623641831290000007450090858323758976_);" d="M93.3,15.2
							C93.3,15.2,93.3,15.2,93.3,15.2C93.3,15.2,93.3,15.2,93.3,15.2z"/>
						
							<radialGradient id="SVGID_00000071554267200925003510000005408994894834207368_" cx="71.2886" cy="15.2119" r="3.789644e-05" gradientTransform="matrix(-1 0 0 1 164.5734 0)" gradientUnits="userSpaceOnUse">
							<stop  offset="0" style="stop-color:#F3FCF5"/>
							<stop  offset="1" style="stop-color:#D8E2EC"/>
						</radialGradient>
						<path style="fill:url(#SVGID_00000071554267200925003510000005408994894834207368_);" d="M93.3,15.2
							C93.3,15.2,93.3,15.2,93.3,15.2C93.3,15.2,93.3,15.2,93.3,15.2z"/>
						
							<radialGradient id="SVGID_00000012462160163569886530000011375669194695778696_" cx="71.2985" cy="15.208" r="4.288127e-05" gradientTransform="matrix(-1 0 0 1 164.5734 0)" gradientUnits="userSpaceOnUse">
							<stop  offset="0" style="stop-color:#F3FCF5"/>
							<stop  offset="1" style="stop-color:#D8E2EC"/>
						</radialGradient>
						<path style="fill:url(#SVGID_00000012462160163569886530000011375669194695778696_);" d="M93.3,15.2
							C93.3,15.2,93.3,15.2,93.3,15.2C93.3,15.2,93.3,15.2,93.3,15.2z"/>
						
							<radialGradient id="SVGID_00000168084628786074567110000005352184173234023071_" cx="71.3025" cy="15.2062" r="1.800253e-05" gradientTransform="matrix(-1 0 0 1 164.5734 0)" gradientUnits="userSpaceOnUse">
							<stop  offset="0" style="stop-color:#F3FCF5"/>
							<stop  offset="1" style="stop-color:#D8E2EC"/>
						</radialGradient>
						<path style="fill:url(#SVGID_00000168084628786074567110000005352184173234023071_);" d="M93.3,15.2
							C93.3,15.2,93.3,15.2,93.3,15.2C93.3,15.2,93.3,15.2,93.3,15.2z"/>
						
							<radialGradient id="SVGID_00000168089139385592929530000008672905134806701230_" cx="71.309" cy="15.2019" r="1.676187e-05" gradientTransform="matrix(-1 0 0 1 164.5734 0)" gradientUnits="userSpaceOnUse">
							<stop  offset="0" style="stop-color:#F3FCF5"/>
							<stop  offset="1" style="stop-color:#D8E2EC"/>
						</radialGradient>
						<path style="fill:url(#SVGID_00000168089139385592929530000008672905134806701230_);" d="M93.3,15.2
							C93.3,15.2,93.3,15.2,93.3,15.2C93.3,15.2,93.3,15.2,93.3,15.2z"/>
						
							<radialGradient id="SVGID_00000059997299924635197400000008085588628050192513_" cx="71.3058" cy="15.2045" r="9.173173e-06" gradientTransform="matrix(-1 0 0 1 164.5734 0)" gradientUnits="userSpaceOnUse">
							<stop  offset="0" style="stop-color:#F3FCF5"/>
							<stop  offset="1" style="stop-color:#D8E2EC"/>
						</radialGradient>
						<path style="fill:url(#SVGID_00000059997299924635197400000008085588628050192513_);" d="M93.3,15.2
							C93.3,15.2,93.3,15.2,93.3,15.2C93.3,15.2,93.3,15.2,93.3,15.2z"/>
					</g>
					
						<radialGradient id="SVGID_00000018198479276621216100000010050404320199025840_" cx="70.8013" cy="14.6687" r="0.8333" gradientTransform="matrix(-1 0 0 1 164.5734 0)" gradientUnits="userSpaceOnUse">
						<stop  offset="0" style="stop-color:#F3FCF5"/>
						<stop  offset="1" style="stop-color:#D8E2EC"/>
					</radialGradient>
					<path style="fill:url(#SVGID_00000018198479276621216100000010050404320199025840_);" d="M94.1,14.6
						C94.1,14.6,94.1,14.6,94.1,14.6C94.1,14.6,94.1,14.6,94.1,14.6z"/>
					
						<radialGradient id="SVGID_00000022527270732698072450000005534091642325156744_" cx="70.8013" cy="14.6687" r="0.8333" gradientTransform="matrix(-1 0 0 1 164.5734 0)" gradientUnits="userSpaceOnUse">
						<stop  offset="0" style="stop-color:#F3FCF5"/>
						<stop  offset="1" style="stop-color:#D8E2EC"/>
					</radialGradient>
					<path style="fill:url(#SVGID_00000022527270732698072450000005534091642325156744_);" d="M94.1,16.6
						C94.1,16.6,94.1,16.6,94.1,16.6C94.1,16.6,94.1,16.6,94.1,16.6z"/>
					
						<radialGradient id="SVGID_00000072254991786583496310000008169170902407766684_" cx="70.8013" cy="14.6687" r="0.8333" gradientTransform="matrix(-1 0 0 1 164.5734 0)" gradientUnits="userSpaceOnUse">
						<stop  offset="0" style="stop-color:#F3FCF5"/>
						<stop  offset="1" style="stop-color:#D8E2EC"/>
					</radialGradient>
					<path style="fill:url(#SVGID_00000072254991786583496310000008169170902407766684_);" d="M94.1,16.6
						C94.1,16.6,94.1,16.6,94.1,16.6C94.1,16.6,94.1,16.6,94.1,16.6z"/>
					
						<radialGradient id="SVGID_00000155134094351901339510000011576109583676986258_" cx="70.8013" cy="14.6687" r="0.8333" gradientTransform="matrix(-1 0 0 1 164.5734 0)" gradientUnits="userSpaceOnUse">
						<stop  offset="0" style="stop-color:#F3FCF5"/>
						<stop  offset="1" style="stop-color:#D8E2EC"/>
					</radialGradient>
					<path style="fill:url(#SVGID_00000155134094351901339510000011576109583676986258_);" d="M94.1,16.6
						C94.1,16.6,94.1,16.6,94.1,16.6C94.1,16.6,94.1,16.6,94.1,16.6z"/>
					
						<radialGradient id="SVGID_00000025407090788350453580000010591069376879950211_" cx="70.8013" cy="14.6687" r="0.8333" gradientTransform="matrix(-1 0 0 1 164.5734 0)" gradientUnits="userSpaceOnUse">
						<stop  offset="0" style="stop-color:#F3FCF5"/>
						<stop  offset="1" style="stop-color:#D8E2EC"/>
					</radialGradient>
					<path style="fill:url(#SVGID_00000025407090788350453580000010591069376879950211_);" d="M94.1,14.6
						C94.1,14.6,94.1,14.6,94.1,14.6C94.1,14.6,94.1,14.6,94.1,14.6z"/>
					
						<radialGradient id="SVGID_00000044159489503151651450000017272899392129259917_" cx="70.8013" cy="14.6687" r="0.8333" gradientTransform="matrix(-1 0 0 1 164.5734 0)" gradientUnits="userSpaceOnUse">
						<stop  offset="0" style="stop-color:#F3FCF5"/>
						<stop  offset="1" style="stop-color:#D8E2EC"/>
					</radialGradient>
					<path style="fill:url(#SVGID_00000044159489503151651450000017272899392129259917_);" d="M94.1,14.6
						C94.1,14.6,94.1,14.6,94.1,14.6C94.1,14.6,94.1,14.6,94.1,14.6z"/>
					
						<radialGradient id="SVGID_00000170243259384128520110000016656466240871858083_" cx="70.8013" cy="14.6687" r="0.8333" gradientTransform="matrix(-1 0 0 1 164.5734 0)" gradientUnits="userSpaceOnUse">
						<stop  offset="0" style="stop-color:#F3FCF5"/>
						<stop  offset="1" style="stop-color:#D8E2EC"/>
					</radialGradient>
					<path style="fill:url(#SVGID_00000170243259384128520110000016656466240871858083_);" d="M94.1,14.6
						C94.1,14.6,94.1,14.6,94.1,14.6C94.1,14.6,94.1,14.6,94.1,14.6z"/>
					
						<radialGradient id="SVGID_00000040533469349158184230000014030959599487008188_" cx="70.8013" cy="14.6687" r="0.8333" gradientTransform="matrix(-1 0 0 1 164.5734 0)" gradientUnits="userSpaceOnUse">
						<stop  offset="0" style="stop-color:#F3FCF5"/>
						<stop  offset="1" style="stop-color:#D8E2EC"/>
					</radialGradient>
					<path style="fill:url(#SVGID_00000040533469349158184230000014030959599487008188_);" d="M94.1,14.6
						C94.1,14.6,94.1,14.6,94.1,14.6C94.1,14.6,94.1,14.6,94.1,14.6z"/>
					
						<radialGradient id="SVGID_00000005234026153796974850000010760160898751482811_" cx="70.8013" cy="14.6687" r="0.8333" gradientTransform="matrix(-1 0 0 1 164.5734 0)" gradientUnits="userSpaceOnUse">
						<stop  offset="0" style="stop-color:#F3FCF5"/>
						<stop  offset="1" style="stop-color:#D8E2EC"/>
					</radialGradient>
					<path style="fill:url(#SVGID_00000005234026153796974850000010760160898751482811_);" d="M94.1,14.6
						C94.1,14.6,94.1,14.6,94.1,14.6C94.1,14.6,94.1,14.6,94.1,14.6z"/>
					
						<radialGradient id="SVGID_00000013169793313715421200000008173602635897978539_" cx="70.8013" cy="14.6687" r="0.8333" gradientTransform="matrix(-1 0 0 1 164.5734 0)" gradientUnits="userSpaceOnUse">
						<stop  offset="0" style="stop-color:#F3FCF5"/>
						<stop  offset="1" style="stop-color:#D8E2EC"/>
					</radialGradient>
					<path style="fill:url(#SVGID_00000013169793313715421200000008173602635897978539_);" d="M94.1,14.6
						C94.1,14.6,94.1,14.6,94.1,14.6C94.1,14.6,94.1,14.6,94.1,14.6z"/>
					
						<radialGradient id="SVGID_00000023268465048167566840000016093384272956129421_" cx="70.8013" cy="14.6687" r="0.8333" gradientTransform="matrix(-1 0 0 1 164.5734 0)" gradientUnits="userSpaceOnUse">
						<stop  offset="0" style="stop-color:#F3FCF5"/>
						<stop  offset="1" style="stop-color:#D8E2EC"/>
					</radialGradient>
					<path style="fill:url(#SVGID_00000023268465048167566840000016093384272956129421_);" d="M94.1,14.6
						C94.1,14.6,94.1,14.6,94.1,14.6C94.1,14.6,94.1,14.6,94.1,14.6z"/>
					
						<radialGradient id="SVGID_00000018238335274639906930000013344350074125109161_" cx="70.8013" cy="14.6687" r="0.8333" gradientTransform="matrix(-1 0 0 1 164.5734 0)" gradientUnits="userSpaceOnUse">
						<stop  offset="0" style="stop-color:#F3FCF5"/>
						<stop  offset="1" style="stop-color:#D8E2EC"/>
					</radialGradient>
					<path style="fill:url(#SVGID_00000018238335274639906930000013344350074125109161_);" d="M94.1,14.6
						C94.1,14.6,94.1,14.6,94.1,14.6C94.1,14.6,94.1,14.6,94.1,14.6z"/>
					
						<radialGradient id="SVGID_00000057145588076949822740000017400490282520144831_" cx="70.8013" cy="14.6687" r="0.8333" gradientTransform="matrix(-1 0 0 1 164.5734 0)" gradientUnits="userSpaceOnUse">
						<stop  offset="0" style="stop-color:#F3FCF5"/>
						<stop  offset="1" style="stop-color:#D8E2EC"/>
					</radialGradient>
					<path style="fill:url(#SVGID_00000057145588076949822740000017400490282520144831_);" d="M94.1,14.6
						C94.1,14.6,94.1,14.6,94.1,14.6C94.1,14.6,94.1,14.6,94.1,14.6z"/>
					
						<radialGradient id="SVGID_00000060729462020920207610000002737786220898809474_" cx="70.8013" cy="14.6687" r="0.8333" gradientTransform="matrix(-1 0 0 1 164.5734 0)" gradientUnits="userSpaceOnUse">
						<stop  offset="0" style="stop-color:#F3FCF5"/>
						<stop  offset="1" style="stop-color:#D8E2EC"/>
					</radialGradient>
					<path style="fill:url(#SVGID_00000060729462020920207610000002737786220898809474_);" d="M94.1,14.6
						C94.1,14.6,94.1,14.6,94.1,14.6C94.1,14.6,94.1,14.6,94.1,14.6z"/>
					
						<radialGradient id="SVGID_00000005232668956160095390000012731972008057459390_" cx="70.8013" cy="14.6687" r="0.8333" gradientTransform="matrix(-1 0 0 1 164.5734 0)" gradientUnits="userSpaceOnUse">
						<stop  offset="0" style="stop-color:#F3FCF5"/>
						<stop  offset="1" style="stop-color:#D8E2EC"/>
					</radialGradient>
					<path style="fill:url(#SVGID_00000005232668956160095390000012731972008057459390_);" d="M94.1,14.6
						C94.1,14.6,94.1,14.6,94.1,14.6C94.1,14.6,94.1,14.6,94.1,14.6z"/>
					
						<radialGradient id="SVGID_00000044875423034139356060000017883231890825395374_" cx="70.8013" cy="14.6687" r="0.8333" gradientTransform="matrix(-1 0 0 1 164.5734 0)" gradientUnits="userSpaceOnUse">
						<stop  offset="0" style="stop-color:#F3FCF5"/>
						<stop  offset="1" style="stop-color:#D8E2EC"/>
					</radialGradient>
					<path style="fill:url(#SVGID_00000044875423034139356060000017883231890825395374_);" d="M94.1,14.6
						C94.1,14.6,94.1,14.6,94.1,14.6C94.1,14.6,94.1,14.6,94.1,14.6z"/>
				</g>
				<g>
					<path class="st63" d="M96.9,15.3C96.9,15.3,96.9,15.3,96.9,15.3C96.9,15.3,96.9,15.3,96.9,15.3z"/>
					<path class="st63" d="M94.6,14.6c0.6,0,1,0.1,1,0.1s0,0,0.1,0c0.1,0,0.3,0.1,0.4,0.1c0.1,0.1,0.5,0.4,0.6,0.4
						c0,0,0.1,0.1,0.2,0.1c-0.1,0-0.1,0-0.1,0s-0.3,0-0.5,0s-0.5,0-0.8,0c-0.2,0-0.7,0-0.9,0.1l-0.3-0.4c0,0,0-0.2-0.2-0.2
						C94.1,14.6,94.2,14.6,94.6,14.6z"/>
				</g>
				
					<linearGradient id="SVGID_00000180359410166686864100000016926812396156844458_" gradientUnits="userSpaceOnUse" x1="68.2884" y1="16.7884" x2="68.2859" y2="16.8523" gradientTransform="matrix(-1 0 0 1 164.5734 0)">
					<stop  offset="0" style="stop-color:#F3FCF5"/>
					<stop  offset="1" style="stop-color:#D8E2EC"/>
				</linearGradient>
				<path style="fill:url(#SVGID_00000180359410166686864100000016926812396156844458_);" d="M95.1,16.5
					C95.1,16.5,95.1,16.5,95.1,16.5c-0.1,0.1-0.1,0.2,0,0.2c0.1,0,0.5,0,0.6,0c0.1,0,0.2,0,0.2-0.1c0,0,0,0,0-0.1l0.2,0
					c0,0,0,0,0.1,0c0.1,0,0.9,0,1,0c0.1,0,0.1-0.1,0.1-0.1l0.2,0c0,0,0,0.1,0,0.1c0,0,0,0.1,0.1,0.1c0.1,0,0.1,0,0.2-0.1
					c0,0,0-0.1,0-0.1l0,0c0,0.1,0,0.1,0,0.1l0,0c0,0.1-0.1,0.1-0.1,0.1l-0.1,0c0,0,0,0,0,0s-0.6,0-0.7,0c-0.2,0-1,0-1,0
					c-0.1,0-0.1,0-0.1,0l-0.4,0c-0.2,0-0.3,0-0.4,0c0,0,0,0,0,0c0,0-0.1,0-0.1,0c-0.1,0-0.2-0.1-0.2-0.1c0,0,0-0.1-0.1-0.3
					L95.1,16.5z"/>
				
					<linearGradient id="SVGID_00000072245595772696592330000016622107360348904874_" gradientUnits="userSpaceOnUse" x1="68.4332" y1="15.568" x2="68.4486" y2="16.556" gradientTransform="matrix(-1 0 0 1 164.5734 0)">
					<stop  offset="0" style="stop-color:#F3FCF5"/>
					<stop  offset="1" style="stop-color:#D8E2EC"/>
				</linearGradient>
				<path style="fill:url(#SVGID_00000072245595772696592330000016622107360348904874_);" d="M94.3,15.7l0.3-0.1l0.1,0
					c0,0-0.1,0-0.1,0c0,0,0,0.2,0.2,0.2c0.1,0,0.3,0.1,0.4,0.1c0.1,0,0.4,0.1,0.4,0.1l0,0l0.1,0c0,0,0.1,0,0.2,0.1
					c0,0.1,0.1,0.2,0.1,0.2s0.1,0.2,0.2,0.2c0.1,0,0.9,0,1,0c0.1,0,0.1-0.1,0.1-0.1l0.1-0.2l0.1,0c0,0,0.1-0.2,0.1-0.3
					c0,0,0,0,0.1-0.1c0,0,0.1,0,0.1-0.1c0,0,0,0,0,0c0,0,0,0,0,0c0,0,0,0.1,0,0.2c0,0.1,0.1,0.2,0.1,0.2c0,0.1,0,0.3,0,0.3l0,0
					c0,0-0.1,0-0.1,0c-0.2,0.1-1,0.1-1,0.1s-1.3,0-1.7,0c-0.4,0-0.4-0.1-0.5-0.1c0-0.1,0-0.1,0-0.2c0-0.2-0.1-0.5-0.2-0.5
					c0,0,0,0,0,0c0,0,0,0-0.1-0.1L94.3,15.7z M97.6,16.6C97.6,16.6,97.6,16.7,97.6,16.6c0.1,0.1,0.2,0,0.3,0c0,0,0.1-0.2,0-0.2
					c0,0-0.2,0-0.2,0.1C97.6,16.5,97.6,16.6,97.6,16.6z M95.2,16.7c0.1,0,0.5,0,0.6,0c0.1,0,0.2,0,0.2-0.1c0,0,0-0.1-0.1-0.2
					c0,0-0.1,0-0.3,0c-0.2,0-0.4,0-0.5,0.1C95.1,16.6,95.1,16.7,95.2,16.7z"/>
				<path class="st66" d="M94.7,15.7c0,0,0.2-0.1,0.3-0.1c0.1,0,0.3,0.1,0.4,0.1c0.1,0,0.4,0.2,0.4,0.2s0,0-0.2,0.2
					c0,0-0.2,0-0.4-0.1c-0.1,0-0.3-0.1-0.4-0.1C94.7,15.8,94.7,15.7,94.7,15.7z"/>
				<path class="st66" d="M97.7,16C97.7,16,97.6,16,97.7,16c-0.1,0.1-0.1-0.1-0.2-0.1c-0.1,0-0.1,0-0.1,0c0.1,0,0.1,0,0.2,0
					c0,0,0-0.1,0-0.1c0,0,0-0.1,0-0.1c0,0,0,0,0,0c0,0,0,0,0.1,0c0,0,0.1,0.1,0.1,0.1L97.7,16C97.8,15.9,97.8,15.9,97.7,16
					C97.8,15.9,97.7,16,97.7,16z"/>
				
					<radialGradient id="SVGID_00000115474716839646394690000013936113901209380267_" cx="67.7706" cy="16.3831" r="0.6402" gradientTransform="matrix(-1 0 0 1 164.5734 0)" gradientUnits="userSpaceOnUse">
					<stop  offset="0" style="stop-color:#F3FCF5"/>
					<stop  offset="1" style="stop-color:#D8E2EC"/>
				</radialGradient>
				<path style="fill:url(#SVGID_00000115474716839646394690000013936113901209380267_);" d="M96.2,16.7c0,0-0.2-0.2-0.3-0.4
					c0,0,0,0,0,0c0,0.1,0.1,0.1,0.1,0.1S96.2,16.6,96.2,16.7c0.1,0,1,0,1-0.1c0.1,0,0.1-0.1,0.1-0.1l0.1-0.2l0.1,0
					c0,0,0.1-0.2,0.1-0.3c0,0,0,0.2,0,0.2c0,0.1-0.1,0.3-0.2,0.4c-0.1,0-0.2,0.1-0.6,0.1C96.4,16.7,96.3,16.7,96.2,16.7z"/>
				
					<radialGradient id="SVGID_00000168102901181324020650000002739616697910317714_" cx="68.7716" cy="15.2036" r="1.1469" gradientTransform="matrix(-1 0 0 1 164.5734 0)" gradientUnits="userSpaceOnUse">
					<stop  offset="0" style="stop-color:#F3FCF5"/>
					<stop  offset="1" style="stop-color:#D8E2EC"/>
				</radialGradient>
				<path style="fill:url(#SVGID_00000168102901181324020650000002739616697910317714_);" d="M94.5,15.3c0,0,0.7,0,1-0.1
					s0.6,0,0.8,0s0.5,0,0.5,0s0.1,0,0.1,0c0,0,0,0,0,0c0.1,0,0.3,0.1,0.4,0.1c0,0,0,0,0.1,0c0.1,0,0.1,0.1,0.1,0.2
					c0,0.1,0,0.1-0.1,0.1s-0.3,0-0.6,0s-0.5,0-0.7,0c-0.2,0-0.4,0-0.5-0.1c-0.1-0.1-0.3-0.1-0.5-0.2S94.4,15.3,94.5,15.3L94.5,15.3
					C94.5,15.3,94.5,15.3,94.5,15.3z"/>
				
					<linearGradient id="SVGID_00000182488687212934195100000011364530890707628448_" gradientUnits="userSpaceOnUse" x1="69.0585" y1="15.1463" x2="69.1929" y2="14.5896" gradientTransform="matrix(-1 0 0 1 164.5734 0)">
					<stop  offset="0" style="stop-color:#191D32"/>
					<stop  offset="0.5036" style="stop-color:#606677"/>
				</linearGradient>
				<path style="fill:url(#SVGID_00000182488687212934195100000011364530890707628448_);" d="M96,14.7c0,0,0,0,0.1,0
					c0.1,0,0.4,0.2,0.6,0.4l0.1,0l0,0c0,0-0.3,0-0.5,0s-0.5,0-0.8,0c-0.3,0-1,0.1-1,0.1s0,0-0.1,0s0-0.1-0.1-0.1
					c0,0-0.1-0.4-0.1-0.4c0,0,0,0,0,0c0.1,0,0.4,0,0.9,0C95.7,14.7,96,14.7,96,14.7z"/>
				<g>
					<path class="st70" d="M97.5,15.9C97.5,15.9,97.5,15.9,97.5,15.9C97.5,15.9,97.5,15.9,97.5,15.9z"/>
					<path class="st70" d="M97.5,15.9C97.5,15.9,97.5,15.9,97.5,15.9C97.5,15.9,97.5,15.9,97.5,15.9z"/>
					<path class="st70" d="M97.5,15.9C97.5,15.9,97.5,15.9,97.5,15.9C97.5,15.9,97.5,15.9,97.5,15.9z"/>
					<g>
						
							<linearGradient id="SVGID_00000090279186088234640840000001384899895556865437_" gradientUnits="userSpaceOnUse" x1="67.9364" y1="14.391" x2="67.642" y2="14.2656" gradientTransform="matrix(-1 0 0 1 164.5734 0)">
							<stop  offset="0" style="stop-color:#F3FCF5"/>
							<stop  offset="1" style="stop-color:#D8E2EC"/>
						</linearGradient>
						<path style="fill:url(#SVGID_00000090279186088234640840000001384899895556865437_);" d="M94.6,15.2
							C94.6,15.2,94.6,15.2,94.6,15.2C94.6,15.2,94.6,15.2,94.6,15.2z"/>
						
							<linearGradient id="SVGID_00000165956947097017844030000005585382684239041161_" gradientUnits="userSpaceOnUse" x1="67.9484" y1="14.3627" x2="67.6541" y2="14.2373" gradientTransform="matrix(-1 0 0 1 164.5734 0)">
							<stop  offset="0" style="stop-color:#F3FCF5"/>
							<stop  offset="1" style="stop-color:#D8E2EC"/>
						</linearGradient>
						<path style="fill:url(#SVGID_00000165956947097017844030000005585382684239041161_);" d="M94.5,15.3
							C94.5,15.3,94.5,15.3,94.5,15.3C94.5,15.3,94.5,15.3,94.5,15.3z"/>
						
							<linearGradient id="SVGID_00000108996504195836458580000002331512272365652374_" gradientUnits="userSpaceOnUse" x1="67.9439" y1="14.3733" x2="67.6495" y2="14.2479" gradientTransform="matrix(-1 0 0 1 164.5734 0)">
							<stop  offset="0" style="stop-color:#F3FCF5"/>
							<stop  offset="1" style="stop-color:#D8E2EC"/>
						</linearGradient>
						<path style="fill:url(#SVGID_00000108996504195836458580000002331512272365652374_);" d="M94.6,15.3
							C94.6,15.3,94.6,15.3,94.6,15.3C94.6,15.3,94.6,15.3,94.6,15.3z"/>
						
							<linearGradient id="SVGID_00000102535711341232628960000010592972318891928486_" gradientUnits="userSpaceOnUse" x1="67.9391" y1="14.3845" x2="67.6448" y2="14.2591" gradientTransform="matrix(-1 0 0 1 164.5734 0)">
							<stop  offset="0" style="stop-color:#F3FCF5"/>
							<stop  offset="1" style="stop-color:#D8E2EC"/>
						</linearGradient>
						<path style="fill:url(#SVGID_00000102535711341232628960000010592972318891928486_);" d="M94.6,15.2
							C94.6,15.2,94.6,15.3,94.6,15.2C94.6,15.3,94.6,15.2,94.6,15.2z"/>
						
							<linearGradient id="SVGID_00000183941822615579687740000014456481970218760104_" gradientUnits="userSpaceOnUse" x1="67.9576" y1="14.3411" x2="67.6633" y2="14.2157" gradientTransform="matrix(-1 0 0 1 164.5734 0)">
							<stop  offset="0" style="stop-color:#F3FCF5"/>
							<stop  offset="1" style="stop-color:#D8E2EC"/>
						</linearGradient>
						<path style="fill:url(#SVGID_00000183941822615579687740000014456481970218760104_);" d="M94.5,15.3
							C94.5,15.3,94.5,15.3,94.5,15.3C94.5,15.3,94.5,15.3,94.5,15.3z"/>
						
							<linearGradient id="SVGID_00000142867025810324128550000000106029745993746592_" gradientUnits="userSpaceOnUse" x1="67.9554" y1="14.3463" x2="67.661" y2="14.2209" gradientTransform="matrix(-1 0 0 1 164.5734 0)">
							<stop  offset="0" style="stop-color:#F3FCF5"/>
							<stop  offset="1" style="stop-color:#D8E2EC"/>
						</linearGradient>
						<path style="fill:url(#SVGID_00000142867025810324128550000000106029745993746592_);" d="M94.5,15.3
							C94.5,15.3,94.5,15.3,94.5,15.3C94.5,15.3,94.5,15.3,94.5,15.3z"/>
						
							<linearGradient id="SVGID_00000096037276688239860330000012855356786171101572_" gradientUnits="userSpaceOnUse" x1="67.9516" y1="14.3551" x2="67.6573" y2="14.2297" gradientTransform="matrix(-1 0 0 1 164.5734 0)">
							<stop  offset="0" style="stop-color:#F3FCF5"/>
							<stop  offset="1" style="stop-color:#D8E2EC"/>
						</linearGradient>
						<path style="fill:url(#SVGID_00000096037276688239860330000012855356786171101572_);" d="M94.5,15.3
							C94.5,15.3,94.5,15.3,94.5,15.3C94.5,15.3,94.5,15.3,94.5,15.3z"/>
						
							<linearGradient id="SVGID_00000114071295014750524470000001424524647470257551_" gradientUnits="userSpaceOnUse" x1="70.0196" y1="15.253" x2="70.0193" y2="15.2529" gradientTransform="matrix(-1 0 0 1 164.5734 0)">
							<stop  offset="0" style="stop-color:#F3FCF5"/>
							<stop  offset="1" style="stop-color:#D8E2EC"/>
						</linearGradient>
						<path style="fill:url(#SVGID_00000114071295014750524470000001424524647470257551_);" d="M94.6,15.3
							C94.6,15.3,94.6,15.3,94.6,15.3C94.6,15.3,94.6,15.3,94.6,15.3z"/>
						
							<linearGradient id="SVGID_00000112634764063314814230000008470900245483201440_" gradientUnits="userSpaceOnUse" x1="67.9339" y1="14.3967" x2="67.6395" y2="14.2713" gradientTransform="matrix(-1 0 0 1 164.5734 0)">
							<stop  offset="0" style="stop-color:#F3FCF5"/>
							<stop  offset="1" style="stop-color:#D8E2EC"/>
						</linearGradient>
						<path style="fill:url(#SVGID_00000112634764063314814230000008470900245483201440_);" d="M94.6,15.2
							C94.6,15.2,94.6,15.2,94.6,15.2C94.6,15.2,94.6,15.2,94.6,15.2z"/>
						
							<linearGradient id="SVGID_00000170255092763746663350000006824126961636514214_" gradientUnits="userSpaceOnUse" x1="70.1143" y1="15.2587" x2="70.1141" y2="15.2586" gradientTransform="matrix(-1 0 0 1 164.5734 0)">
							<stop  offset="0" style="stop-color:#F3FCF5"/>
							<stop  offset="1" style="stop-color:#D8E2EC"/>
						</linearGradient>
						<polygon style="fill:url(#SVGID_00000170255092763746663350000006824126961636514214_);" points="94.5,15.3 94.5,15.3 
							94.5,15.3 						"/>
						
							<linearGradient id="SVGID_00000046340573563292332720000006021719921827875988_" gradientUnits="userSpaceOnUse" x1="70.1208" y1="15.2578" x2="70.1208" y2="15.2578" gradientTransform="matrix(-1 0 0 1 164.5734 0)">
							<stop  offset="0" style="stop-color:#F3FCF5"/>
							<stop  offset="1" style="stop-color:#D8E2EC"/>
						</linearGradient>
						<path style="fill:url(#SVGID_00000046340573563292332720000006021719921827875988_);" d="M94.5,15.3
							C94.5,15.3,94.5,15.3,94.5,15.3C94.5,15.3,94.5,15.3,94.5,15.3z"/>
						
							<linearGradient id="SVGID_00000034802173735292198520000006896585663753595063_" gradientUnits="userSpaceOnUse" x1="70.1153" y1="15.2586" x2="70.1151" y2="15.2585" gradientTransform="matrix(-1 0 0 1 164.5734 0)">
							<stop  offset="0" style="stop-color:#F3FCF5"/>
							<stop  offset="1" style="stop-color:#D8E2EC"/>
						</linearGradient>
						<path style="fill:url(#SVGID_00000034802173735292198520000006896585663753595063_);" d="M94.5,15.3
							C94.5,15.3,94.5,15.3,94.5,15.3C94.5,15.3,94.5,15.3,94.5,15.3z"/>
						
							<linearGradient id="SVGID_00000079480547779931648120000006527219093508231087_" gradientUnits="userSpaceOnUse" x1="70.1238" y1="15.2574" x2="70.1235" y2="15.2573" gradientTransform="matrix(-1 0 0 1 164.5734 0)">
							<stop  offset="0" style="stop-color:#F3FCF5"/>
							<stop  offset="1" style="stop-color:#D8E2EC"/>
						</linearGradient>
						<path style="fill:url(#SVGID_00000079480547779931648120000006527219093508231087_);" d="M94.4,15.3
							C94.4,15.3,94.4,15.3,94.4,15.3C94.4,15.3,94.4,15.3,94.4,15.3z"/>
						
							<linearGradient id="SVGID_00000170250229926225217550000005891094662423869073_" gradientUnits="userSpaceOnUse" x1="67.932" y1="14.4013" x2="67.6376" y2="14.2759" gradientTransform="matrix(-1 0 0 1 164.5734 0)">
							<stop  offset="0" style="stop-color:#F3FCF5"/>
							<stop  offset="1" style="stop-color:#D8E2EC"/>
						</linearGradient>
						<path style="fill:url(#SVGID_00000170250229926225217550000005891094662423869073_);" d="M94.7,15.2
							C94.7,15.2,94.7,15.2,94.7,15.2C94.7,15.2,94.7,15.2,94.7,15.2z"/>
						
							<linearGradient id="SVGID_00000127028746615671214920000009648534949476906408_" gradientUnits="userSpaceOnUse" x1="67.9297" y1="14.4066" x2="67.6353" y2="14.2812" gradientTransform="matrix(-1 0 0 1 164.5734 0)">
							<stop  offset="0" style="stop-color:#F3FCF5"/>
							<stop  offset="1" style="stop-color:#D8E2EC"/>
						</linearGradient>
						<path style="fill:url(#SVGID_00000127028746615671214920000009648534949476906408_);" d="M94.7,15.2
							C94.7,15.2,94.7,15.2,94.7,15.2C94.7,15.2,94.7,15.2,94.7,15.2z"/>
					</g>
					<path class="st70" d="M97.5,15.9C97.5,15.9,97.5,15.9,97.5,15.9C97.5,15.9,97.5,15.9,97.5,15.9z"/>
					<path class="st70" d="M97.5,15.9C97.5,15.9,97.6,15.9,97.5,15.9C97.6,15.9,97.5,15.9,97.5,15.9z"/>
					<polygon class="st70" points="97.6,15.9 97.6,15.9 97.6,15.9 					"/>
					<path class="st70" d="M97.6,15.6C97.6,15.6,97.6,15.6,97.6,15.6C97.6,15.6,97.6,15.6,97.6,15.6z"/>
					<path class="st70" d="M97.6,15.6C97.6,15.6,97.6,15.6,97.6,15.6C97.6,15.6,97.6,15.6,97.6,15.6z"/>
					<path class="st70" d="M97.6,15.6C97.6,15.6,97.6,15.6,97.6,15.6C97.6,15.6,97.6,15.6,97.6,15.6z"/>
					<polygon class="st70" points="97.6,15.6 97.6,15.6 97.6,15.6 					"/>
					<path class="st70" d="M97.5,15.9C97.5,15.9,97.5,15.9,97.5,15.9C97.5,15.9,97.5,15.9,97.5,15.9z"/>
					<path class="st70" d="M97.6,15.6C97.6,15.6,97.6,15.6,97.6,15.6C97.6,15.6,97.6,15.6,97.6,15.6z"/>
					<path class="st70" d="M97.6,15.6C97.6,15.6,97.6,15.6,97.6,15.6C97.6,15.6,97.6,15.6,97.6,15.6z"/>
				</g>
				<g>
					<path class="st86" d="M97.6,16C97.6,16,97.6,16,97.6,16C97.6,16,97.6,16,97.6,16z"/>
					<path class="st86" d="M97.6,15.9L97.6,15.9C97.6,16,97.6,16,97.6,15.9C97.6,16,97.6,16,97.6,15.9z"/>
					<path class="st86" d="M97.6,16C97.6,16,97.6,16,97.6,16C97.6,16,97.6,16,97.6,16z"/>
					<path class="st86" d="M97.8,15.9C97.8,15.9,97.8,15.9,97.8,15.9C97.8,15.9,97.8,15.9,97.8,15.9z"/>
					<path class="st86" d="M97.6,16C97.6,16,97.6,16,97.6,16C97.6,16,97.6,16,97.6,16z"/>
					<g>
						<path class="st86" d="M95.7,15.9C95.7,15.9,95.7,15.9,95.7,15.9C95.7,15.9,95.7,15.9,95.7,15.9z"/>
						<path class="st86" d="M95.6,16C95.6,16,95.7,16,95.6,16C95.7,16,95.6,16,95.6,16z"/>
					</g>
				</g>
				<path class="st63" d="M94.9,15.9c0.1,0,0.3,0.1,0.4,0.1c0.1,0,0.4,0.1,0.4,0.1l0.1,0c0,0,0.1,0,0.2,0.1c0,0,0,0,0,0
					c-0.1-0.1-0.1-0.1-0.2-0.1c-0.1,0-0.6-0.1-0.7-0.1C94.8,15.9,94.8,15.9,94.9,15.9c-0.1-0.1-0.2-0.2-0.2-0.2
					C94.7,15.7,94.7,15.8,94.9,15.9z"/>
				<g>
					<path class="st63" d="M97.8,15.9C97.8,15.9,97.8,15.9,97.8,15.9C97.8,15.9,97.8,15.9,97.8,15.9C97.8,15.9,97.8,15.9,97.8,15.9
						C97.8,16,97.8,16,97.8,15.9c0,0.1-0.1,0.1-0.1,0.1c0,0,0,0,0,0c0,0,0,0,0,0c0,0,0,0,0,0c0,0,0,0,0,0c0,0,0,0,0,0c0,0,0,0,0,0
						c0,0,0,0,0,0c0,0,0,0,0,0c0,0,0,0,0,0C97.7,16,97.7,16,97.8,15.9C97.7,16,97.7,16,97.8,15.9C97.7,16,97.7,16,97.8,15.9
						C97.7,16,97.7,16,97.8,15.9C97.7,16,97.7,16,97.8,15.9C97.7,16,97.7,16,97.8,15.9C97.7,16,97.7,16,97.8,15.9
						C97.7,16,97.8,15.9,97.8,15.9C97.8,15.9,97.8,15.9,97.8,15.9z"/>
				</g>
				<g>
					<path class="st63" d="M97.9,16.5c0-0.1,0-0.1,0-0.1c0,0-0.2,0-0.2,0.1c0,0-0.1,0.1-0.1,0.2c0,0,0,0,0,0.1c-0.1,0,0-0.2,0-0.2
						c0,0,0.1-0.1,0.2-0.1S97.9,16.4,97.9,16.5C97.9,16.5,97.9,16.5,97.9,16.5z"/>
					<path class="st63" d="M97.9,16.6C97.9,16.6,97.9,16.6,97.9,16.6C97.9,16.6,97.9,16.6,97.9,16.6z"/>
				</g>
				<path class="st63" d="M95.2,16.7c0.1,0,0.2,0,0.4,0c-0.2,0-0.5,0-0.5,0c0,0,0.1-0.2,0.1-0.2c0.1-0.1,0.5,0,0.6,0
					c0.1,0,0.2,0,0.2,0.1c0,0.1,0,0.1,0,0.1c0,0,0,0,0,0c0,0,0-0.1-0.1-0.2c0,0-0.1,0-0.3,0c-0.2,0-0.4,0-0.5,0.1
					C95.1,16.6,95.1,16.7,95.2,16.7z"/>
				<path class="st87" d="M94.2,14.7C94.2,14.7,94.2,14.7,94.2,14.7c0.1,0,0.5-0.1,1,0c0.5,0,0.8,0.1,0.8,0.1s0.1,0,0.1,0
					c0,0,0.3,0.1,0.4,0.3c0.1,0.1,0.2,0.2,0.3,0.2c0,0-0.2,0-0.6,0c0,0-0.1,0-0.1,0c-0.2,0-0.4,0-0.6,0c-0.1,0-0.3,0-0.6,0
					c-0.2,0-0.4,0-0.5,0c0,0-0.1,0-0.1-0.1C94.3,15.1,94.2,14.7,94.2,14.7z"/>
				<path class="st88" d="M94.3,14.7c0.1,0,0.5,0,0.9,0c0.5,0,0.8,0.1,0.8,0.1s0.1,0,0.1,0c0,0,0.3,0.1,0.4,0.3
					c0.1,0.1,0.2,0.2,0.3,0.2c0,0-0.1,0-0.4,0c-0.2-0.1-0.5-0.3-0.9-0.4C95,14.6,94.4,14.7,94.3,14.7C94.2,14.7,94.2,14.7,94.3,14.7
					C94.2,14.7,94.2,14.7,94.3,14.7z"/>
				
					<linearGradient id="SVGID_00000078031456420930010570000013641938394147793339_" gradientUnits="userSpaceOnUse" x1="70.8672" y1="15.373" x2="70.7597" y2="14.8759" gradientTransform="matrix(-1 0 0 1 164.5734 0)">
					<stop  offset="0" style="stop-color:#191D32"/>
					<stop  offset="0.5036" style="stop-color:#606677"/>
				</linearGradient>
				<path style="fill:url(#SVGID_00000078031456420930010570000013641938394147793339_);" d="M93.9,14.7c0.1,0,0.1,0.1,0.1,0.1
					c0,0,0.1,0.4,0.1,0.4c0,0,0,0.1,0,0.1c0,0-0.1,0.1-0.2,0.1c-0.1,0-0.2,0-0.3-0.1s-0.4-0.1-0.4-0.1s-0.1,0-0.1,0c0,0,0-0.1,0-0.1
					c0,0,0.1-0.2,0.2-0.2C93.6,14.7,93.8,14.6,93.9,14.7z"/>
				<g>
					<path class="st87" d="M93.6,15.3c0-0.1,0.1-0.2,0.1-0.3c0-0.1,0.1-0.2,0.1-0.2c0,0,0.1,0,0.2,0.1c0,0.1,0.1,0.3,0.1,0.3
						l-0.1,0.3c0,0-0.1,0-0.2,0C93.8,15.3,93.7,15.3,93.6,15.3C93.6,15.3,93.6,15.3,93.6,15.3z"/>
					<path class="st87" d="M93.5,14.9L93.5,14.9c0.1-0.1,0.2-0.1,0.3-0.2c0,0,0,0,0,0c0,0.1-0.1,0.1-0.1,0.3
						c-0.1,0.1-0.1,0.3-0.1,0.3c0,0-0.1,0-0.1,0s-0.1,0-0.2,0C93.4,15.1,93.5,14.9,93.5,14.9z"/>
					<path class="st87" d="M93.3,15.1c0,0,0.1-0.1,0.2-0.2C93.4,14.9,93.4,15,93.3,15.1c0,0,0,0.1,0,0.1c0,0,0,0,0,0
						C93.3,15.2,93.3,15.1,93.3,15.1z"/>
				</g>
				<g>
					<path class="st88" d="M93.8,14.9c0-0.1,0.1-0.2,0.1-0.2c0,0,0.1,0,0.2,0.1c0,0.1,0.1,0.3,0.1,0.3l-0.1,0.3c0,0,0,0-0.1,0
						C93.9,15.2,93.9,15,93.8,14.9z"/>
					<path class="st88" d="M93.5,14.9c0.1,0,0.2-0.1,0.3-0.2c0,0,0,0,0,0c0,0-0.1,0.1-0.1,0.2c0,0-0.1,0-0.1,0
						C93.6,14.9,93.5,14.9,93.5,14.9L93.5,14.9z"/>
				</g>
				<path class="st26" d="M94.2,15.2C94.2,15.2,94.2,15.3,94.2,15.2c0,0.1,0,0.1-0.1,0.1s-0.4,0-0.4,0c0,0-0.1-0.1,0-0.2
					c0,0,0.2-0.1,0.2-0.1s0.2,0,0.2,0c0,0,0,0.1,0,0.1L94.2,15.2C94.1,15.2,94.1,15.2,94.2,15.2z"/>
				
					<linearGradient id="SVGID_00000076597543734560737220000017118992010208976524_" gradientUnits="userSpaceOnUse" x1="70.7865" y1="15.6217" x2="70.9938" y2="16.1016" gradientTransform="matrix(-1 0 0 1 164.5734 0)">
					<stop  offset="0" style="stop-color:#F3FCF5"/>
					<stop  offset="1" style="stop-color:#D8E2EC"/>
				</linearGradient>
				<path style="fill:url(#SVGID_00000076597543734560737220000017118992010208976524_);" d="M93.1,15.4c0,0,0.1-0.1,0.1-0.1
					c0,0,0,0,0-0.1c0,0,0,0,0,0c0,0,0.1,0,0.1,0s0.3,0.1,0.4,0.1c0.1,0,0.3,0.1,0.3,0.1c0.1,0,0.1,0,0.1-0.1c0,0.1-0.1,0.1-0.1,0.2
					c0,0-0.1,0.1-0.1,0.1s0,0.1,0,0.3c0,0.5,0.1,0.7,0.1,0.7s-0.3-0.1-0.5-0.1c-0.1,0-0.3-0.1-0.3-0.1c-0.1-0.1-0.2-0.5-0.2-0.6
					C93.1,15.7,93.1,15.4,93.1,15.4z"/>
				
					<linearGradient id="SVGID_00000110432131127949674760000016119749109462667697_" gradientUnits="userSpaceOnUse" x1="70.3234" y1="15.3966" x2="71.4675" y2="15.4504" gradientTransform="matrix(-1 0 0 1 164.5734 0)">
					<stop  offset="0" style="stop-color:#F3FCF5"/>
					<stop  offset="1" style="stop-color:#D8E2EC"/>
				</linearGradient>
				<path style="fill:url(#SVGID_00000110432131127949674760000016119749109462667697_);" d="M93.1,15.4c0,0,0.1-0.1,0.1-0.1
					c0,0,0,0,0-0.1c0,0,0,0,0,0c0,0,0.1,0,0.1,0s0.3,0.1,0.4,0.1c0.1,0,0.3,0.1,0.3,0.1c0.1,0,0.1,0,0.1-0.1c0,0.1-0.1,0.1-0.1,0.2
					c0,0-0.1,0.1-0.1,0.1s0,0,0,0L93.1,15.4C93.1,15.4,93.1,15.4,93.1,15.4z"/>
				<path class="st63" d="M94.2,15.8c0-0.1,0.1-0.1,0.2-0.1c0.1,0,0.2,0.2,0.2,0.3c0,0.1,0.1,0.4,0.1,0.6c0-0.1,0-0.1,0-0.2
					c0-0.2-0.1-0.5-0.2-0.5c0,0,0,0,0,0c0,0-0.1-0.1-0.1-0.1c-0.2,0.1-0.2,0.5-0.2,0.6C94.1,16.5,94.1,16.2,94.2,15.8z"/>
				<path class="st63" d="M93,15.7c0,0,0.1,0.3,0.1,0.4C93.1,16,93.1,15.8,93,15.7C93,15.8,93,15.8,93,15.7
					c-0.1,0.1-0.1,0.1-0.1,0.4C92.9,15.7,93,15.7,93,15.7z"/>
				
					<linearGradient id="SVGID_00000087398065790162298420000010188717917038806145_" gradientUnits="userSpaceOnUse" x1="71.1665" y1="16.1919" x2="70.8312" y2="16.6526" gradientTransform="matrix(-1 0 0 1 164.5734 0)">
					<stop  offset="0.5165" style="stop-color:#F3FCF5"/>
					<stop  offset="1" style="stop-color:#D8E2EC"/>
				</linearGradient>
				<path style="fill:url(#SVGID_00000087398065790162298420000010188717917038806145_);" d="M93.3,16.4c0,0,0.1,0,0.2,0.1
					c0.1,0,0.5,0.2,0.5,0.2l0,0c0,0,0,0,0,0c0,0,0,0,0,0c0,0,0,0,0,0l0,0c0,0-0.5-0.1-0.6-0.2c0,0,0,0,0,0l0,0c0,0-0.1,0-0.1,0
					C93.3,16.5,93.3,16.5,93.3,16.4c-0.1,0.1-0.1,0.1-0.1,0c0,0,0-0.1-0.1-0.3l0-0.1C93.2,16.4,93.3,16.4,93.3,16.4z"/>
				<path class="st27" d="M93.6,15.3c0,0-0.1,0.1-0.1,0.1c0,0,0,0,0,0c0,0,0,0.1,0,0.1c0,0,0,0.1,0,0.1c0,0.1,0,0.1,0,0.2
					c0,0.1,0,0.2,0.1,0.3c0,0,0,0.1,0,0.1c0,0,0,0.1,0,0.1c0,0,0-0.1,0-0.1c0,0,0-0.1,0-0.1c0-0.1,0-0.2-0.1-0.3c0-0.1,0-0.1,0-0.2
					c0-0.1,0-0.1,0-0.2c0,0,0-0.1,0-0.1c0,0,0,0,0,0C93.5,15.4,93.6,15.3,93.6,15.3L93.6,15.3z"/>
				<g>
					
						<radialGradient id="SVGID_00000066487532032399350040000018292994033596600741_" cx="71.3795" cy="15.3998" r="5.259519e-02" gradientTransform="matrix(-1 0 0 1 164.5734 0)" gradientUnits="userSpaceOnUse">
						<stop  offset="0" style="stop-color:#F3FCF5"/>
						<stop  offset="1" style="stop-color:#D8E2EC"/>
					</radialGradient>
					<path style="fill:url(#SVGID_00000066487532032399350040000018292994033596600741_);" d="M93.2,15.4
						C93.2,15.4,93.2,15.4,93.2,15.4C93.2,15.4,93.2,15.5,93.2,15.4C93.2,15.5,93.2,15.4,93.2,15.4C93.2,15.4,93.2,15.4,93.2,15.4
						C93.2,15.4,93.1,15.4,93.2,15.4C93.1,15.4,93.2,15.4,93.2,15.4C93.2,15.4,93.2,15.4,93.2,15.4z"/>
					
						<radialGradient id="SVGID_00000039113024751007985540000005005460746078074557_" cx="70.9613" cy="15.4993" r="7.134560e-02" gradientTransform="matrix(-1 0 0 1 164.5734 0)" gradientUnits="userSpaceOnUse">
						<stop  offset="0" style="stop-color:#F3FCF5"/>
						<stop  offset="1" style="stop-color:#D8E2EC"/>
					</radialGradient>
					<path style="fill:url(#SVGID_00000039113024751007985540000005005460746078074557_);" d="M93.6,15.5
						C93.6,15.5,93.6,15.5,93.6,15.5C93.6,15.5,93.6,15.5,93.6,15.5C93.6,15.6,93.6,15.6,93.6,15.5C93.6,15.6,93.6,15.5,93.6,15.5
						C93.6,15.5,93.6,15.5,93.6,15.5c-0.1,0-0.1,0-0.1,0s0,0,0-0.1C93.5,15.5,93.6,15.5,93.6,15.5C93.6,15.5,93.6,15.5,93.6,15.5z"
						/>
				</g>
				<g>
					
						<radialGradient id="SVGID_00000075844345597415810610000000585256823055462529_" cx="71.3795" cy="15.3998" r="5.259519e-02" gradientTransform="matrix(-1 0 0 1 164.5734 0)" gradientUnits="userSpaceOnUse">
						<stop  offset="0" style="stop-color:#F3FCF5"/>
						<stop  offset="1" style="stop-color:#D8E2EC"/>
					</radialGradient>
					<path style="fill:url(#SVGID_00000075844345597415810610000000585256823055462529_);" d="M93.2,15.4
						C93.2,15.4,93.2,15.4,93.2,15.4C93.2,15.4,93.2,15.5,93.2,15.4C93.2,15.5,93.2,15.4,93.2,15.4C93.2,15.4,93.2,15.4,93.2,15.4
						C93.2,15.4,93.1,15.4,93.2,15.4C93.1,15.4,93.2,15.4,93.2,15.4C93.2,15.4,93.2,15.4,93.2,15.4z"/>
					
						<radialGradient id="SVGID_00000153674105076622668010000016982643954915514499_" cx="70.9613" cy="15.4993" r="7.134560e-02" gradientTransform="matrix(-1 0 0 1 164.5734 0)" gradientUnits="userSpaceOnUse">
						<stop  offset="0" style="stop-color:#F3FCF5"/>
						<stop  offset="1" style="stop-color:#D8E2EC"/>
					</radialGradient>
					<path style="fill:url(#SVGID_00000153674105076622668010000016982643954915514499_);" d="M93.6,15.5
						C93.6,15.5,93.6,15.5,93.6,15.5C93.6,15.5,93.6,15.5,93.6,15.5C93.6,15.6,93.6,15.6,93.6,15.5C93.6,15.6,93.6,15.5,93.6,15.5
						C93.6,15.5,93.6,15.5,93.6,15.5c-0.1,0-0.1,0-0.1,0s0,0,0-0.1C93.5,15.5,93.6,15.5,93.6,15.5C93.6,15.5,93.6,15.5,93.6,15.5z"
						/>
				</g>
				<path class="st97" d="M94.8,15.6C94.8,15.7,94.8,15.7,94.8,15.6c0.1,0.1,0.2,0.1,0.2,0.1c0,0,0.1,0.1,0.2,0.1
					c0.1,0,0.1-0.1,0.2-0.1c0,0,0.2,0,0.3,0c0,0,0.1,0,0.1,0s0,0-0.2,0.2c0,0-0.2,0-0.4-0.1c-0.1,0-0.3-0.1-0.4-0.1
					C94.7,15.8,94.7,15.7,94.8,15.6C94.7,15.7,94.7,15.6,94.8,15.6C94.8,15.6,94.8,15.6,94.8,15.6z"/>
				<path class="st97" d="M97.5,15.9l0.1,0c0,0,0.1,0,0.1,0l0,0.1c0,0,0,0,0,0c0,0,0,0.1-0.1,0.1c0,0-0.1,0.1-0.1,0.1
					S97.6,15.9,97.5,15.9z"/>
				<path class="st98" d="M93.7,15.2C93.6,15.2,93.6,15.2,93.7,15.2C93.6,15.2,93.6,15.2,93.7,15.2c0-0.1,0.1-0.1,0.2-0.1
					s0.2,0,0.2,0c0,0,0,0.1,0,0.1l0,0c0,0,0,0,0.1,0c0,0,0,0,0,0c0,0,0,0,0,0c0,0,0,0-0.1,0C94,15.3,93.7,15.3,93.7,15.2
					c0,0,0.2,0.1,0.3,0.1c0.1,0,0.1-0.1,0.1-0.1S93.8,15.2,93.7,15.2z"/>
				<g>
					<path class="st99" d="M95.7,15.7C95.7,15.7,95.6,15.7,95.7,15.7C95.6,15.7,95.7,15.7,95.7,15.7z"/>
					
						<linearGradient id="SVGID_00000011026302840800101190000007859144203311703967_" gradientUnits="userSpaceOnUse" x1="67.92" y1="15.5381" x2="67.9226" y2="16.1217" gradientTransform="matrix(-1 0 0 1 164.5734 0)">
						<stop  offset="0" style="stop-color:#F3FCF5"/>
						<stop  offset="1" style="stop-color:#D8E2EC"/>
					</linearGradient>
					<path style="fill:url(#SVGID_00000011026302840800101190000007859144203311703967_);" d="M95.7,15.7c0.1,0,0.3,0,0.4,0
						c0.2,0,0.4,0,0.7,0s0.5,0,0.6,0s0.1,0,0.1-0.1c0-0.1-0.1-0.1-0.1-0.2c0,0,0,0-0.1,0c0,0,0,0,0,0v0c0,0,0.1,0,0.1,0
						c0.1,0,0.2,0.1,0.2,0.2c0,0,0,0,0,0c0,0,0,0.1,0,0.1c0,0.1,0,0.1,0,0.1c0,0-0.1,0-0.2,0l-1.2,0c0,0-0.3,0-0.4,0
						C95.8,15.7,95.7,15.7,95.7,15.7z"/>
				</g>
				<g>
					
						<ellipse transform="matrix(1 -2.643658e-03 2.643658e-03 1 -4.330774e-02 0.2495)" class="st63" cx="94.3" cy="16.5" rx="0.2" ry="0.5"/>
					
						<ellipse transform="matrix(1 -2.643658e-03 2.643658e-03 1 -4.326476e-02 0.2496)" class="st26" cx="94.4" cy="16.5" rx="0.1" ry="0.5"/>
					<g>
						<path class="st16" d="M94.2,16.3"/>
						<path class="st101" d="M94.3,16.4C94.3,16.4,94.4,16.4,94.3,16.4C94.4,16.5,94.3,16.4,94.3,16.4c-0.1,0-0.1-0.1-0.1-0.1
							C94.2,16.3,94.2,16.3,94.3,16.4C94.3,16.3,94.3,16.4,94.3,16.4z"/>
					</g>
					<g>
						<path class="st16" d="M94.2,16.9C94.2,16.9,94.2,16.9,94.2,16.9C94.2,16.9,94.2,16.9,94.2,16.9z"/>
						<path class="st101" d="M94.3,16.7c0-0.1,0.1-0.1,0.1-0.1C94.4,16.6,94.4,16.7,94.3,16.7c0.1,0,0,0.1,0,0.1c0,0,0,0,0,0
							c0,0-0.1,0-0.1,0.1l0,0c0,0,0,0,0,0C94.3,16.9,94.3,16.8,94.3,16.7z"/>
						<path class="st16" d="M94.2,16.9C94.2,16.9,94.3,17,94.2,16.9C94.3,17,94.2,16.9,94.2,16.9z"/>
						<path class="st16" d="M94.2,16.9C94.2,16.9,94.2,16.9,94.2,16.9C94.2,16.9,94.2,16.9,94.2,16.9z"/>
						<path class="st16" d="M94.2,16.9C94.2,16.9,94.2,16.9,94.2,16.9C94.2,16.9,94.2,16.9,94.2,16.9z"/>
					</g>
					<path class="st31" d="M94.3,16.5c0,0-0.1-0.1-0.2-0.1c0-0.1,0-0.1,0-0.2C94.2,16.3,94.3,16.4,94.3,16.5
						C94.3,16.4,94.4,16.5,94.3,16.5c0-0.1,0-0.2,0-0.2c0-0.1,0-0.2,0-0.3c0,0,0,0,0,0c0,0,0,0,0,0C94.4,16,94.3,16.2,94.3,16.5
						L94.3,16.5c0-0.1,0.1-0.1,0.2-0.2c0,0.1,0,0.1,0,0.2c0,0,0,0-0.1,0c0,0,0,0.1,0,0.1l0,0c0,0,0,0.1,0,0.2c0,0,0,0,0,0
						c0,0.1,0,0.2-0.1,0.2c0-0.1,0-0.2,0-0.3C94.4,16.7,94.4,16.6,94.3,16.5c0,0.1,0,0.1,0,0.2c0,0.1,0,0.2,0,0.3c0,0,0-0.1-0.1-0.1
						C94.2,16.8,94.3,16.6,94.3,16.5C94.3,16.6,94.3,16.5,94.3,16.5z"/>
					<path class="st101" d="M94.4,16.6C94.4,16.5,94.4,16.5,94.4,16.6c0-0.1,0.1-0.1,0.1-0.1c0,0,0,0,0,0
						C94.5,16.5,94.5,16.5,94.4,16.6C94.5,16.5,94.5,16.6,94.4,16.6L94.4,16.6c0.1,0.1,0,0.2,0.1,0.3c0,0,0,0,0,0c0,0,0,0.1,0,0.1
						c0,0,0,0,0,0C94.4,16.7,94.4,16.6,94.4,16.6z"/>
					<path class="st101" d="M94.4,16.3C94.4,16.3,94.4,16.3,94.4,16.3c0,0.2,0,0.2,0,0.2l0,0c0-0.2,0-0.4,0-0.5c0,0,0.1,0.1,0.1,0.1
						C94.4,16.1,94.4,16.2,94.4,16.3z"/>
				</g>
				<g>
					
						<ellipse transform="matrix(1 -2.643831e-03 2.643831e-03 1 -4.270140e-02 0.2459)" class="st63" cx="93" cy="16.3" rx="0.1" ry="0.4"/>
					
						<ellipse transform="matrix(1 -2.643829e-03 2.643829e-03 1 -4.267174e-02 0.246)" class="st26" cx="93" cy="16.3" rx="0.1" ry="0.3"/>
					<g>
						<path class="st16" d="M92.9,16.1"/>
						<path class="st101" d="M93,16.2C93,16.2,93,16.2,93,16.2C93,16.2,93,16.2,93,16.2C93,16.2,93,16.1,93,16.2
							C92.9,16.1,93,16.1,93,16.2C93,16.1,93,16.2,93,16.2z"/>
					</g>
					<g>
						<path class="st16" d="M93,16.5C93,16.6,93,16.6,93,16.5C93,16.6,93,16.6,93,16.5z"/>
						<path class="st101" d="M93,16.4C93,16.3,93,16.3,93,16.4C93,16.3,93,16.4,93,16.4C93,16.4,93,16.5,93,16.4c0,0.1,0,0.1,0,0.1
							c0,0,0,0,0,0l0,0c0,0,0,0,0,0C93,16.6,93,16.5,93,16.4z"/>
						<path class="st16" d="M93,16.6C93,16.6,93,16.6,93,16.6C93,16.6,93,16.6,93,16.6z"/>
						<path class="st16" d="M93,16.5C93,16.5,93,16.5,93,16.5C93,16.5,93,16.5,93,16.5z"/>
						<path class="st16" d="M93,16.5C93,16.5,93,16.5,93,16.5C93,16.5,93,16.5,93,16.5z"/>
					</g>
					<path class="st31" d="M93,16.3C93,16.3,93,16.2,93,16.3c-0.1-0.1-0.1-0.1-0.1-0.2C93,16.1,93,16.2,93,16.3
						C93,16.2,93,16.2,93,16.3c0-0.1,0-0.1,0-0.2c0-0.1,0-0.2,0-0.2c0,0,0,0,0,0c0,0,0,0,0,0C93,15.9,93,16.1,93,16.3L93,16.3
						c0,0,0-0.1,0.1-0.2C93.1,16.2,93.1,16.2,93,16.3C93.1,16.3,93.1,16.3,93,16.3C93,16.3,93.1,16.3,93,16.3L93,16.3
						c0,0.1,0,0.2,0.1,0.2c0,0,0,0,0,0c0,0.1,0,0.1,0,0.1c0,0,0-0.2,0-0.2C93,16.4,93,16.3,93,16.3c0,0.1,0,0.1,0,0.2
						c0,0.1,0,0.1,0,0.2c0,0,0-0.1,0-0.1C93,16.5,93,16.3,93,16.3C93,16.3,93,16.3,93,16.3z"/>
					<path class="st101" d="M93,16.3C93,16.3,93,16.3,93,16.3C93,16.3,93.1,16.2,93,16.3C93.1,16.2,93.1,16.3,93,16.3
						C93.1,16.3,93.1,16.3,93,16.3C93,16.3,93.1,16.3,93,16.3L93,16.3c0,0,0,0.1,0,0.2c0,0,0,0,0,0c0,0,0,0,0,0.1c0,0,0,0,0,0
						C93,16.4,93,16.3,93,16.3z"/>
					<path class="st101" d="M93,16.1C93,16.1,93,16.2,93,16.1c0,0.1,0,0.1,0,0.1l0,0c0-0.2,0-0.3,0-0.3c0,0,0,0.1,0,0.1
						C93,16,93,16,93,16.1z"/>
				</g>
			</g>
		</g>
	</g>
</g>
</svg>
